%TF.GenerationSoftware,KiCad,Pcbnew,8.0.5*%
%TF.CreationDate,2025-02-04T15:21:29-08:00*%
%TF.ProjectId,MM36-Dash,4d4d3336-2d44-4617-9368-2e6b69636164,rev?*%
%TF.SameCoordinates,Original*%
%TF.FileFunction,Copper,L2,Bot*%
%TF.FilePolarity,Positive*%
%FSLAX46Y46*%
G04 Gerber Fmt 4.6, Leading zero omitted, Abs format (unit mm)*
G04 Created by KiCad (PCBNEW 8.0.5) date 2025-02-04 15:21:29*
%MOMM*%
%LPD*%
G01*
G04 APERTURE LIST*
%TA.AperFunction,ComponentPad*%
%ADD10R,1.000000X1.000000*%
%TD*%
%TA.AperFunction,ComponentPad*%
%ADD11O,1.000000X1.000000*%
%TD*%
%TA.AperFunction,ComponentPad*%
%ADD12C,1.600000*%
%TD*%
%TA.AperFunction,ComponentPad*%
%ADD13R,1.600000X1.600000*%
%TD*%
%TA.AperFunction,ComponentPad*%
%ADD14C,1.200000*%
%TD*%
%TA.AperFunction,ComponentPad*%
%ADD15O,2.200000X1.300000*%
%TD*%
%TA.AperFunction,ConnectorPad*%
%ADD16C,5.700000*%
%TD*%
%TA.AperFunction,ComponentPad*%
%ADD17C,3.600000*%
%TD*%
%TA.AperFunction,ComponentPad*%
%ADD18R,1.478000X1.478000*%
%TD*%
%TA.AperFunction,ComponentPad*%
%ADD19C,1.478000*%
%TD*%
%TA.AperFunction,ViaPad*%
%ADD20C,0.600000*%
%TD*%
%TA.AperFunction,Conductor*%
%ADD21C,0.300000*%
%TD*%
%TA.AperFunction,Conductor*%
%ADD22C,0.350000*%
%TD*%
%TA.AperFunction,Conductor*%
%ADD23C,0.400000*%
%TD*%
G04 APERTURE END LIST*
D10*
%TO.P,J5,1,Pin_1*%
%TO.N,BUTTON4*%
X141700000Y-135200000D03*
D11*
%TO.P,J5,2,Pin_2*%
%TO.N,GND*%
X141700000Y-133930000D03*
%TD*%
D10*
%TO.P,J1,1,Pin_1*%
%TO.N,BUTTON3*%
X157830000Y-147600000D03*
D11*
%TO.P,J1,2,Pin_2*%
%TO.N,GND*%
X159100000Y-147600000D03*
%TD*%
%TO.P,J4,2,Pin_2*%
%TO.N,GND*%
X130575000Y-127305000D03*
D10*
%TO.P,J4,1,Pin_1*%
%TO.N,BUTTON2*%
X130575000Y-128575000D03*
%TD*%
D11*
%TO.P,J2,2,Pin_2*%
%TO.N,GND*%
X130500000Y-133970000D03*
D10*
%TO.P,J2,1,Pin_1*%
%TO.N,BUTTON1*%
X130500000Y-132700000D03*
%TD*%
D12*
%TO.P,C2,2*%
%TO.N,GND*%
X143850000Y-172600000D03*
D13*
%TO.P,C2,1*%
%TO.N,Net-(U2-EN)*%
X143850000Y-170100000D03*
%TD*%
D14*
%TO.P,USB1,SH3,3*%
%TO.N,GND*%
X132350000Y-143125000D03*
D15*
%TO.P,USB1,SH2,2*%
X129700000Y-144300000D03*
%TO.P,USB1,SH1,1*%
X129700000Y-137100000D03*
D14*
%TO.P,USB1,SH0,MTN*%
X132350000Y-138275000D03*
%TD*%
D16*
%TO.P,H1,1*%
%TO.N,GND*%
X135500000Y-172200000D03*
D17*
X135500000Y-172200000D03*
%TD*%
D16*
%TO.P,H1,1*%
%TO.N,GND*%
X108579996Y-123443576D03*
D17*
X108579996Y-123443576D03*
%TD*%
D16*
%TO.P,REF\u002A\u002A,1*%
%TO.N,GND*%
X178200000Y-127100000D03*
D17*
X178200000Y-127100000D03*
%TD*%
D16*
%TO.P,REF\u002A\u002A,1*%
%TO.N,GND*%
X219850000Y-129850000D03*
D17*
X219850000Y-129850000D03*
%TD*%
D16*
%TO.P,REF\u002A\u002A,1*%
%TO.N,GND*%
X304133706Y-123443576D03*
D17*
X304133706Y-123443576D03*
%TD*%
D16*
%TO.P,REF\u002A\u002A,1*%
%TO.N,GND*%
X220896696Y-155104076D03*
D17*
X220896696Y-155104076D03*
%TD*%
D18*
%TO.P,J3,1,1*%
%TO.N,GND*%
X135512500Y-160910000D03*
D19*
%TO.P,J3,2,2*%
%TO.N,+12V*%
X135512500Y-158370000D03*
%TO.P,J3,3,3*%
%TO.N,CANH*%
X135512500Y-155830000D03*
%TO.P,J3,4,4*%
%TO.N,CANL*%
X135512500Y-153290000D03*
%TD*%
D20*
%TO.N,GND*%
X112900000Y-121050000D03*
X166750000Y-135650000D03*
X159800000Y-121100000D03*
X161700000Y-140600000D03*
X154400000Y-149100000D03*
X170750000Y-125950000D03*
X151800000Y-125850000D03*
X160300000Y-137400000D03*
X210800000Y-124350000D03*
X150350000Y-168000000D03*
X140550000Y-121000000D03*
X166700000Y-139150000D03*
X157100000Y-163850000D03*
X134000000Y-142100000D03*
X286550000Y-121050000D03*
X160250000Y-139100000D03*
X189750000Y-126150000D03*
X141650000Y-127700000D03*
X266000000Y-126200000D03*
X166750000Y-137550000D03*
X297650000Y-125850000D03*
X246950000Y-126100000D03*
X150300000Y-161050000D03*
X160250000Y-135700000D03*
X185400000Y-153400000D03*
X154700000Y-129900000D03*
X172200000Y-144500000D03*
X163450000Y-140650000D03*
X141600000Y-166850000D03*
X179050000Y-121000000D03*
X162750000Y-163900000D03*
X165400000Y-126550000D03*
X158450000Y-150450000D03*
X235900000Y-121000000D03*
X172000000Y-130400000D03*
X144650000Y-145750000D03*
X151500000Y-135600000D03*
X166800000Y-145850000D03*
X255050000Y-121100000D03*
X134150000Y-144000000D03*
X197450000Y-121000000D03*
X151500000Y-165250000D03*
X152750000Y-152750000D03*
X165200000Y-140700000D03*
X134150000Y-140400000D03*
X151500000Y-161050000D03*
X145050000Y-135550000D03*
X156200000Y-145950000D03*
X150350000Y-165250000D03*
X153050000Y-143650000D03*
X227800000Y-126000000D03*
X125400000Y-124500000D03*
X216800000Y-121000000D03*
X167650000Y-159200000D03*
%TO.N,+3.3V*%
X167300000Y-150500000D03*
X168350000Y-143300000D03*
%TO.N,Net-(U1-EN)*%
X170300000Y-147100000D03*
X170600000Y-152400000D03*
%TO.N,DIN*%
X156550000Y-128900000D03*
X151925000Y-127725000D03*
%TO.N,GLED01*%
X172350000Y-139950000D03*
X166450000Y-141800000D03*
%TO.N,GLED02*%
X166450000Y-134200000D03*
X173650000Y-134250000D03*
%TO.N,GLED03*%
X165200000Y-133250000D03*
X172650000Y-133250000D03*
%TO.N,GLED04*%
X175250000Y-132450000D03*
X167250000Y-132500000D03*
%TO.N,GLED05*%
X166500000Y-131550000D03*
X173850000Y-131550000D03*
%TO.N,GLED06*%
X159950000Y-142050000D03*
X164050000Y-146150000D03*
%TO.N,GLED07*%
X162650000Y-145950000D03*
X160050000Y-143400000D03*
%TD*%
D21*
%TO.N,+3.3V*%
X168150000Y-143500000D02*
X168150000Y-149650000D01*
X168350000Y-143300000D02*
X168150000Y-143500000D01*
X168150000Y-149650000D02*
X167300000Y-150500000D01*
D22*
%TO.N,Net-(U1-EN)*%
X170300000Y-147100000D02*
X170200000Y-147200000D01*
X170200000Y-152000000D02*
X170600000Y-152400000D01*
X170200000Y-147200000D02*
X170200000Y-152000000D01*
D23*
%TO.N,DIN*%
X156150000Y-128500000D02*
X156550000Y-128900000D01*
X151925000Y-127725000D02*
X152700000Y-128500000D01*
X152700000Y-128500000D02*
X156150000Y-128500000D01*
D22*
%TO.N,GLED01*%
X170500000Y-141800000D02*
X166450000Y-141800000D01*
X172350000Y-139950000D02*
X170500000Y-141800000D01*
%TO.N,GLED02*%
X166450000Y-134200000D02*
X173600000Y-134200000D01*
X173600000Y-134200000D02*
X173650000Y-134250000D01*
%TO.N,GLED03*%
X165200000Y-133250000D02*
X172650000Y-133250000D01*
%TO.N,GLED04*%
X175200000Y-132500000D02*
X175250000Y-132450000D01*
X167250000Y-132500000D02*
X175200000Y-132500000D01*
%TO.N,GLED05*%
X166500000Y-131550000D02*
X173850000Y-131550000D01*
%TO.N,GLED06*%
X159950000Y-142050000D02*
X164050000Y-146150000D01*
%TO.N,GLED07*%
X162600000Y-145950000D02*
X160050000Y-143400000D01*
X162650000Y-145950000D02*
X162600000Y-145950000D01*
%TD*%
%TA.AperFunction,Conductor*%
%TO.N,GND*%
G36*
X304136479Y-118864201D02*
G01*
X304538654Y-118882262D01*
X304549696Y-118883256D01*
X304945903Y-118936925D01*
X304956816Y-118938905D01*
X305346591Y-119027869D01*
X305357314Y-119030828D01*
X305737530Y-119154368D01*
X305747942Y-119158276D01*
X306115560Y-119315403D01*
X306125585Y-119320230D01*
X306477633Y-119509675D01*
X306487184Y-119515382D01*
X306820824Y-119735616D01*
X306829826Y-119742156D01*
X307142387Y-119991415D01*
X307150766Y-119998735D01*
X307439729Y-120275012D01*
X307447418Y-120283054D01*
X307710456Y-120584124D01*
X307717393Y-120592824D01*
X307952372Y-120916244D01*
X307958497Y-120925521D01*
X308163560Y-121268740D01*
X308168826Y-121278527D01*
X308342280Y-121638710D01*
X308346653Y-121648940D01*
X308487130Y-122023238D01*
X308490568Y-122033820D01*
X308596924Y-122419191D01*
X308599400Y-122430039D01*
X308670782Y-122823390D01*
X308672276Y-122834415D01*
X308708114Y-123232594D01*
X308708613Y-123243710D01*
X308708613Y-123643489D01*
X308708114Y-123654605D01*
X308672276Y-124052784D01*
X308670782Y-124063809D01*
X308599400Y-124457160D01*
X308596924Y-124468008D01*
X308490568Y-124853379D01*
X308487130Y-124863961D01*
X308346653Y-125238259D01*
X308342280Y-125248489D01*
X308168826Y-125608672D01*
X308163554Y-125618471D01*
X307958502Y-125961670D01*
X307952372Y-125970955D01*
X307717393Y-126294375D01*
X307710456Y-126303075D01*
X307447418Y-126604145D01*
X307439729Y-126612187D01*
X307150766Y-126888464D01*
X307142387Y-126895784D01*
X306829826Y-127145043D01*
X306820824Y-127151583D01*
X306487184Y-127371817D01*
X306477633Y-127377524D01*
X306125585Y-127566969D01*
X306115560Y-127571796D01*
X305747942Y-127728923D01*
X305737525Y-127732833D01*
X305357316Y-127856370D01*
X305346591Y-127859330D01*
X304956834Y-127948290D01*
X304945886Y-127950277D01*
X304549716Y-128003941D01*
X304538634Y-128004938D01*
X304137548Y-128022951D01*
X304131985Y-128023076D01*
X235646672Y-128023076D01*
X235320733Y-128022777D01*
X235320732Y-128022777D01*
X235320724Y-128022777D01*
X234554143Y-128058603D01*
X233790129Y-128130895D01*
X233790124Y-128130895D01*
X233790110Y-128130897D01*
X233790109Y-128130897D01*
X233030441Y-128239487D01*
X233030387Y-128239496D01*
X232276777Y-128384136D01*
X232276743Y-128384143D01*
X231530848Y-128564514D01*
X231530813Y-128564523D01*
X230794350Y-128780212D01*
X230794338Y-128780216D01*
X230418079Y-128910165D01*
X230068953Y-129030743D01*
X230068949Y-129030744D01*
X230068942Y-129030747D01*
X229356332Y-129315526D01*
X229356305Y-129315537D01*
X228658062Y-129633931D01*
X227975780Y-129985213D01*
X227975768Y-129985219D01*
X227975762Y-129985223D01*
X227838960Y-130064116D01*
X227310966Y-130368607D01*
X226665175Y-130783222D01*
X226039869Y-131228114D01*
X226039868Y-131228115D01*
X225436449Y-131702290D01*
X224856316Y-132204645D01*
X224300741Y-132734082D01*
X223771007Y-133289376D01*
X223268354Y-133869230D01*
X222793858Y-134472397D01*
X222348623Y-135097478D01*
X221933680Y-135743025D01*
X221549927Y-136407641D01*
X221549924Y-136407646D01*
X221198264Y-137089773D01*
X220879509Y-137787823D01*
X220879485Y-137787879D01*
X220594342Y-138500300D01*
X220594336Y-138500317D01*
X220492527Y-138794571D01*
X220492502Y-138794630D01*
X220468870Y-138862943D01*
X220468870Y-138862944D01*
X220444826Y-138932439D01*
X220444689Y-138932936D01*
X220359052Y-139180566D01*
X220359049Y-139180574D01*
X220175403Y-139827129D01*
X220028442Y-140483010D01*
X219918638Y-141146109D01*
X219918636Y-141146127D01*
X219846334Y-141814369D01*
X219846334Y-141814371D01*
X219811765Y-142485596D01*
X219811765Y-142485601D01*
X219811765Y-142485610D01*
X219811765Y-142485611D01*
X219812196Y-142574211D01*
X219815037Y-143157755D01*
X219856140Y-143828634D01*
X219934945Y-144496133D01*
X219934945Y-144496136D01*
X220051200Y-145158137D01*
X220204539Y-145812554D01*
X220204542Y-145812566D01*
X220394470Y-146457291D01*
X220394473Y-146457299D01*
X220620404Y-147090335D01*
X220620411Y-147090353D01*
X220881599Y-147709622D01*
X220881624Y-147709677D01*
X221177261Y-148313258D01*
X221177286Y-148313306D01*
X221506423Y-148899277D01*
X221506432Y-148899291D01*
X221823625Y-149396230D01*
X221868074Y-149465866D01*
X222261013Y-150011150D01*
X222261039Y-150011185D01*
X222684042Y-150533475D01*
X222684046Y-150533480D01*
X222684049Y-150533483D01*
X223135810Y-151031163D01*
X223614871Y-151502622D01*
X223751067Y-151622361D01*
X223811636Y-151675612D01*
X223811734Y-151675710D01*
X223865155Y-151722667D01*
X223869280Y-151726461D01*
X224019909Y-151871443D01*
X224140419Y-151987436D01*
X224156330Y-152002750D01*
X224164043Y-152010878D01*
X224345919Y-152220750D01*
X224423115Y-152309829D01*
X224430067Y-152318625D01*
X224661080Y-152639758D01*
X224667209Y-152649146D01*
X224868269Y-152989825D01*
X224873525Y-152999727D01*
X225043000Y-153357186D01*
X225047340Y-153367524D01*
X225183830Y-153738814D01*
X225187219Y-153749501D01*
X225289620Y-154131619D01*
X225292029Y-154142567D01*
X225359497Y-154532353D01*
X225360908Y-154543476D01*
X225392894Y-154937779D01*
X225393294Y-154948983D01*
X225389537Y-155344550D01*
X225388924Y-155355744D01*
X225349453Y-155749364D01*
X225347831Y-155760458D01*
X225272970Y-156148900D01*
X225270353Y-156159801D01*
X225160714Y-156539893D01*
X225157123Y-156550513D01*
X225013604Y-156919145D01*
X225009069Y-156929399D01*
X224832834Y-157283574D01*
X224827391Y-157293375D01*
X224619891Y-157630179D01*
X224613585Y-157639448D01*
X224376513Y-157956136D01*
X224369395Y-157964799D01*
X224104692Y-158258773D01*
X224096821Y-158266756D01*
X223806643Y-158535627D01*
X223798083Y-158542867D01*
X223484819Y-158784420D01*
X223475641Y-158790858D01*
X223141818Y-159003143D01*
X223132095Y-159008725D01*
X222780477Y-159189984D01*
X222770290Y-159194665D01*
X222403738Y-159343425D01*
X222393170Y-159347167D01*
X222014683Y-159462211D01*
X222003819Y-159464984D01*
X221616469Y-159545376D01*
X221605400Y-159547155D01*
X221212397Y-159592230D01*
X221201213Y-159593003D01*
X220805726Y-159602398D01*
X220794517Y-159602157D01*
X220396871Y-159575598D01*
X220391286Y-159575098D01*
X220325097Y-159567659D01*
X220317478Y-159567331D01*
X218371024Y-159362298D01*
X218356744Y-159359944D01*
X218356485Y-159359885D01*
X218295262Y-159354305D01*
X218293531Y-159354135D01*
X218232329Y-159347689D01*
X218232041Y-159347697D01*
X218217597Y-159347226D01*
X216255410Y-159168384D01*
X216241133Y-159166239D01*
X216240721Y-159166152D01*
X216179497Y-159161453D01*
X216177732Y-159161305D01*
X216116522Y-159155726D01*
X216116098Y-159155743D01*
X216101661Y-159155478D01*
X214125628Y-159003801D01*
X214111356Y-159001867D01*
X214110784Y-159001755D01*
X214049564Y-158997950D01*
X214047768Y-158997825D01*
X213986583Y-158993129D01*
X213986580Y-158993129D01*
X213986579Y-158993129D01*
X213986577Y-158993129D01*
X213985994Y-158993161D01*
X213971582Y-158993104D01*
X211983481Y-158869552D01*
X211969206Y-158867830D01*
X211968458Y-158867695D01*
X211907208Y-158864799D01*
X211905375Y-158864698D01*
X211844278Y-158860901D01*
X211843520Y-158860954D01*
X211829147Y-158861109D01*
X209830737Y-158766637D01*
X209816477Y-158765133D01*
X209815528Y-158764977D01*
X209754376Y-158763012D01*
X209752506Y-158762938D01*
X209691411Y-158760051D01*
X209690451Y-158760132D01*
X209676135Y-158760500D01*
X207669196Y-158696060D01*
X207654967Y-158694780D01*
X207653801Y-158694607D01*
X207592761Y-158693592D01*
X207590845Y-158693545D01*
X207529798Y-158691585D01*
X207528622Y-158691702D01*
X207514342Y-158692289D01*
X205500669Y-158658831D01*
X205486463Y-158657776D01*
X205485063Y-158657590D01*
X205424133Y-158657544D01*
X205422169Y-158657527D01*
X205361215Y-158656514D01*
X205359802Y-158656677D01*
X205345574Y-158657485D01*
X203326924Y-158655951D01*
X203312759Y-158655128D01*
X203311097Y-158654935D01*
X203250294Y-158655877D01*
X203248282Y-158655892D01*
X203187624Y-158655847D01*
X203187451Y-158655847D01*
X203187450Y-158655847D01*
X203185783Y-158656065D01*
X203171631Y-158657096D01*
X201149769Y-158688429D01*
X201135646Y-158687842D01*
X201133703Y-158687649D01*
X201073035Y-158689602D01*
X201070970Y-158689651D01*
X201010299Y-158690592D01*
X201008373Y-158690876D01*
X200994287Y-158692137D01*
X198970985Y-158757274D01*
X198956894Y-158756926D01*
X198954663Y-158756743D01*
X198894260Y-158759725D01*
X198892140Y-158759812D01*
X198831563Y-158761763D01*
X198829342Y-158762129D01*
X198815332Y-158763622D01*
X196792378Y-158863494D01*
X196778354Y-158863392D01*
X196775789Y-158863228D01*
X196715551Y-158867267D01*
X196713372Y-158867394D01*
X196653040Y-158870373D01*
X196650506Y-158870835D01*
X196636584Y-158872564D01*
X194615713Y-159008100D01*
X194601749Y-159008248D01*
X194598847Y-159008115D01*
X194538861Y-159013233D01*
X194536622Y-159013404D01*
X194476507Y-159017437D01*
X194473640Y-159018012D01*
X194459828Y-159019978D01*
X192442800Y-159192105D01*
X192428915Y-159192509D01*
X192425644Y-159192420D01*
X192365957Y-159198640D01*
X192363653Y-159198859D01*
X192303772Y-159203970D01*
X192300576Y-159204672D01*
X192286862Y-159206884D01*
X190275440Y-159416521D01*
X190261639Y-159417185D01*
X190257973Y-159417157D01*
X190198540Y-159424513D01*
X190196164Y-159424784D01*
X190136629Y-159430989D01*
X190133067Y-159431841D01*
X190119475Y-159434299D01*
X188115390Y-159682366D01*
X188101683Y-159683296D01*
X188097611Y-159683346D01*
X188038584Y-159691849D01*
X188036138Y-159692177D01*
X187976884Y-159699512D01*
X187972945Y-159700535D01*
X187959463Y-159703248D01*
X185964488Y-159990654D01*
X185950880Y-159991854D01*
X185946366Y-159992002D01*
X185887726Y-160001685D01*
X185885211Y-160002074D01*
X185826313Y-160010561D01*
X185821960Y-160011784D01*
X185808632Y-160014747D01*
X183824495Y-160342406D01*
X183810995Y-160343882D01*
X183806028Y-160344150D01*
X183747789Y-160355045D01*
X183745194Y-160355502D01*
X183686730Y-160365157D01*
X183681966Y-160366602D01*
X183668782Y-160369824D01*
X181697208Y-160738642D01*
X181683839Y-160740397D01*
X181678390Y-160740812D01*
X181620636Y-160752936D01*
X181617965Y-160753466D01*
X181559926Y-160764324D01*
X181554726Y-160766023D01*
X181541701Y-160769506D01*
X179584432Y-161180383D01*
X179571193Y-161182423D01*
X179565247Y-161183012D01*
X179507974Y-161196401D01*
X179505227Y-161197010D01*
X179447709Y-161209086D01*
X179442068Y-161211067D01*
X179429217Y-161214813D01*
X177487966Y-161668653D01*
X177474877Y-161670981D01*
X177468403Y-161671777D01*
X177411700Y-161686448D01*
X177408870Y-161687145D01*
X177351878Y-161700469D01*
X177345787Y-161702766D01*
X177333109Y-161706783D01*
X175409581Y-162204485D01*
X175396649Y-162207106D01*
X175389637Y-162208142D01*
X175333584Y-162224111D01*
X175330674Y-162224902D01*
X175274234Y-162239506D01*
X175267670Y-162242159D01*
X175255189Y-162246445D01*
X173351089Y-162788904D01*
X173338323Y-162791822D01*
X173330773Y-162793132D01*
X173275386Y-162810430D01*
X173272435Y-162811311D01*
X173236160Y-162821646D01*
X173216584Y-162827224D01*
X173209549Y-162830269D01*
X173197270Y-162834829D01*
X171314233Y-163422960D01*
X171301420Y-163425371D01*
X171301583Y-163426182D01*
X171293614Y-163427780D01*
X171238974Y-163446421D01*
X171235909Y-163447422D01*
X171180755Y-163464650D01*
X171173383Y-163468063D01*
X171173042Y-163467327D01*
X171161268Y-163472933D01*
X169300615Y-164107761D01*
X169287693Y-164110544D01*
X169287870Y-164111316D01*
X169279951Y-164113127D01*
X169226055Y-164133152D01*
X169222914Y-164134271D01*
X169168540Y-164152824D01*
X169161257Y-164156430D01*
X169160909Y-164155727D01*
X169149143Y-164161732D01*
X167312307Y-164844267D01*
X167299297Y-164847437D01*
X167299487Y-164848170D01*
X167291617Y-164850202D01*
X167238606Y-164871601D01*
X167235386Y-164872849D01*
X167193569Y-164888388D01*
X167181767Y-164892774D01*
X167181766Y-164892774D01*
X167181765Y-164892775D01*
X167174582Y-164896575D01*
X167174229Y-164895908D01*
X167162485Y-164902328D01*
X165351107Y-165633520D01*
X165338021Y-165637106D01*
X165338220Y-165637792D01*
X165330417Y-165640049D01*
X165278324Y-165662844D01*
X165275033Y-165664228D01*
X165222255Y-165685533D01*
X165215181Y-165689533D01*
X165214830Y-165688913D01*
X165203107Y-165695759D01*
X163418849Y-166476554D01*
X163405700Y-166480577D01*
X163405906Y-166481216D01*
X163398170Y-166483705D01*
X163347024Y-166507926D01*
X163343666Y-166509455D01*
X163291820Y-166532143D01*
X163284874Y-166536339D01*
X163284527Y-166535765D01*
X163272858Y-166543048D01*
X161517353Y-167374411D01*
X161504155Y-167378884D01*
X161504368Y-167379481D01*
X161496711Y-167382207D01*
X161446620Y-167407843D01*
X161443203Y-167409526D01*
X161392310Y-167433628D01*
X161385487Y-167438033D01*
X161385144Y-167437503D01*
X161373549Y-167445239D01*
X159648438Y-168328129D01*
X159635218Y-168333076D01*
X159635434Y-168333625D01*
X159627871Y-168336592D01*
X159578858Y-168363670D01*
X159575389Y-168365515D01*
X159525553Y-168391020D01*
X159518867Y-168395634D01*
X159518532Y-168395149D01*
X159507037Y-168403349D01*
X158627502Y-168889275D01*
X157970719Y-169252135D01*
X157813953Y-169338745D01*
X157800724Y-169344187D01*
X157800941Y-169344691D01*
X157793480Y-169347902D01*
X157745652Y-169376403D01*
X157742145Y-169378416D01*
X157693389Y-169405354D01*
X157686849Y-169410180D01*
X157686523Y-169409739D01*
X157675151Y-169418416D01*
X156015737Y-170407291D01*
X156002533Y-170413244D01*
X156002749Y-170413703D01*
X155995399Y-170417164D01*
X155948775Y-170447115D01*
X155945234Y-170449307D01*
X155897671Y-170477650D01*
X155891294Y-170482686D01*
X155890978Y-170482286D01*
X155879760Y-170491452D01*
X154257603Y-171533545D01*
X154245336Y-171540475D01*
X154243327Y-171541463D01*
X154192951Y-171575056D01*
X154191180Y-171576216D01*
X154135748Y-171611827D01*
X154131931Y-171614658D01*
X153146576Y-172252756D01*
X153143749Y-172254532D01*
X152085514Y-172900073D01*
X152082641Y-172901773D01*
X151007390Y-173518607D01*
X151004473Y-173520229D01*
X149912995Y-174107905D01*
X149910035Y-174109448D01*
X148803135Y-174667529D01*
X148800134Y-174668992D01*
X147678598Y-175197083D01*
X147675559Y-175198464D01*
X146540241Y-175696162D01*
X146537166Y-175697461D01*
X145388857Y-176164421D01*
X145385748Y-176165637D01*
X144225260Y-176601528D01*
X144222120Y-176602659D01*
X143050363Y-177007139D01*
X143047193Y-177008186D01*
X141864940Y-177380987D01*
X141861743Y-177381948D01*
X140669879Y-177722794D01*
X140666658Y-177723668D01*
X139466095Y-178032296D01*
X139462851Y-178033084D01*
X138255207Y-178309103D01*
X138249563Y-178310255D01*
X137711939Y-178407110D01*
X137703842Y-178408295D01*
X137161824Y-178469387D01*
X137153667Y-178470034D01*
X136608841Y-178495243D01*
X136600659Y-178495352D01*
X136055319Y-178484572D01*
X136047148Y-178484140D01*
X135503738Y-178437420D01*
X135495613Y-178436451D01*
X134956434Y-178353987D01*
X134948391Y-178352483D01*
X134415862Y-178234646D01*
X134407935Y-178232616D01*
X133884311Y-178079906D01*
X133876535Y-178077357D01*
X133364131Y-177890447D01*
X133356541Y-177887391D01*
X132857585Y-177667095D01*
X132850212Y-177663545D01*
X132366856Y-177410813D01*
X132359734Y-177406784D01*
X131894110Y-177122731D01*
X131887269Y-177118241D01*
X131441396Y-176804098D01*
X131434866Y-176799167D01*
X131010682Y-176456301D01*
X131004491Y-176450950D01*
X130603842Y-176080852D01*
X130598018Y-176075105D01*
X130222638Y-175679375D01*
X130217206Y-175673255D01*
X129868763Y-175253654D01*
X129863746Y-175247190D01*
X129543728Y-174805510D01*
X129539148Y-174798729D01*
X129512922Y-174756992D01*
X129248960Y-174336908D01*
X129244837Y-174329840D01*
X129113103Y-174085815D01*
X128985726Y-173849862D01*
X128982083Y-173842544D01*
X128930665Y-173730136D01*
X128755201Y-173346540D01*
X128752047Y-173338995D01*
X128748119Y-173328653D01*
X128558367Y-172829094D01*
X128555729Y-172821394D01*
X128412801Y-172354394D01*
X128396097Y-172299815D01*
X128393962Y-172291916D01*
X128385169Y-172254532D01*
X128372342Y-172199997D01*
X132145080Y-172199997D01*
X132145080Y-172200002D01*
X132164746Y-172562728D01*
X132223517Y-172921214D01*
X132223519Y-172921222D01*
X132320695Y-173271220D01*
X132320697Y-173271227D01*
X132455152Y-173608684D01*
X132455161Y-173608702D01*
X132625316Y-173929647D01*
X132625318Y-173929651D01*
X132829170Y-174230309D01*
X132829177Y-174230319D01*
X132960969Y-174385475D01*
X132960970Y-174385475D01*
X134205748Y-173140698D01*
X134279588Y-173242330D01*
X134457670Y-173420412D01*
X134559300Y-173494251D01*
X133311888Y-174741662D01*
X133311888Y-174741664D01*
X133328070Y-174756992D01*
X133328071Y-174756993D01*
X133617266Y-174976832D01*
X133617282Y-174976843D01*
X133928522Y-175164109D01*
X133928535Y-175164116D01*
X134258205Y-175316639D01*
X134258210Y-175316640D01*
X134602461Y-175432632D01*
X134957235Y-175510724D01*
X135318366Y-175549999D01*
X135318374Y-175550000D01*
X135681626Y-175550000D01*
X135681633Y-175549999D01*
X136042764Y-175510724D01*
X136397538Y-175432632D01*
X136741789Y-175316640D01*
X136741794Y-175316639D01*
X137071464Y-175164116D01*
X137071477Y-175164109D01*
X137382717Y-174976843D01*
X137382733Y-174976832D01*
X137671929Y-174756992D01*
X137688110Y-174741664D01*
X137688110Y-174741663D01*
X136440698Y-173494251D01*
X136542330Y-173420412D01*
X136720412Y-173242330D01*
X136794251Y-173140698D01*
X138039028Y-174385475D01*
X138039029Y-174385475D01*
X138170827Y-174230311D01*
X138170838Y-174230297D01*
X138374681Y-173929651D01*
X138374683Y-173929647D01*
X138544838Y-173608702D01*
X138544847Y-173608684D01*
X138679302Y-173271227D01*
X138679304Y-173271220D01*
X138776480Y-172921222D01*
X138776482Y-172921214D01*
X138829143Y-172599997D01*
X142545034Y-172599997D01*
X142545034Y-172600002D01*
X142564858Y-172826599D01*
X142564860Y-172826610D01*
X142623730Y-173046317D01*
X142623735Y-173046331D01*
X142719863Y-173252478D01*
X142770974Y-173325472D01*
X143450000Y-172646446D01*
X143450000Y-172652661D01*
X143477259Y-172754394D01*
X143529920Y-172845606D01*
X143604394Y-172920080D01*
X143695606Y-172972741D01*
X143797339Y-173000000D01*
X143803553Y-173000000D01*
X143124526Y-173679025D01*
X143197513Y-173730132D01*
X143197521Y-173730136D01*
X143403668Y-173826264D01*
X143403682Y-173826269D01*
X143623389Y-173885139D01*
X143623400Y-173885141D01*
X143849998Y-173904966D01*
X143850002Y-173904966D01*
X144076599Y-173885141D01*
X144076610Y-173885139D01*
X144296317Y-173826269D01*
X144296331Y-173826264D01*
X144502478Y-173730136D01*
X144575471Y-173679024D01*
X143896447Y-173000000D01*
X143902661Y-173000000D01*
X144004394Y-172972741D01*
X144095606Y-172920080D01*
X144170080Y-172845606D01*
X144222741Y-172754394D01*
X144250000Y-172652661D01*
X144250000Y-172646447D01*
X144929024Y-173325471D01*
X144980136Y-173252478D01*
X145076264Y-173046331D01*
X145076269Y-173046317D01*
X145135139Y-172826610D01*
X145135141Y-172826599D01*
X145154966Y-172600002D01*
X145154966Y-172599997D01*
X145135141Y-172373400D01*
X145135139Y-172373389D01*
X145076269Y-172153682D01*
X145076264Y-172153668D01*
X144980136Y-171947521D01*
X144980132Y-171947513D01*
X144929025Y-171874526D01*
X144250000Y-172553551D01*
X144250000Y-172547339D01*
X144222741Y-172445606D01*
X144170080Y-172354394D01*
X144095606Y-172279920D01*
X144004394Y-172227259D01*
X143902661Y-172200000D01*
X143896448Y-172200000D01*
X144580645Y-171515801D01*
X144590492Y-171466807D01*
X144639107Y-171416624D01*
X144694633Y-171401981D01*
X144694576Y-171400900D01*
X144694571Y-171400854D01*
X144694573Y-171400853D01*
X144694564Y-171400676D01*
X144697857Y-171400499D01*
X144697872Y-171400499D01*
X144757483Y-171394091D01*
X144892331Y-171343796D01*
X145007546Y-171257546D01*
X145093796Y-171142331D01*
X145144091Y-171007483D01*
X145150500Y-170947873D01*
X145150499Y-169252128D01*
X145144091Y-169192517D01*
X145093796Y-169057669D01*
X145093795Y-169057668D01*
X145093793Y-169057664D01*
X145007547Y-168942455D01*
X145007544Y-168942452D01*
X144892335Y-168856206D01*
X144892328Y-168856202D01*
X144757482Y-168805908D01*
X144757483Y-168805908D01*
X144697883Y-168799501D01*
X144697881Y-168799500D01*
X144697873Y-168799500D01*
X144697864Y-168799500D01*
X143002129Y-168799500D01*
X143002123Y-168799501D01*
X142942516Y-168805908D01*
X142807671Y-168856202D01*
X142807664Y-168856206D01*
X142692455Y-168942452D01*
X142692452Y-168942455D01*
X142606206Y-169057664D01*
X142606202Y-169057671D01*
X142555908Y-169192517D01*
X142549893Y-169248474D01*
X142549501Y-169252123D01*
X142549500Y-169252135D01*
X142549500Y-170947870D01*
X142549501Y-170947876D01*
X142555908Y-171007483D01*
X142606202Y-171142328D01*
X142606206Y-171142335D01*
X142692452Y-171257544D01*
X142692455Y-171257547D01*
X142807664Y-171343793D01*
X142807671Y-171343797D01*
X142852618Y-171360561D01*
X142942517Y-171394091D01*
X143002127Y-171400500D01*
X143002153Y-171400499D01*
X143005453Y-171400678D01*
X143005372Y-171402183D01*
X143066672Y-171420112D01*
X143112483Y-171472867D01*
X143120016Y-171516464D01*
X143803553Y-172200000D01*
X143797339Y-172200000D01*
X143695606Y-172227259D01*
X143604394Y-172279920D01*
X143529920Y-172354394D01*
X143477259Y-172445606D01*
X143450000Y-172547339D01*
X143450000Y-172553552D01*
X142770974Y-171874526D01*
X142770973Y-171874526D01*
X142719868Y-171947512D01*
X142719866Y-171947516D01*
X142623734Y-172153673D01*
X142623730Y-172153682D01*
X142564860Y-172373389D01*
X142564858Y-172373400D01*
X142545034Y-172599997D01*
X138829143Y-172599997D01*
X138835253Y-172562728D01*
X138854920Y-172200002D01*
X138854920Y-172199997D01*
X138835253Y-171837271D01*
X138776482Y-171478785D01*
X138776480Y-171478777D01*
X138679304Y-171128779D01*
X138679302Y-171128772D01*
X138544847Y-170791315D01*
X138544838Y-170791297D01*
X138374683Y-170470352D01*
X138374681Y-170470348D01*
X138170829Y-170169690D01*
X138170822Y-170169680D01*
X138039029Y-170014523D01*
X138039028Y-170014523D01*
X136794251Y-171259300D01*
X136720412Y-171157670D01*
X136542330Y-170979588D01*
X136440698Y-170905748D01*
X137688110Y-169658336D01*
X137688110Y-169658334D01*
X137671929Y-169643007D01*
X137671928Y-169643006D01*
X137382733Y-169423167D01*
X137382717Y-169423156D01*
X137071477Y-169235890D01*
X137071464Y-169235883D01*
X136741794Y-169083360D01*
X136741789Y-169083359D01*
X136397538Y-168967367D01*
X136042764Y-168889275D01*
X135681633Y-168850000D01*
X135318366Y-168850000D01*
X134957235Y-168889275D01*
X134602461Y-168967367D01*
X134258210Y-169083359D01*
X134258205Y-169083360D01*
X133928535Y-169235883D01*
X133928522Y-169235890D01*
X133617282Y-169423156D01*
X133617266Y-169423167D01*
X133328075Y-169643002D01*
X133311888Y-169658335D01*
X133311887Y-169658335D01*
X134559301Y-170905748D01*
X134457670Y-170979588D01*
X134279588Y-171157670D01*
X134205748Y-171259300D01*
X132960970Y-170014522D01*
X132960969Y-170014523D01*
X132829177Y-170169680D01*
X132829170Y-170169690D01*
X132625318Y-170470348D01*
X132625316Y-170470352D01*
X132455161Y-170791297D01*
X132455152Y-170791315D01*
X132320697Y-171128772D01*
X132320695Y-171128779D01*
X132223519Y-171478777D01*
X132223517Y-171478785D01*
X132164746Y-171837271D01*
X132145080Y-172199997D01*
X128372342Y-172199997D01*
X128269081Y-171760961D01*
X128267481Y-171752987D01*
X128177886Y-171214933D01*
X128176810Y-171206824D01*
X128170405Y-171142335D01*
X128122898Y-170664039D01*
X128122363Y-170655939D01*
X128104272Y-170107894D01*
X128104206Y-170103853D01*
X128104206Y-165291902D01*
X134012000Y-165291902D01*
X134012000Y-165528097D01*
X134048946Y-165761368D01*
X134121933Y-165985996D01*
X134229157Y-166196433D01*
X134367983Y-166387510D01*
X134534990Y-166554517D01*
X134726067Y-166693343D01*
X134825491Y-166744002D01*
X134936503Y-166800566D01*
X134936505Y-166800566D01*
X134936508Y-166800568D01*
X135056912Y-166839689D01*
X135161131Y-166873553D01*
X135394403Y-166910500D01*
X135394408Y-166910500D01*
X135630597Y-166910500D01*
X135863868Y-166873553D01*
X136088492Y-166800568D01*
X136298933Y-166693343D01*
X136490010Y-166554517D01*
X136657017Y-166387510D01*
X136795843Y-166196433D01*
X136903068Y-165985992D01*
X136976053Y-165761368D01*
X137013000Y-165528097D01*
X137013000Y-165291902D01*
X136976053Y-165058631D01*
X136942189Y-164954412D01*
X136903068Y-164834008D01*
X136903066Y-164834005D01*
X136903066Y-164834003D01*
X136795842Y-164623566D01*
X136657017Y-164432490D01*
X136490010Y-164265483D01*
X136298933Y-164126657D01*
X136268825Y-164111316D01*
X136088496Y-164019433D01*
X135863868Y-163946446D01*
X135630597Y-163909500D01*
X135630592Y-163909500D01*
X135394408Y-163909500D01*
X135394403Y-163909500D01*
X135161131Y-163946446D01*
X134936503Y-164019433D01*
X134726066Y-164126657D01*
X134617050Y-164205862D01*
X134534990Y-164265483D01*
X134534988Y-164265485D01*
X134534987Y-164265485D01*
X134367985Y-164432487D01*
X134367985Y-164432488D01*
X134367983Y-164432490D01*
X134308362Y-164514550D01*
X134229157Y-164623566D01*
X134121933Y-164834003D01*
X134048946Y-165058631D01*
X134012000Y-165291902D01*
X128104206Y-165291902D01*
X128104206Y-162215350D01*
X138037000Y-162215350D01*
X138037000Y-162384649D01*
X138063481Y-162551847D01*
X138115796Y-162712853D01*
X138165970Y-162811323D01*
X138175747Y-162830512D01*
X138192652Y-162863688D01*
X138292148Y-163000634D01*
X138292152Y-163000639D01*
X138411860Y-163120347D01*
X138411865Y-163120351D01*
X138508498Y-163190558D01*
X138548815Y-163219850D01*
X138644925Y-163268820D01*
X138699646Y-163296703D01*
X138699648Y-163296703D01*
X138699651Y-163296705D01*
X138785950Y-163324745D01*
X138860652Y-163349018D01*
X139027851Y-163375500D01*
X139027856Y-163375500D01*
X139197149Y-163375500D01*
X139364347Y-163349018D01*
X139525349Y-163296705D01*
X139676185Y-163219850D01*
X139813141Y-163120346D01*
X139932846Y-163000641D01*
X140032350Y-162863685D01*
X140109205Y-162712849D01*
X140161518Y-162551847D01*
X140188000Y-162384649D01*
X140188000Y-162215350D01*
X140161518Y-162048152D01*
X140137245Y-161973450D01*
X140109205Y-161887151D01*
X140109203Y-161887148D01*
X140109203Y-161887146D01*
X140081320Y-161832425D01*
X140032350Y-161736315D01*
X140006307Y-161700470D01*
X139932851Y-161599365D01*
X139932847Y-161599360D01*
X139813139Y-161479652D01*
X139813134Y-161479648D01*
X139676188Y-161380152D01*
X139676187Y-161380151D01*
X139676185Y-161380150D01*
X139622174Y-161352630D01*
X139525353Y-161303296D01*
X139364347Y-161250981D01*
X139197149Y-161224500D01*
X139197144Y-161224500D01*
X139027856Y-161224500D01*
X139027851Y-161224500D01*
X138860652Y-161250981D01*
X138699646Y-161303296D01*
X138548811Y-161380152D01*
X138411865Y-161479648D01*
X138411860Y-161479652D01*
X138292152Y-161599360D01*
X138292148Y-161599365D01*
X138192652Y-161736311D01*
X138115796Y-161887146D01*
X138063481Y-162048152D01*
X138037000Y-162215350D01*
X128104206Y-162215350D01*
X128104206Y-153289999D01*
X134268265Y-153289999D01*
X134268265Y-153290000D01*
X134287167Y-153506054D01*
X134287169Y-153506064D01*
X134343299Y-153715545D01*
X134343304Y-153715559D01*
X134421693Y-153883664D01*
X134434961Y-153912118D01*
X134559361Y-154089779D01*
X134712721Y-154243139D01*
X134890382Y-154367539D01*
X135062113Y-154447618D01*
X135114552Y-154493790D01*
X135133704Y-154560984D01*
X135113488Y-154627865D01*
X135062113Y-154672382D01*
X134890382Y-154752461D01*
X134890378Y-154752463D01*
X134712719Y-154876861D01*
X134559361Y-155030219D01*
X134434963Y-155207878D01*
X134434961Y-155207882D01*
X134343303Y-155404445D01*
X134343299Y-155404454D01*
X134287169Y-155613935D01*
X134287167Y-155613945D01*
X134268265Y-155829999D01*
X134268265Y-155830000D01*
X134287167Y-156046054D01*
X134287169Y-156046064D01*
X134343299Y-156255545D01*
X134343304Y-156255559D01*
X134434959Y-156452114D01*
X134434961Y-156452118D01*
X134559361Y-156629779D01*
X134712721Y-156783139D01*
X134890382Y-156907539D01*
X135062113Y-156987618D01*
X135114552Y-157033790D01*
X135133704Y-157100984D01*
X135113488Y-157167865D01*
X135062113Y-157212382D01*
X134890382Y-157292461D01*
X134890378Y-157292463D01*
X134712719Y-157416861D01*
X134559361Y-157570219D01*
X134434963Y-157747878D01*
X134434961Y-157747882D01*
X134343303Y-157944445D01*
X134343299Y-157944454D01*
X134287169Y-158153935D01*
X134287167Y-158153945D01*
X134268265Y-158369999D01*
X134268265Y-158370000D01*
X134287167Y-158586054D01*
X134287169Y-158586064D01*
X134343299Y-158795545D01*
X134343304Y-158795559D01*
X134434959Y-158992114D01*
X134434961Y-158992118D01*
X134559361Y-159169779D01*
X134712721Y-159323139D01*
X134887365Y-159445426D01*
X134930989Y-159500002D01*
X134938181Y-159569501D01*
X134906659Y-159631855D01*
X134846429Y-159667269D01*
X134816240Y-159671000D01*
X134725655Y-159671000D01*
X134666127Y-159677401D01*
X134666120Y-159677403D01*
X134531413Y-159727645D01*
X134531406Y-159727649D01*
X134416312Y-159813809D01*
X134416309Y-159813812D01*
X134330149Y-159928906D01*
X134330145Y-159928913D01*
X134279903Y-160063620D01*
X134279901Y-160063627D01*
X134273500Y-160123155D01*
X134273500Y-160660000D01*
X135108354Y-160660000D01*
X135069870Y-160726657D01*
X135037500Y-160847465D01*
X135037500Y-160972535D01*
X135069870Y-161093343D01*
X135108354Y-161160000D01*
X134273500Y-161160000D01*
X134273500Y-161696844D01*
X134279901Y-161756372D01*
X134279903Y-161756379D01*
X134330145Y-161891086D01*
X134330149Y-161891093D01*
X134416309Y-162006187D01*
X134416312Y-162006190D01*
X134531406Y-162092350D01*
X134531413Y-162092354D01*
X134666120Y-162142596D01*
X134666127Y-162142598D01*
X134725655Y-162148999D01*
X134725672Y-162149000D01*
X135262500Y-162149000D01*
X135262500Y-161314145D01*
X135329157Y-161352630D01*
X135449965Y-161385000D01*
X135575035Y-161385000D01*
X135695843Y-161352630D01*
X135762500Y-161314145D01*
X135762500Y-162149000D01*
X136299328Y-162149000D01*
X136299344Y-162148999D01*
X136358872Y-162142598D01*
X136358879Y-162142596D01*
X136493586Y-162092354D01*
X136493593Y-162092350D01*
X136608687Y-162006190D01*
X136608690Y-162006187D01*
X136694850Y-161891093D01*
X136694854Y-161891086D01*
X136745096Y-161756379D01*
X136745098Y-161756372D01*
X136751499Y-161696844D01*
X136751500Y-161696827D01*
X136751500Y-161160000D01*
X135916646Y-161160000D01*
X135955130Y-161093343D01*
X135987500Y-160972535D01*
X135987500Y-160847465D01*
X135955130Y-160726657D01*
X135916646Y-160660000D01*
X136751500Y-160660000D01*
X136751500Y-160123172D01*
X136751499Y-160123155D01*
X136745098Y-160063627D01*
X136745096Y-160063620D01*
X136694854Y-159928913D01*
X136694850Y-159928906D01*
X136608690Y-159813812D01*
X136608687Y-159813809D01*
X136493593Y-159727649D01*
X136493586Y-159727645D01*
X136358879Y-159677403D01*
X136358872Y-159677401D01*
X136299344Y-159671000D01*
X136208760Y-159671000D01*
X136141721Y-159651315D01*
X136095966Y-159598511D01*
X136086022Y-159529353D01*
X136115047Y-159465797D01*
X136137632Y-159445428D01*
X136312279Y-159323139D01*
X136465639Y-159169779D01*
X136590039Y-158992118D01*
X136681698Y-158795553D01*
X136737832Y-158586059D01*
X136756735Y-158370000D01*
X136737832Y-158153941D01*
X136681698Y-157944447D01*
X136590039Y-157747883D01*
X136590037Y-157747880D01*
X136590036Y-157747878D01*
X136465640Y-157570222D01*
X136465637Y-157570219D01*
X136312279Y-157416861D01*
X136134618Y-157292461D01*
X136134614Y-157292459D01*
X135962887Y-157212382D01*
X135910447Y-157166210D01*
X135891295Y-157099017D01*
X135911510Y-157032135D01*
X135962887Y-156987618D01*
X135993507Y-156973339D01*
X136134618Y-156907539D01*
X136312279Y-156783139D01*
X136465639Y-156629779D01*
X136590039Y-156452118D01*
X136681698Y-156255553D01*
X136737832Y-156046059D01*
X136756735Y-155830000D01*
X136737832Y-155613941D01*
X136681698Y-155404447D01*
X136590039Y-155207883D01*
X136590037Y-155207880D01*
X136590036Y-155207878D01*
X136517351Y-155104073D01*
X217541776Y-155104073D01*
X217541776Y-155104078D01*
X217561442Y-155466804D01*
X217620213Y-155825290D01*
X217620215Y-155825298D01*
X217717391Y-156175296D01*
X217717393Y-156175303D01*
X217851848Y-156512760D01*
X217851857Y-156512778D01*
X218022012Y-156833723D01*
X218022014Y-156833727D01*
X218225866Y-157134385D01*
X218225873Y-157134395D01*
X218357665Y-157289551D01*
X218357666Y-157289551D01*
X219602444Y-156044774D01*
X219676284Y-156146406D01*
X219854366Y-156324488D01*
X219955996Y-156398327D01*
X218708584Y-157645738D01*
X218708584Y-157645740D01*
X218724766Y-157661068D01*
X218724767Y-157661069D01*
X219013962Y-157880908D01*
X219013978Y-157880919D01*
X219325218Y-158068185D01*
X219325231Y-158068192D01*
X219654901Y-158220715D01*
X219654906Y-158220716D01*
X219999157Y-158336708D01*
X220353931Y-158414800D01*
X220715062Y-158454075D01*
X220715070Y-158454076D01*
X221078322Y-158454076D01*
X221078329Y-158454075D01*
X221439460Y-158414800D01*
X221794234Y-158336708D01*
X222138485Y-158220716D01*
X222138490Y-158220715D01*
X222468160Y-158068192D01*
X222468173Y-158068185D01*
X222779413Y-157880919D01*
X222779429Y-157880908D01*
X223068625Y-157661068D01*
X223084806Y-157645740D01*
X223084806Y-157645739D01*
X221837394Y-156398327D01*
X221939026Y-156324488D01*
X222117108Y-156146406D01*
X222190947Y-156044774D01*
X223435724Y-157289551D01*
X223435725Y-157289551D01*
X223567523Y-157134387D01*
X223567534Y-157134373D01*
X223771377Y-156833727D01*
X223771379Y-156833723D01*
X223941534Y-156512778D01*
X223941543Y-156512760D01*
X224075998Y-156175303D01*
X224076000Y-156175296D01*
X224173176Y-155825298D01*
X224173178Y-155825290D01*
X224231949Y-155466804D01*
X224251616Y-155104078D01*
X224251616Y-155104073D01*
X224231949Y-154741347D01*
X224173178Y-154382861D01*
X224173176Y-154382853D01*
X224076000Y-154032855D01*
X224075998Y-154032848D01*
X223941543Y-153695391D01*
X223941534Y-153695373D01*
X223771379Y-153374428D01*
X223771377Y-153374424D01*
X223567525Y-153073766D01*
X223567518Y-153073756D01*
X223435725Y-152918599D01*
X223435724Y-152918599D01*
X222190947Y-154163376D01*
X222117108Y-154061746D01*
X221939026Y-153883664D01*
X221837394Y-153809824D01*
X223084806Y-152562412D01*
X223084806Y-152562410D01*
X223068625Y-152547083D01*
X223068624Y-152547082D01*
X222779429Y-152327243D01*
X222779413Y-152327232D01*
X222468173Y-152139966D01*
X222468160Y-152139959D01*
X222138490Y-151987436D01*
X222138485Y-151987435D01*
X221794234Y-151871443D01*
X221439460Y-151793351D01*
X221078329Y-151754076D01*
X220715062Y-151754076D01*
X220353931Y-151793351D01*
X219999157Y-151871443D01*
X219654906Y-151987435D01*
X219654901Y-151987436D01*
X219325231Y-152139959D01*
X219325218Y-152139966D01*
X219013978Y-152327232D01*
X219013962Y-152327243D01*
X218724771Y-152547078D01*
X218708584Y-152562411D01*
X218708583Y-152562411D01*
X219955997Y-153809824D01*
X219854366Y-153883664D01*
X219676284Y-154061746D01*
X219602444Y-154163376D01*
X218357666Y-152918598D01*
X218357665Y-152918599D01*
X218225873Y-153073756D01*
X218225866Y-153073766D01*
X218022014Y-153374424D01*
X218022012Y-153374428D01*
X217851857Y-153695373D01*
X217851848Y-153695391D01*
X217717393Y-154032848D01*
X217717391Y-154032855D01*
X217620215Y-154382853D01*
X217620213Y-154382861D01*
X217561442Y-154741347D01*
X217541776Y-155104073D01*
X136517351Y-155104073D01*
X136465640Y-155030222D01*
X136413571Y-154978153D01*
X136312279Y-154876861D01*
X136134618Y-154752461D01*
X136110784Y-154741347D01*
X135962887Y-154672382D01*
X135910447Y-154626210D01*
X135891295Y-154559017D01*
X135911510Y-154492135D01*
X135962887Y-154447618D01*
X135993507Y-154433339D01*
X136134618Y-154367539D01*
X136312279Y-154243139D01*
X136465639Y-154089779D01*
X136590039Y-153912118D01*
X136681698Y-153715553D01*
X136737832Y-153506059D01*
X136756735Y-153290000D01*
X136737832Y-153073941D01*
X136681698Y-152864447D01*
X136590039Y-152667883D01*
X136590037Y-152667880D01*
X136590036Y-152667878D01*
X136465640Y-152490222D01*
X136406022Y-152430604D01*
X136312279Y-152336861D01*
X136134618Y-152212461D01*
X136101522Y-152197028D01*
X135938059Y-152120804D01*
X135938045Y-152120799D01*
X135728564Y-152064669D01*
X135728554Y-152064667D01*
X135512501Y-152045765D01*
X135512499Y-152045765D01*
X135296445Y-152064667D01*
X135296435Y-152064669D01*
X135086954Y-152120799D01*
X135086945Y-152120803D01*
X134890382Y-152212461D01*
X134890378Y-152212463D01*
X134712719Y-152336861D01*
X134559361Y-152490219D01*
X134434963Y-152667878D01*
X134434961Y-152667882D01*
X134343303Y-152864445D01*
X134343299Y-152864454D01*
X134287169Y-153073935D01*
X134287167Y-153073945D01*
X134268265Y-153289999D01*
X128104206Y-153289999D01*
X128104206Y-147291902D01*
X134012000Y-147291902D01*
X134012000Y-147528097D01*
X134048946Y-147761368D01*
X134121933Y-147985996D01*
X134204413Y-148147870D01*
X134229157Y-148196433D01*
X134367983Y-148387510D01*
X134534990Y-148554517D01*
X134726067Y-148693343D01*
X134825491Y-148744002D01*
X134936503Y-148800566D01*
X134936505Y-148800566D01*
X134936508Y-148800568D01*
X135056912Y-148839689D01*
X135161131Y-148873553D01*
X135394403Y-148910500D01*
X135394408Y-148910500D01*
X135630597Y-148910500D01*
X135863868Y-148873553D01*
X136088492Y-148800568D01*
X136298933Y-148693343D01*
X136490010Y-148554517D01*
X136657017Y-148387510D01*
X136795843Y-148196433D01*
X136903068Y-147985992D01*
X136976053Y-147761368D01*
X136995133Y-147640901D01*
X137013000Y-147528097D01*
X137013000Y-147291902D01*
X136976053Y-147058631D01*
X136973942Y-147052135D01*
X156829500Y-147052135D01*
X156829500Y-148147870D01*
X156829501Y-148147876D01*
X156835908Y-148207483D01*
X156886202Y-148342328D01*
X156886206Y-148342335D01*
X156972452Y-148457544D01*
X156972455Y-148457547D01*
X157087664Y-148543793D01*
X157087671Y-148543797D01*
X157222517Y-148594091D01*
X157222516Y-148594091D01*
X157229444Y-148594835D01*
X157282127Y-148600500D01*
X158377872Y-148600499D01*
X158437483Y-148594091D01*
X158572329Y-148543797D01*
X158572329Y-148543796D01*
X158572331Y-148543796D01*
X158580822Y-148537439D01*
X158646284Y-148513021D01*
X158709628Y-148526502D01*
X158709830Y-148526016D01*
X158712461Y-148527105D01*
X158713585Y-148527345D01*
X158715462Y-148528348D01*
X158850000Y-148569159D01*
X159350000Y-148569159D01*
X159484534Y-148528349D01*
X159658260Y-148435491D01*
X159810528Y-148310528D01*
X159935492Y-148158260D01*
X159935496Y-148158253D01*
X160028347Y-147984541D01*
X160069160Y-147850000D01*
X159350000Y-147850000D01*
X159350000Y-148569159D01*
X158850000Y-148569159D01*
X158850000Y-147844975D01*
X158885095Y-147880070D01*
X158964905Y-147926148D01*
X159053922Y-147950000D01*
X159146078Y-147950000D01*
X159235095Y-147926148D01*
X159314905Y-147880070D01*
X159380070Y-147814905D01*
X159426148Y-147735095D01*
X159450000Y-147646078D01*
X159450000Y-147553922D01*
X159426148Y-147464905D01*
X159380070Y-147385095D01*
X159344975Y-147350000D01*
X159350000Y-147350000D01*
X160069160Y-147350000D01*
X160069160Y-147349999D01*
X160028347Y-147215458D01*
X159935496Y-147041746D01*
X159935492Y-147041739D01*
X159810528Y-146889471D01*
X159658260Y-146764507D01*
X159658253Y-146764503D01*
X159484541Y-146671652D01*
X159350000Y-146630839D01*
X159350000Y-147350000D01*
X159344975Y-147350000D01*
X159314905Y-147319930D01*
X159235095Y-147273852D01*
X159146078Y-147250000D01*
X159053922Y-147250000D01*
X158964905Y-147273852D01*
X158885095Y-147319930D01*
X158850000Y-147355025D01*
X158850000Y-146630839D01*
X158849999Y-146630839D01*
X158715464Y-146671650D01*
X158713586Y-146672655D01*
X158712486Y-146672883D01*
X158709838Y-146673981D01*
X158709629Y-146673478D01*
X158645183Y-146686895D01*
X158580824Y-146662561D01*
X158572335Y-146656206D01*
X158572328Y-146656202D01*
X158437482Y-146605908D01*
X158437483Y-146605908D01*
X158377883Y-146599501D01*
X158377881Y-146599500D01*
X158377873Y-146599500D01*
X158377864Y-146599500D01*
X157282129Y-146599500D01*
X157282123Y-146599501D01*
X157222516Y-146605908D01*
X157087671Y-146656202D01*
X157087664Y-146656206D01*
X156972455Y-146742452D01*
X156972452Y-146742455D01*
X156886206Y-146857664D01*
X156886202Y-146857671D01*
X156835908Y-146992517D01*
X156829501Y-147052116D01*
X156829500Y-147052135D01*
X136973942Y-147052135D01*
X136923404Y-146896595D01*
X136903068Y-146834008D01*
X136903066Y-146834005D01*
X136903066Y-146834003D01*
X136821274Y-146673478D01*
X136795843Y-146623567D01*
X136657017Y-146432490D01*
X136490010Y-146265483D01*
X136298933Y-146126657D01*
X136088496Y-146019433D01*
X135863868Y-145946446D01*
X135630597Y-145909500D01*
X135630592Y-145909500D01*
X135394408Y-145909500D01*
X135394403Y-145909500D01*
X135161131Y-145946446D01*
X134936503Y-146019433D01*
X134726066Y-146126657D01*
X134636367Y-146191828D01*
X134534990Y-146265483D01*
X134534988Y-146265485D01*
X134534987Y-146265485D01*
X134367985Y-146432487D01*
X134367985Y-146432488D01*
X134367983Y-146432490D01*
X134349955Y-146457304D01*
X134229157Y-146623566D01*
X134121933Y-146834003D01*
X134048946Y-147058631D01*
X134012000Y-147291902D01*
X128104206Y-147291902D01*
X128104206Y-145061080D01*
X128123891Y-144994041D01*
X128176695Y-144948286D01*
X128245853Y-144938342D01*
X128309409Y-144967367D01*
X128328525Y-144988195D01*
X128372829Y-145049175D01*
X128500830Y-145177176D01*
X128647265Y-145283565D01*
X128808552Y-145365747D01*
X128808555Y-145365748D01*
X128980706Y-145421682D01*
X129159494Y-145450000D01*
X129450000Y-145450000D01*
X129450000Y-144650000D01*
X129950000Y-144650000D01*
X129950000Y-145450000D01*
X130240506Y-145450000D01*
X130419293Y-145421682D01*
X130591444Y-145365748D01*
X130591447Y-145365747D01*
X130752734Y-145283565D01*
X130899169Y-145177176D01*
X131027176Y-145049169D01*
X131133565Y-144902734D01*
X131215747Y-144741447D01*
X131215749Y-144741441D01*
X131271681Y-144569295D01*
X131271684Y-144569285D01*
X131274739Y-144550000D01*
X130344975Y-144550000D01*
X130380070Y-144514905D01*
X130426148Y-144435095D01*
X130450000Y-144346078D01*
X130450000Y-144253922D01*
X130426148Y-144164905D01*
X130380070Y-144085095D01*
X130344975Y-144050000D01*
X131274739Y-144050000D01*
X131271684Y-144030714D01*
X131271681Y-144030704D01*
X131215749Y-143858558D01*
X131215746Y-143858550D01*
X131212830Y-143852828D01*
X131199930Y-143784159D01*
X131220961Y-143732336D01*
X131194794Y-143733216D01*
X131134780Y-143697437D01*
X131125394Y-143686017D01*
X131027176Y-143550831D01*
X131027172Y-143550826D01*
X130899169Y-143422823D01*
X130833345Y-143375000D01*
X131277472Y-143375000D01*
X131319885Y-143524065D01*
X131319890Y-143524078D01*
X131336712Y-143557860D01*
X131348973Y-143626645D01*
X131327889Y-143677245D01*
X131353114Y-143676163D01*
X131413457Y-143711382D01*
X131422266Y-143721801D01*
X131533608Y-143869242D01*
X131684260Y-144006578D01*
X131857584Y-144113897D01*
X132047678Y-144187539D01*
X132100000Y-144197320D01*
X132600000Y-144197320D01*
X132652321Y-144187539D01*
X132842415Y-144113897D01*
X133015739Y-144006578D01*
X133166391Y-143869242D01*
X133289245Y-143706556D01*
X133380109Y-143524078D01*
X133380114Y-143524065D01*
X133422528Y-143375000D01*
X132600000Y-143375000D01*
X132600000Y-144197320D01*
X132100000Y-144197320D01*
X132100000Y-143375000D01*
X131277472Y-143375000D01*
X130833345Y-143375000D01*
X130752734Y-143316434D01*
X130591447Y-143234252D01*
X130591444Y-143234251D01*
X130419293Y-143178317D01*
X130240506Y-143150000D01*
X129950000Y-143150000D01*
X129950000Y-143950000D01*
X129450000Y-143950000D01*
X129450000Y-143150000D01*
X129159494Y-143150000D01*
X128980706Y-143178317D01*
X128808555Y-143234251D01*
X128808552Y-143234252D01*
X128647265Y-143316434D01*
X128500830Y-143422823D01*
X128372827Y-143550826D01*
X128328524Y-143611805D01*
X128273194Y-143654470D01*
X128203581Y-143660449D01*
X128141786Y-143627843D01*
X128107428Y-143567004D01*
X128104206Y-143538919D01*
X128104206Y-143078922D01*
X132000000Y-143078922D01*
X132000000Y-143171078D01*
X132023852Y-143260095D01*
X132069930Y-143339905D01*
X132135095Y-143405070D01*
X132214905Y-143451148D01*
X132303922Y-143475000D01*
X132396078Y-143475000D01*
X132485095Y-143451148D01*
X132564905Y-143405070D01*
X132630070Y-143339905D01*
X132676148Y-143260095D01*
X132700000Y-143171078D01*
X132700000Y-143078922D01*
X132676148Y-142989905D01*
X132630070Y-142910095D01*
X132564905Y-142844930D01*
X132485095Y-142798852D01*
X132396078Y-142775000D01*
X132303922Y-142775000D01*
X132214905Y-142798852D01*
X132135095Y-142844930D01*
X132069930Y-142910095D01*
X132023852Y-142989905D01*
X132000000Y-143078922D01*
X128104206Y-143078922D01*
X128104206Y-142874999D01*
X131277471Y-142874999D01*
X131277472Y-142875000D01*
X132100000Y-142875000D01*
X132100000Y-142052679D01*
X132600000Y-142052679D01*
X132600000Y-142875000D01*
X133422528Y-142875000D01*
X133422528Y-142874999D01*
X133380114Y-142725934D01*
X133380109Y-142725921D01*
X133289245Y-142543443D01*
X133166391Y-142380757D01*
X133015739Y-142243421D01*
X132842413Y-142136101D01*
X132652315Y-142062458D01*
X132652309Y-142062456D01*
X132600001Y-142052677D01*
X132600000Y-142052679D01*
X132100000Y-142052679D01*
X132099998Y-142052677D01*
X132047690Y-142062456D01*
X132047684Y-142062458D01*
X131857586Y-142136101D01*
X131684260Y-142243421D01*
X131533608Y-142380757D01*
X131410754Y-142543443D01*
X131319890Y-142725921D01*
X131319885Y-142725934D01*
X131277471Y-142874999D01*
X128104206Y-142874999D01*
X128104206Y-142049996D01*
X159144435Y-142049996D01*
X159144435Y-142050003D01*
X159164630Y-142229249D01*
X159164631Y-142229254D01*
X159224211Y-142399523D01*
X159320184Y-142552262D01*
X159452662Y-142684740D01*
X159451133Y-142686268D01*
X159485304Y-142734952D01*
X159488153Y-142804763D01*
X159455532Y-142862389D01*
X159420184Y-142897737D01*
X159324211Y-143050476D01*
X159264631Y-143220745D01*
X159264630Y-143220750D01*
X159244435Y-143399996D01*
X159244435Y-143400003D01*
X159264630Y-143579249D01*
X159264631Y-143579254D01*
X159324211Y-143749523D01*
X159389982Y-143854196D01*
X159420184Y-143902262D01*
X159547738Y-144029816D01*
X159700478Y-144125789D01*
X159858372Y-144181038D01*
X159905097Y-144210398D01*
X161866514Y-146171815D01*
X161895874Y-146218541D01*
X161924210Y-146299520D01*
X161924212Y-146299524D01*
X162007759Y-146432488D01*
X162020184Y-146452262D01*
X162147738Y-146579816D01*
X162189263Y-146605908D01*
X162297600Y-146673981D01*
X162300478Y-146675789D01*
X162470745Y-146735368D01*
X162470750Y-146735369D01*
X162649996Y-146755565D01*
X162650000Y-146755565D01*
X162650004Y-146755565D01*
X162829249Y-146735369D01*
X162829252Y-146735368D01*
X162829255Y-146735368D01*
X162999522Y-146675789D01*
X163152262Y-146579816D01*
X163178896Y-146553181D01*
X163240215Y-146519698D01*
X163309907Y-146524682D01*
X163365841Y-146566552D01*
X163371569Y-146574892D01*
X163420184Y-146652262D01*
X163547738Y-146779816D01*
X163700478Y-146875789D01*
X163828955Y-146920745D01*
X163870745Y-146935368D01*
X163870750Y-146935369D01*
X164049996Y-146955565D01*
X164050000Y-146955565D01*
X164050004Y-146955565D01*
X164229249Y-146935369D01*
X164229252Y-146935368D01*
X164229255Y-146935368D01*
X164399522Y-146875789D01*
X164552262Y-146779816D01*
X164679816Y-146652262D01*
X164775789Y-146499522D01*
X164835368Y-146329255D01*
X164838718Y-146299522D01*
X164855565Y-146150003D01*
X164855565Y-146149996D01*
X164835369Y-145970750D01*
X164835368Y-145970745D01*
X164793844Y-145852076D01*
X164775789Y-145800478D01*
X164679816Y-145647738D01*
X164552262Y-145520184D01*
X164440565Y-145450000D01*
X164399521Y-145424210D01*
X164241629Y-145368962D01*
X164194902Y-145339601D01*
X160760398Y-141905097D01*
X160731038Y-141858372D01*
X160710612Y-141799996D01*
X165644435Y-141799996D01*
X165644435Y-141800003D01*
X165664630Y-141979249D01*
X165664631Y-141979254D01*
X165724211Y-142149523D01*
X165820184Y-142302262D01*
X165947738Y-142429816D01*
X165979132Y-142449542D01*
X166082721Y-142514632D01*
X166100478Y-142525789D01*
X166238860Y-142574211D01*
X166270745Y-142585368D01*
X166270750Y-142585369D01*
X166449996Y-142605565D01*
X166450000Y-142605565D01*
X166450004Y-142605565D01*
X166629249Y-142585369D01*
X166629252Y-142585368D01*
X166629255Y-142585368D01*
X166799522Y-142525789D01*
X166817279Y-142514632D01*
X166849307Y-142494507D01*
X166915280Y-142475500D01*
X167743060Y-142475500D01*
X167810099Y-142495185D01*
X167855854Y-142547989D01*
X167865798Y-142617147D01*
X167836773Y-142680703D01*
X167830741Y-142687181D01*
X167720184Y-142797737D01*
X167624210Y-142950478D01*
X167564630Y-143120750D01*
X167552256Y-143230577D01*
X167543598Y-143264144D01*
X167524499Y-143310254D01*
X167524498Y-143310257D01*
X167499500Y-143435928D01*
X167499500Y-149329191D01*
X167479815Y-149396230D01*
X167463181Y-149416872D01*
X167201775Y-149678277D01*
X167140452Y-149711762D01*
X167127988Y-149713815D01*
X167120752Y-149714630D01*
X167120744Y-149714632D01*
X166950478Y-149774210D01*
X166797737Y-149870184D01*
X166670184Y-149997737D01*
X166574211Y-150150476D01*
X166514631Y-150320745D01*
X166514630Y-150320750D01*
X166494435Y-150499996D01*
X166494435Y-150500003D01*
X166514630Y-150679249D01*
X166514631Y-150679254D01*
X166574211Y-150849523D01*
X166651593Y-150972675D01*
X166670184Y-151002262D01*
X166797738Y-151129816D01*
X166950478Y-151225789D01*
X167120745Y-151285368D01*
X167120750Y-151285369D01*
X167299996Y-151305565D01*
X167300000Y-151305565D01*
X167300004Y-151305565D01*
X167479249Y-151285369D01*
X167479252Y-151285368D01*
X167479255Y-151285368D01*
X167649522Y-151225789D01*
X167802262Y-151129816D01*
X167929816Y-151002262D01*
X168025789Y-150849522D01*
X168085368Y-150679255D01*
X168086182Y-150672025D01*
X168113245Y-150607611D01*
X168121712Y-150598232D01*
X168655277Y-150064669D01*
X168726466Y-149958126D01*
X168775501Y-149839743D01*
X168788537Y-149774211D01*
X168800388Y-149714632D01*
X168800500Y-149714071D01*
X168800500Y-147099996D01*
X169494435Y-147099996D01*
X169494435Y-147100003D01*
X169514630Y-147279246D01*
X169514631Y-147279253D01*
X169517541Y-147287567D01*
X169524500Y-147328523D01*
X169524500Y-152066535D01*
X169550457Y-152197028D01*
X169550459Y-152197036D01*
X169601378Y-152319965D01*
X169601383Y-152319975D01*
X169675303Y-152430604D01*
X169675304Y-152430605D01*
X169675305Y-152430606D01*
X169789602Y-152544903D01*
X169818962Y-152591629D01*
X169874210Y-152749521D01*
X169946422Y-152864445D01*
X169970184Y-152902262D01*
X170097738Y-153029816D01*
X170250478Y-153125789D01*
X170420745Y-153185368D01*
X170420750Y-153185369D01*
X170599996Y-153205565D01*
X170600000Y-153205565D01*
X170600004Y-153205565D01*
X170779249Y-153185369D01*
X170779252Y-153185368D01*
X170779255Y-153185368D01*
X170949522Y-153125789D01*
X171102262Y-153029816D01*
X171229816Y-152902262D01*
X171325789Y-152749522D01*
X171385368Y-152579255D01*
X171388993Y-152547082D01*
X171405565Y-152400003D01*
X171405565Y-152399996D01*
X171385369Y-152220750D01*
X171385368Y-152220745D01*
X171350395Y-152120799D01*
X171325789Y-152050478D01*
X171295799Y-152002750D01*
X171229815Y-151897737D01*
X171102262Y-151770184D01*
X170960315Y-151680993D01*
X170949522Y-151674211D01*
X170949521Y-151674210D01*
X170949520Y-151674210D01*
X170945698Y-151672369D01*
X170943654Y-151670523D01*
X170943626Y-151670506D01*
X170943629Y-151670501D01*
X170893838Y-151625546D01*
X170875500Y-151560649D01*
X170875500Y-147707940D01*
X170895185Y-147640901D01*
X170911819Y-147620259D01*
X170929816Y-147602262D01*
X171025789Y-147449522D01*
X171085368Y-147279255D01*
X171085977Y-147273852D01*
X171105565Y-147100003D01*
X171105565Y-147099996D01*
X171085369Y-146920750D01*
X171085368Y-146920745D01*
X171030698Y-146764507D01*
X171025789Y-146750478D01*
X171016295Y-146735369D01*
X170977033Y-146672883D01*
X170929816Y-146597738D01*
X170802262Y-146470184D01*
X170781743Y-146457291D01*
X170649523Y-146374211D01*
X170479254Y-146314631D01*
X170479249Y-146314630D01*
X170300004Y-146294435D01*
X170299996Y-146294435D01*
X170120750Y-146314630D01*
X170120745Y-146314631D01*
X169950476Y-146374211D01*
X169797737Y-146470184D01*
X169670184Y-146597737D01*
X169574211Y-146750476D01*
X169514631Y-146920745D01*
X169514630Y-146920750D01*
X169494435Y-147099996D01*
X168800500Y-147099996D01*
X168800500Y-144030809D01*
X168820185Y-143963770D01*
X168847191Y-143933859D01*
X168852252Y-143929821D01*
X168852262Y-143929816D01*
X168979816Y-143802262D01*
X169075789Y-143649522D01*
X169135368Y-143479255D01*
X169135369Y-143479249D01*
X169155565Y-143300003D01*
X169155565Y-143299996D01*
X169135369Y-143120750D01*
X169135368Y-143120745D01*
X169120733Y-143078922D01*
X169075789Y-142950478D01*
X168979816Y-142797738D01*
X168945646Y-142763568D01*
X173453209Y-142763568D01*
X173453209Y-142763583D01*
X173473190Y-143310323D01*
X173473192Y-143310357D01*
X173533031Y-143854196D01*
X173533036Y-143854231D01*
X173632411Y-144392228D01*
X173770801Y-144921578D01*
X173947463Y-145439419D01*
X174161448Y-145942968D01*
X174161454Y-145942979D01*
X174411615Y-146429545D01*
X174411620Y-146429553D01*
X174411623Y-146429559D01*
X174696648Y-146896591D01*
X174696651Y-146896595D01*
X175014994Y-147341558D01*
X175015007Y-147341575D01*
X175364985Y-147762118D01*
X175365006Y-147762142D01*
X175744731Y-148155997D01*
X175744735Y-148156001D01*
X175744745Y-148156011D01*
X176152237Y-148521125D01*
X176585294Y-148855520D01*
X177041604Y-149157412D01*
X177518734Y-149425191D01*
X178014137Y-149657426D01*
X178525171Y-149852880D01*
X178525181Y-149852883D01*
X179006653Y-149997737D01*
X179049109Y-150010510D01*
X179049111Y-150010510D01*
X179049120Y-150010513D01*
X179433947Y-150096236D01*
X179583156Y-150129474D01*
X180124461Y-150209137D01*
X180233796Y-150217139D01*
X180670119Y-150249075D01*
X180670134Y-150249075D01*
X180670138Y-150249076D01*
X180670140Y-150249076D01*
X181217272Y-150249076D01*
X181217274Y-150249076D01*
X181217278Y-150249075D01*
X181217292Y-150249075D01*
X181571864Y-150223122D01*
X181762951Y-150209137D01*
X182304256Y-150129474D01*
X182609425Y-150061494D01*
X182838291Y-150010513D01*
X182838296Y-150010511D01*
X182838303Y-150010510D01*
X183362241Y-149852880D01*
X183873275Y-149657426D01*
X184368678Y-149425191D01*
X184845808Y-149157412D01*
X185302118Y-148855520D01*
X185735175Y-148521125D01*
X186142667Y-148156011D01*
X186522420Y-147762126D01*
X186872408Y-147341571D01*
X187190764Y-146896591D01*
X187475789Y-146429559D01*
X187725963Y-145942968D01*
X187939951Y-145439413D01*
X188116610Y-144921581D01*
X188254999Y-144392236D01*
X188318214Y-144050000D01*
X188354375Y-143854231D01*
X188354376Y-143854218D01*
X188354380Y-143854201D01*
X188414220Y-143310347D01*
X188414223Y-143310256D01*
X188434203Y-142763583D01*
X188434203Y-142763568D01*
X188414221Y-142216828D01*
X188414219Y-142216794D01*
X188376143Y-141870745D01*
X188354380Y-141672951D01*
X188354377Y-141672937D01*
X188354375Y-141672920D01*
X188255000Y-141134923D01*
X188254999Y-141134916D01*
X188116610Y-140605571D01*
X187939951Y-140087739D01*
X187927916Y-140059418D01*
X187725963Y-139584183D01*
X187725957Y-139584172D01*
X187475796Y-139097606D01*
X187475793Y-139097602D01*
X187475789Y-139097593D01*
X187190764Y-138630561D01*
X186872408Y-138185581D01*
X186614711Y-137875925D01*
X186522426Y-137765033D01*
X186522405Y-137765009D01*
X186142680Y-137371154D01*
X186142675Y-137371149D01*
X186142667Y-137371141D01*
X185735175Y-137006027D01*
X185302118Y-136671632D01*
X185282348Y-136658552D01*
X184845824Y-136369750D01*
X184845816Y-136369745D01*
X184845808Y-136369740D01*
X184443220Y-136143796D01*
X184368689Y-136101967D01*
X184368687Y-136101966D01*
X184368678Y-136101961D01*
X183873275Y-135869726D01*
X183797676Y-135840812D01*
X183554678Y-135747873D01*
X183362241Y-135674272D01*
X183362238Y-135674271D01*
X183362230Y-135674268D01*
X182838312Y-135516644D01*
X182838291Y-135516638D01*
X182304272Y-135397681D01*
X182304257Y-135397678D01*
X182076007Y-135364087D01*
X181762951Y-135318015D01*
X181762946Y-135318014D01*
X181762935Y-135318013D01*
X181217292Y-135278076D01*
X181217274Y-135278076D01*
X180670138Y-135278076D01*
X180670119Y-135278076D01*
X180124476Y-135318013D01*
X180124463Y-135318014D01*
X180124461Y-135318015D01*
X179900633Y-135350955D01*
X179583154Y-135397678D01*
X179583139Y-135397681D01*
X179049120Y-135516638D01*
X179049099Y-135516644D01*
X178525181Y-135674268D01*
X178014141Y-135869724D01*
X178014137Y-135869726D01*
X177518734Y-136101961D01*
X177518729Y-136101963D01*
X177518722Y-136101967D01*
X177041604Y-136369740D01*
X177041587Y-136369750D01*
X176585296Y-136671630D01*
X176454433Y-136772679D01*
X176152237Y-137006027D01*
X176152235Y-137006029D01*
X176152227Y-137006036D01*
X175744745Y-137371141D01*
X175744731Y-137371154D01*
X175365006Y-137765009D01*
X175364985Y-137765033D01*
X175015007Y-138185576D01*
X175014994Y-138185593D01*
X174696651Y-138630556D01*
X174411615Y-139097606D01*
X174161454Y-139584172D01*
X174161448Y-139584183D01*
X173947463Y-140087732D01*
X173770801Y-140605573D01*
X173632411Y-141134923D01*
X173533036Y-141672920D01*
X173533031Y-141672955D01*
X173473192Y-142216794D01*
X173473190Y-142216828D01*
X173453209Y-142763568D01*
X168945646Y-142763568D01*
X168869259Y-142687181D01*
X168835774Y-142625858D01*
X168840758Y-142556166D01*
X168882630Y-142500233D01*
X168948094Y-142475816D01*
X168956940Y-142475500D01*
X170566532Y-142475500D01*
X170566533Y-142475499D01*
X170697036Y-142449541D01*
X170819969Y-142398620D01*
X170930606Y-142324695D01*
X172494902Y-140760397D01*
X172541623Y-140731039D01*
X172699522Y-140675789D01*
X172852262Y-140579816D01*
X172979816Y-140452262D01*
X173075789Y-140299522D01*
X173135368Y-140129255D01*
X173140046Y-140087739D01*
X173155565Y-139950003D01*
X173155565Y-139949996D01*
X173135369Y-139770750D01*
X173135368Y-139770745D01*
X173131038Y-139758370D01*
X173075789Y-139600478D01*
X172979816Y-139447738D01*
X172852262Y-139320184D01*
X172762682Y-139263897D01*
X172699523Y-139224211D01*
X172529254Y-139164631D01*
X172529249Y-139164630D01*
X172350004Y-139144435D01*
X172349996Y-139144435D01*
X172170750Y-139164630D01*
X172170745Y-139164631D01*
X172000476Y-139224211D01*
X171847737Y-139320184D01*
X171720184Y-139447737D01*
X171624209Y-139600480D01*
X171568961Y-139758370D01*
X171539601Y-139805096D01*
X170256518Y-141088181D01*
X170195195Y-141121666D01*
X170168837Y-141124500D01*
X166915280Y-141124500D01*
X166849307Y-141105493D01*
X166799524Y-141074211D01*
X166629254Y-141014631D01*
X166629249Y-141014630D01*
X166450004Y-140994435D01*
X166449996Y-140994435D01*
X166270750Y-141014630D01*
X166270745Y-141014631D01*
X166100476Y-141074211D01*
X165947737Y-141170184D01*
X165820184Y-141297737D01*
X165724211Y-141450476D01*
X165664631Y-141620745D01*
X165664630Y-141620750D01*
X165644435Y-141799996D01*
X160710612Y-141799996D01*
X160675789Y-141700478D01*
X160579816Y-141547738D01*
X160452262Y-141420184D01*
X160299523Y-141324211D01*
X160129254Y-141264631D01*
X160129249Y-141264630D01*
X159950004Y-141244435D01*
X159949996Y-141244435D01*
X159770750Y-141264630D01*
X159770745Y-141264631D01*
X159600476Y-141324211D01*
X159447737Y-141420184D01*
X159320184Y-141547737D01*
X159224211Y-141700476D01*
X159164631Y-141870745D01*
X159164630Y-141870750D01*
X159144435Y-142049996D01*
X128104206Y-142049996D01*
X128104206Y-138525000D01*
X131277472Y-138525000D01*
X131319885Y-138674065D01*
X131319890Y-138674078D01*
X131410754Y-138856556D01*
X131533608Y-139019242D01*
X131684260Y-139156578D01*
X131857584Y-139263897D01*
X132047678Y-139337539D01*
X132100000Y-139347320D01*
X132600000Y-139347320D01*
X132652321Y-139337539D01*
X132842415Y-139263897D01*
X133015739Y-139156578D01*
X133166391Y-139019242D01*
X133289245Y-138856556D01*
X133380109Y-138674078D01*
X133380114Y-138674065D01*
X133422528Y-138525000D01*
X132600000Y-138525000D01*
X132600000Y-139347320D01*
X132100000Y-139347320D01*
X132100000Y-138525000D01*
X131277472Y-138525000D01*
X128104206Y-138525000D01*
X128104206Y-137861080D01*
X128123891Y-137794041D01*
X128176695Y-137748286D01*
X128245853Y-137738342D01*
X128309409Y-137767367D01*
X128328525Y-137788195D01*
X128372829Y-137849175D01*
X128500830Y-137977176D01*
X128647265Y-138083565D01*
X128808552Y-138165747D01*
X128808555Y-138165748D01*
X128980706Y-138221682D01*
X129159494Y-138250000D01*
X129450000Y-138250000D01*
X129450000Y-137450000D01*
X129950000Y-137450000D01*
X129950000Y-138250000D01*
X130240506Y-138250000D01*
X130373583Y-138228922D01*
X132000000Y-138228922D01*
X132000000Y-138321078D01*
X132023852Y-138410095D01*
X132069930Y-138489905D01*
X132135095Y-138555070D01*
X132214905Y-138601148D01*
X132303922Y-138625000D01*
X132396078Y-138625000D01*
X132485095Y-138601148D01*
X132564905Y-138555070D01*
X132630070Y-138489905D01*
X132676148Y-138410095D01*
X132700000Y-138321078D01*
X132700000Y-138228922D01*
X132676148Y-138139905D01*
X132630070Y-138060095D01*
X132564905Y-137994930D01*
X132485095Y-137948852D01*
X132396078Y-137925000D01*
X132303922Y-137925000D01*
X132214905Y-137948852D01*
X132135095Y-137994930D01*
X132069930Y-138060095D01*
X132023852Y-138139905D01*
X132000000Y-138228922D01*
X130373583Y-138228922D01*
X130419293Y-138221682D01*
X130591444Y-138165748D01*
X130591447Y-138165747D01*
X130752734Y-138083565D01*
X130833345Y-138024999D01*
X131277471Y-138024999D01*
X131277472Y-138025000D01*
X132100000Y-138025000D01*
X132100000Y-137202679D01*
X132600000Y-137202679D01*
X132600000Y-138025000D01*
X133422528Y-138025000D01*
X133422528Y-138024999D01*
X133380114Y-137875934D01*
X133380109Y-137875921D01*
X133289245Y-137693443D01*
X133166391Y-137530757D01*
X133015739Y-137393421D01*
X132842413Y-137286101D01*
X132652315Y-137212458D01*
X132652309Y-137212456D01*
X132600001Y-137202677D01*
X132600000Y-137202679D01*
X132100000Y-137202679D01*
X132099998Y-137202677D01*
X132047690Y-137212456D01*
X132047684Y-137212458D01*
X131857586Y-137286101D01*
X131684260Y-137393421D01*
X131533608Y-137530758D01*
X131422266Y-137678198D01*
X131366157Y-137719834D01*
X131326020Y-137722534D01*
X131346489Y-137758781D01*
X131342501Y-137828536D01*
X131336713Y-137842138D01*
X131319889Y-137875925D01*
X131319885Y-137875934D01*
X131277471Y-138024999D01*
X130833345Y-138024999D01*
X130899169Y-137977176D01*
X131027170Y-137849175D01*
X131125393Y-137713982D01*
X131180723Y-137671316D01*
X131222786Y-137667703D01*
X131202036Y-137629319D01*
X131207313Y-137559649D01*
X131212832Y-137547167D01*
X131215747Y-137541446D01*
X131215749Y-137541441D01*
X131271681Y-137369295D01*
X131271684Y-137369285D01*
X131274739Y-137350000D01*
X130344975Y-137350000D01*
X130380070Y-137314905D01*
X130426148Y-137235095D01*
X130450000Y-137146078D01*
X130450000Y-137053922D01*
X130426148Y-136964905D01*
X130380070Y-136885095D01*
X130344975Y-136850000D01*
X131274739Y-136850000D01*
X131271684Y-136830714D01*
X131271681Y-136830704D01*
X131215749Y-136658558D01*
X131215747Y-136658552D01*
X131133565Y-136497265D01*
X131027176Y-136350830D01*
X130899169Y-136222823D01*
X130752734Y-136116434D01*
X130591447Y-136034252D01*
X130591444Y-136034251D01*
X130419293Y-135978317D01*
X130240506Y-135950000D01*
X129950000Y-135950000D01*
X129950000Y-136750000D01*
X129450000Y-136750000D01*
X129450000Y-135950000D01*
X129159494Y-135950000D01*
X128980706Y-135978317D01*
X128808555Y-136034251D01*
X128808552Y-136034252D01*
X128647265Y-136116434D01*
X128500830Y-136222823D01*
X128372827Y-136350826D01*
X128372823Y-136350831D01*
X128277305Y-136482301D01*
X128221975Y-136524967D01*
X128152362Y-136530946D01*
X128090567Y-136498340D01*
X128056210Y-136437502D01*
X128053967Y-136424974D01*
X127993186Y-135943850D01*
X127882589Y-135364087D01*
X127735807Y-134792413D01*
X127553418Y-134231084D01*
X127549030Y-134220000D01*
X129530840Y-134220000D01*
X129571652Y-134354541D01*
X129664503Y-134528253D01*
X129664507Y-134528260D01*
X129789471Y-134680528D01*
X129941739Y-134805491D01*
X130115465Y-134898349D01*
X130250000Y-134939159D01*
X130750000Y-134939159D01*
X130884534Y-134898349D01*
X131058260Y-134805491D01*
X131210528Y-134680528D01*
X131233830Y-134652135D01*
X140699500Y-134652135D01*
X140699500Y-135747870D01*
X140699501Y-135747876D01*
X140705908Y-135807483D01*
X140756202Y-135942328D01*
X140756206Y-135942335D01*
X140842452Y-136057544D01*
X140842455Y-136057547D01*
X140957664Y-136143793D01*
X140957671Y-136143797D01*
X141092517Y-136194091D01*
X141092516Y-136194091D01*
X141099444Y-136194835D01*
X141152127Y-136200500D01*
X142247872Y-136200499D01*
X142307483Y-136194091D01*
X142442331Y-136143796D01*
X142557546Y-136057546D01*
X142643796Y-135942331D01*
X142694091Y-135807483D01*
X142700500Y-135747873D01*
X142700499Y-134652128D01*
X142694091Y-134592517D01*
X142678055Y-134549523D01*
X142643797Y-134457671D01*
X142643793Y-134457664D01*
X142637439Y-134449176D01*
X142613021Y-134383712D01*
X142626505Y-134320369D01*
X142626018Y-134320167D01*
X142627110Y-134317530D01*
X142627349Y-134316408D01*
X142628347Y-134314539D01*
X142669160Y-134180000D01*
X141944975Y-134180000D01*
X141980070Y-134144905D01*
X142026148Y-134065095D01*
X142050000Y-133976078D01*
X142050000Y-133883922D01*
X142026148Y-133794905D01*
X141980070Y-133715095D01*
X141944975Y-133680000D01*
X141950000Y-133680000D01*
X142669160Y-133680000D01*
X142669160Y-133679999D01*
X142628347Y-133545458D01*
X142535496Y-133371746D01*
X142535492Y-133371739D01*
X142435579Y-133249996D01*
X164394435Y-133249996D01*
X164394435Y-133250003D01*
X164414630Y-133429249D01*
X164414631Y-133429254D01*
X164474211Y-133599523D01*
X164537659Y-133700499D01*
X164570184Y-133752262D01*
X164697738Y-133879816D01*
X164850478Y-133975789D01*
X164978955Y-134020745D01*
X165020745Y-134035368D01*
X165020750Y-134035369D01*
X165199996Y-134055565D01*
X165200000Y-134055565D01*
X165200004Y-134055565D01*
X165379249Y-134035369D01*
X165379252Y-134035368D01*
X165379255Y-134035368D01*
X165379256Y-134035367D01*
X165379259Y-134035367D01*
X165424735Y-134019453D01*
X165488358Y-133997190D01*
X165558136Y-133993628D01*
X165618764Y-134028357D01*
X165650991Y-134090350D01*
X165652534Y-134128114D01*
X165647582Y-134172060D01*
X165644492Y-134199501D01*
X165644435Y-134200003D01*
X165664630Y-134379249D01*
X165664631Y-134379254D01*
X165724211Y-134549523D01*
X165788683Y-134652129D01*
X165820184Y-134702262D01*
X165947738Y-134829816D01*
X166038080Y-134886582D01*
X166056807Y-134898349D01*
X166100478Y-134925789D01*
X166243367Y-134975788D01*
X166270745Y-134985368D01*
X166270750Y-134985369D01*
X166449996Y-135005565D01*
X166450000Y-135005565D01*
X166450004Y-135005565D01*
X166629249Y-134985369D01*
X166629252Y-134985368D01*
X166629255Y-134985368D01*
X166799522Y-134925789D01*
X166843193Y-134898349D01*
X166849307Y-134894507D01*
X166915280Y-134875500D01*
X173105145Y-134875500D01*
X173171117Y-134894506D01*
X173220903Y-134925789D01*
X173300478Y-134975789D01*
X173385573Y-135005565D01*
X173470745Y-135035368D01*
X173470750Y-135035369D01*
X173649996Y-135055565D01*
X173650000Y-135055565D01*
X173650004Y-135055565D01*
X173829249Y-135035369D01*
X173829252Y-135035368D01*
X173829255Y-135035368D01*
X173999522Y-134975789D01*
X174152262Y-134879816D01*
X174279816Y-134752262D01*
X174375789Y-134599522D01*
X174435368Y-134429255D01*
X174440376Y-134384809D01*
X174455565Y-134250003D01*
X174455565Y-134249996D01*
X174435369Y-134070750D01*
X174435368Y-134070745D01*
X174409630Y-133997191D01*
X174375789Y-133900478D01*
X174279816Y-133747738D01*
X174152262Y-133620184D01*
X174119379Y-133599522D01*
X173999523Y-133524211D01*
X173829254Y-133464631D01*
X173829249Y-133464630D01*
X173650004Y-133444435D01*
X173649996Y-133444435D01*
X173585388Y-133451714D01*
X173516566Y-133439659D01*
X173465187Y-133392310D01*
X173447563Y-133324699D01*
X173448285Y-133314610D01*
X173451552Y-133285616D01*
X173478619Y-133221202D01*
X173536214Y-133181647D01*
X173574772Y-133175500D01*
X174878584Y-133175500D01*
X174919539Y-133182459D01*
X175070737Y-133235366D01*
X175070743Y-133235367D01*
X175070745Y-133235368D01*
X175070746Y-133235368D01*
X175070750Y-133235369D01*
X175249996Y-133255565D01*
X175250000Y-133255565D01*
X175250004Y-133255565D01*
X175429249Y-133235369D01*
X175429252Y-133235368D01*
X175429255Y-133235368D01*
X175599522Y-133175789D01*
X175752262Y-133079816D01*
X175879816Y-132952262D01*
X175975789Y-132799522D01*
X176035368Y-132629255D01*
X176036390Y-132620184D01*
X176055565Y-132450003D01*
X176055565Y-132449996D01*
X176035369Y-132270750D01*
X176035368Y-132270745D01*
X176012242Y-132204655D01*
X175975789Y-132100478D01*
X175879816Y-131947738D01*
X175752262Y-131820184D01*
X175599523Y-131724211D01*
X175429254Y-131664631D01*
X175429249Y-131664630D01*
X175250004Y-131644435D01*
X175249996Y-131644435D01*
X175070750Y-131664630D01*
X175070745Y-131664631D01*
X174900474Y-131724212D01*
X174833801Y-131766105D01*
X174766564Y-131785105D01*
X174699729Y-131764737D01*
X174654516Y-131711468D01*
X174644610Y-131647227D01*
X174655565Y-131550002D01*
X174655565Y-131549996D01*
X174635369Y-131370750D01*
X174635368Y-131370745D01*
X174585460Y-131228117D01*
X174575789Y-131200478D01*
X174575776Y-131200458D01*
X174479815Y-131047737D01*
X174352262Y-130920184D01*
X174199523Y-130824211D01*
X174029254Y-130764631D01*
X174029249Y-130764630D01*
X173850004Y-130744435D01*
X173849996Y-130744435D01*
X173670750Y-130764630D01*
X173670745Y-130764631D01*
X173500475Y-130824211D01*
X173450693Y-130855493D01*
X173384720Y-130874500D01*
X166965280Y-130874500D01*
X166899307Y-130855493D01*
X166849524Y-130824211D01*
X166679254Y-130764631D01*
X166679249Y-130764630D01*
X166500004Y-130744435D01*
X166499996Y-130744435D01*
X166320750Y-130764630D01*
X166320745Y-130764631D01*
X166150476Y-130824211D01*
X165997737Y-130920184D01*
X165870184Y-131047737D01*
X165774211Y-131200476D01*
X165714631Y-131370745D01*
X165714630Y-131370750D01*
X165694435Y-131549996D01*
X165694435Y-131550003D01*
X165714630Y-131729249D01*
X165714631Y-131729254D01*
X165774211Y-131899523D01*
X165804507Y-131947738D01*
X165870184Y-132052262D01*
X165997738Y-132179816D01*
X166037253Y-132204645D01*
X166142450Y-132270745D01*
X166150478Y-132275789D01*
X166315287Y-132333458D01*
X166372063Y-132374180D01*
X166397810Y-132439133D01*
X166384354Y-132507694D01*
X166335967Y-132558097D01*
X166274332Y-132574500D01*
X165665280Y-132574500D01*
X165599307Y-132555493D01*
X165549524Y-132524211D01*
X165379254Y-132464631D01*
X165379249Y-132464630D01*
X165200004Y-132444435D01*
X165199996Y-132444435D01*
X165020750Y-132464630D01*
X165020745Y-132464631D01*
X164850476Y-132524211D01*
X164697737Y-132620184D01*
X164570184Y-132747737D01*
X164474211Y-132900476D01*
X164414631Y-133070745D01*
X164414630Y-133070750D01*
X164394435Y-133249996D01*
X142435579Y-133249996D01*
X142410528Y-133219471D01*
X142258260Y-133094507D01*
X142258253Y-133094503D01*
X142084541Y-133001652D01*
X141950000Y-132960839D01*
X141950000Y-133680000D01*
X141944975Y-133680000D01*
X141914905Y-133649930D01*
X141835095Y-133603852D01*
X141746078Y-133580000D01*
X141653922Y-133580000D01*
X141564905Y-133603852D01*
X141485095Y-133649930D01*
X141419930Y-133715095D01*
X141373852Y-133794905D01*
X141350000Y-133883922D01*
X141350000Y-133976078D01*
X141373852Y-134065095D01*
X141419930Y-134144905D01*
X141455025Y-134180000D01*
X140730840Y-134180000D01*
X140771651Y-134314537D01*
X140772651Y-134316407D01*
X140772878Y-134317501D01*
X140773981Y-134320162D01*
X140773476Y-134320370D01*
X140786896Y-134384809D01*
X140762564Y-134449172D01*
X140756205Y-134457666D01*
X140756202Y-134457671D01*
X140705908Y-134592517D01*
X140701642Y-134632201D01*
X140699501Y-134652123D01*
X140699500Y-134652135D01*
X131233830Y-134652135D01*
X131335492Y-134528260D01*
X131335496Y-134528253D01*
X131428347Y-134354541D01*
X131469160Y-134220000D01*
X130750000Y-134220000D01*
X130750000Y-134939159D01*
X130250000Y-134939159D01*
X130250000Y-134220000D01*
X129530840Y-134220000D01*
X127549030Y-134220000D01*
X127364960Y-133755095D01*
X127336147Y-133682321D01*
X127336141Y-133682307D01*
X127084847Y-133148285D01*
X127084840Y-133148270D01*
X126901133Y-132814109D01*
X126800513Y-132631081D01*
X126800506Y-132631070D01*
X126800500Y-132631059D01*
X126496565Y-132152135D01*
X129499500Y-132152135D01*
X129499500Y-133247870D01*
X129499501Y-133247876D01*
X129505908Y-133307483D01*
X129556202Y-133442328D01*
X129556206Y-133442335D01*
X129562561Y-133450824D01*
X129586979Y-133516288D01*
X129573495Y-133579636D01*
X129573981Y-133579838D01*
X129572894Y-133582461D01*
X129572655Y-133583586D01*
X129571650Y-133585464D01*
X129530839Y-133719999D01*
X129530840Y-133720000D01*
X130255025Y-133720000D01*
X130219930Y-133755095D01*
X130173852Y-133834905D01*
X130150000Y-133923922D01*
X130150000Y-134016078D01*
X130173852Y-134105095D01*
X130219930Y-134184905D01*
X130285095Y-134250070D01*
X130364905Y-134296148D01*
X130453922Y-134320000D01*
X130546078Y-134320000D01*
X130635095Y-134296148D01*
X130714905Y-134250070D01*
X130780070Y-134184905D01*
X130826148Y-134105095D01*
X130850000Y-134016078D01*
X130850000Y-133923922D01*
X130826148Y-133834905D01*
X130780070Y-133755095D01*
X130744975Y-133720000D01*
X131469160Y-133720000D01*
X131469160Y-133719999D01*
X131457026Y-133679999D01*
X140730839Y-133679999D01*
X140730840Y-133680000D01*
X141450000Y-133680000D01*
X141450000Y-132960839D01*
X141449999Y-132960839D01*
X141315458Y-133001652D01*
X141141746Y-133094503D01*
X141141739Y-133094507D01*
X140989471Y-133219471D01*
X140864507Y-133371739D01*
X140864503Y-133371746D01*
X140771652Y-133545458D01*
X140730839Y-133679999D01*
X131457026Y-133679999D01*
X131428348Y-133585462D01*
X131427345Y-133583585D01*
X131427115Y-133582483D01*
X131426018Y-133579833D01*
X131426520Y-133579624D01*
X131413105Y-133515182D01*
X131437440Y-133450821D01*
X131443796Y-133442331D01*
X131448674Y-133429254D01*
X131487670Y-133324699D01*
X131494091Y-133307483D01*
X131500500Y-133247873D01*
X131500499Y-132152128D01*
X131494091Y-132092517D01*
X131443796Y-131957669D01*
X131443795Y-131957668D01*
X131443793Y-131957664D01*
X131357547Y-131842455D01*
X131357544Y-131842452D01*
X131242335Y-131756206D01*
X131242328Y-131756202D01*
X131107482Y-131705908D01*
X131107483Y-131705908D01*
X131047883Y-131699501D01*
X131047881Y-131699500D01*
X131047873Y-131699500D01*
X131047864Y-131699500D01*
X129952129Y-131699500D01*
X129952123Y-131699501D01*
X129892516Y-131705908D01*
X129757671Y-131756202D01*
X129757664Y-131756206D01*
X129642455Y-131842452D01*
X129642452Y-131842455D01*
X129556206Y-131957664D01*
X129556202Y-131957671D01*
X129505908Y-132092517D01*
X129501587Y-132132714D01*
X129499501Y-132152123D01*
X129499500Y-132152135D01*
X126496565Y-132152135D01*
X126484245Y-132132722D01*
X126137323Y-131655227D01*
X125809273Y-131258684D01*
X125761104Y-131200458D01*
X125357071Y-130770207D01*
X124926827Y-130366183D01*
X124746060Y-130216640D01*
X124472049Y-129989959D01*
X124472037Y-129989950D01*
X124472033Y-129989947D01*
X124013759Y-129656993D01*
X123994553Y-129643039D01*
X123992386Y-129641664D01*
X123749102Y-129487271D01*
X123496216Y-129326785D01*
X123496201Y-129326776D01*
X123496193Y-129326772D01*
X122979021Y-129042454D01*
X122979011Y-129042449D01*
X122526780Y-128829647D01*
X122444959Y-128791145D01*
X122417355Y-128780216D01*
X121896194Y-128573874D01*
X121896189Y-128573872D01*
X121867416Y-128564523D01*
X121334853Y-128391483D01*
X120763195Y-128244706D01*
X120763183Y-128244703D01*
X120183427Y-128134110D01*
X120183411Y-128134107D01*
X119597870Y-128060137D01*
X119597831Y-128060134D01*
X119073331Y-128027135D01*
X129574500Y-128027135D01*
X129574500Y-129122870D01*
X129574501Y-129122876D01*
X129580908Y-129182483D01*
X129631202Y-129317328D01*
X129631206Y-129317335D01*
X129717452Y-129432544D01*
X129717455Y-129432547D01*
X129832664Y-129518793D01*
X129832671Y-129518797D01*
X129967517Y-129569091D01*
X129967516Y-129569091D01*
X129974444Y-129569835D01*
X130027127Y-129575500D01*
X131122872Y-129575499D01*
X131182483Y-129569091D01*
X131317331Y-129518796D01*
X131432546Y-129432546D01*
X131518796Y-129317331D01*
X131569091Y-129182483D01*
X131575500Y-129122873D01*
X131575499Y-128027128D01*
X131569091Y-127967517D01*
X131562382Y-127949530D01*
X131518797Y-127832671D01*
X131518793Y-127832664D01*
X131512439Y-127824176D01*
X131488021Y-127758712D01*
X131495198Y-127724996D01*
X151119435Y-127724996D01*
X151119435Y-127725003D01*
X151139630Y-127904249D01*
X151139631Y-127904254D01*
X151199211Y-128074523D01*
X151259970Y-128171220D01*
X151295184Y-128227262D01*
X151422738Y-128354816D01*
X151491046Y-128397737D01*
X151560371Y-128441297D01*
X151575478Y-128450789D01*
X151678984Y-128487007D01*
X151725710Y-128516367D01*
X152253453Y-129044111D01*
X152253454Y-129044112D01*
X152253457Y-129044114D01*
X152332339Y-129096821D01*
X152368189Y-129120775D01*
X152495672Y-129173580D01*
X152495676Y-129173580D01*
X152495677Y-129173581D01*
X152631004Y-129200500D01*
X152631007Y-129200500D01*
X155724876Y-129200500D01*
X155791915Y-129220185D01*
X155829869Y-129258527D01*
X155920184Y-129402262D01*
X156047738Y-129529816D01*
X156200478Y-129625789D01*
X156362537Y-129682496D01*
X156370745Y-129685368D01*
X156370750Y-129685369D01*
X156549996Y-129705565D01*
X156550000Y-129705565D01*
X156550004Y-129705565D01*
X156729249Y-129685369D01*
X156729252Y-129685368D01*
X156729255Y-129685368D01*
X156899522Y-129625789D01*
X157052262Y-129529816D01*
X157179816Y-129402262D01*
X157275789Y-129249522D01*
X157335368Y-129079255D01*
X157335369Y-129079249D01*
X157355565Y-128900003D01*
X157355565Y-128899996D01*
X157335369Y-128720750D01*
X157335368Y-128720745D01*
X157303471Y-128629588D01*
X157275789Y-128550478D01*
X157179816Y-128397738D01*
X157052262Y-128270184D01*
X157006884Y-128241671D01*
X156899524Y-128174212D01*
X156899523Y-128174211D01*
X156796013Y-128137991D01*
X156749289Y-128108632D01*
X156596543Y-127955886D01*
X156588249Y-127950344D01*
X156481807Y-127879222D01*
X156354332Y-127826421D01*
X156354322Y-127826418D01*
X156218996Y-127799500D01*
X156218994Y-127799500D01*
X156218993Y-127799500D01*
X153041519Y-127799500D01*
X152974480Y-127779815D01*
X152953838Y-127763181D01*
X152716367Y-127525710D01*
X152687006Y-127478983D01*
X152685496Y-127474668D01*
X152650789Y-127375478D01*
X152650418Y-127374888D01*
X152554815Y-127222737D01*
X152432075Y-127099997D01*
X174845080Y-127099997D01*
X174845080Y-127100002D01*
X174864746Y-127462728D01*
X174923517Y-127821214D01*
X174923519Y-127821222D01*
X175020695Y-128171220D01*
X175020697Y-128171227D01*
X175155152Y-128508684D01*
X175155161Y-128508702D01*
X175325316Y-128829647D01*
X175325318Y-128829651D01*
X175529170Y-129130309D01*
X175529177Y-129130319D01*
X175660969Y-129285475D01*
X175660970Y-129285475D01*
X176905748Y-128040698D01*
X176979588Y-128142330D01*
X177157670Y-128320412D01*
X177259300Y-128394251D01*
X176011888Y-129641662D01*
X176011888Y-129641664D01*
X176028070Y-129656992D01*
X176028071Y-129656993D01*
X176317266Y-129876832D01*
X176317282Y-129876843D01*
X176628522Y-130064109D01*
X176628535Y-130064116D01*
X176958205Y-130216639D01*
X176958210Y-130216640D01*
X177302461Y-130332632D01*
X177657235Y-130410724D01*
X178018366Y-130449999D01*
X178018374Y-130450000D01*
X178381626Y-130450000D01*
X178381633Y-130449999D01*
X178742764Y-130410724D01*
X179097538Y-130332632D01*
X179441789Y-130216640D01*
X179441794Y-130216639D01*
X179771464Y-130064116D01*
X179771477Y-130064109D01*
X180082717Y-129876843D01*
X180082733Y-129876832D01*
X180118034Y-129849997D01*
X216495080Y-129849997D01*
X216495080Y-129850002D01*
X216514746Y-130212728D01*
X216573517Y-130571214D01*
X216573519Y-130571222D01*
X216670695Y-130921220D01*
X216670697Y-130921227D01*
X216805152Y-131258684D01*
X216805161Y-131258702D01*
X216975316Y-131579647D01*
X216975318Y-131579651D01*
X217179170Y-131880309D01*
X217179177Y-131880319D01*
X217310969Y-132035475D01*
X217310970Y-132035475D01*
X218555748Y-130790698D01*
X218629588Y-130892330D01*
X218807670Y-131070412D01*
X218909300Y-131144251D01*
X217661888Y-132391662D01*
X217661888Y-132391664D01*
X217678070Y-132406992D01*
X217678071Y-132406993D01*
X217967266Y-132626832D01*
X217967282Y-132626843D01*
X218278522Y-132814109D01*
X218278535Y-132814116D01*
X218608205Y-132966639D01*
X218608210Y-132966640D01*
X218952461Y-133082632D01*
X219307235Y-133160724D01*
X219668366Y-133199999D01*
X219668374Y-133200000D01*
X220031626Y-133200000D01*
X220031633Y-133199999D01*
X220392764Y-133160724D01*
X220747538Y-133082632D01*
X221091789Y-132966640D01*
X221091794Y-132966639D01*
X221421464Y-132814116D01*
X221421477Y-132814109D01*
X221732717Y-132626843D01*
X221732733Y-132626832D01*
X222021929Y-132406992D01*
X222038110Y-132391664D01*
X222038110Y-132391663D01*
X220790698Y-131144251D01*
X220892330Y-131070412D01*
X221070412Y-130892330D01*
X221144251Y-130790698D01*
X222389028Y-132035475D01*
X222389029Y-132035475D01*
X222520827Y-131880311D01*
X222520838Y-131880297D01*
X222724681Y-131579651D01*
X222724683Y-131579647D01*
X222894838Y-131258702D01*
X222894847Y-131258684D01*
X223029302Y-130921227D01*
X223029304Y-130921220D01*
X223126480Y-130571222D01*
X223126482Y-130571214D01*
X223185253Y-130212728D01*
X223204920Y-129850002D01*
X223204920Y-129849997D01*
X223185253Y-129487271D01*
X223126482Y-129128785D01*
X223126480Y-129128777D01*
X223029304Y-128778779D01*
X223029302Y-128778772D01*
X222894847Y-128441315D01*
X222894838Y-128441297D01*
X222724683Y-128120352D01*
X222724681Y-128120348D01*
X222520829Y-127819690D01*
X222520822Y-127819680D01*
X222389029Y-127664523D01*
X222389028Y-127664523D01*
X221144251Y-128909300D01*
X221070412Y-128807670D01*
X220892330Y-128629588D01*
X220790698Y-128555748D01*
X222038110Y-127308336D01*
X222038110Y-127308334D01*
X222021929Y-127293007D01*
X222021928Y-127293006D01*
X221732733Y-127073167D01*
X221732717Y-127073156D01*
X221421477Y-126885890D01*
X221421464Y-126885883D01*
X221091794Y-126733360D01*
X221091789Y-126733359D01*
X220747538Y-126617367D01*
X220392764Y-126539275D01*
X220031633Y-126500000D01*
X219668366Y-126500000D01*
X219307235Y-126539275D01*
X218952461Y-126617367D01*
X218608210Y-126733359D01*
X218608205Y-126733360D01*
X218278535Y-126885883D01*
X218278522Y-126885890D01*
X217967282Y-127073156D01*
X217967266Y-127073167D01*
X217678075Y-127293002D01*
X217661888Y-127308335D01*
X217661887Y-127308335D01*
X218909301Y-128555748D01*
X218807670Y-128629588D01*
X218629588Y-128807670D01*
X218555748Y-128909300D01*
X217310970Y-127664522D01*
X217310969Y-127664523D01*
X217179177Y-127819680D01*
X217179170Y-127819690D01*
X216975318Y-128120348D01*
X216975316Y-128120352D01*
X216805161Y-128441297D01*
X216805152Y-128441315D01*
X216670697Y-128778772D01*
X216670695Y-128778779D01*
X216573519Y-129128777D01*
X216573517Y-129128785D01*
X216514746Y-129487271D01*
X216495080Y-129849997D01*
X180118034Y-129849997D01*
X180371929Y-129656992D01*
X180388110Y-129641664D01*
X180388110Y-129641663D01*
X179140698Y-128394251D01*
X179242330Y-128320412D01*
X179420412Y-128142330D01*
X179494251Y-128040698D01*
X180739028Y-129285475D01*
X180739029Y-129285475D01*
X180870827Y-129130311D01*
X180870838Y-129130297D01*
X181074681Y-128829651D01*
X181074683Y-128829647D01*
X181244838Y-128508702D01*
X181244847Y-128508684D01*
X181379302Y-128171227D01*
X181379304Y-128171220D01*
X181476480Y-127821222D01*
X181476482Y-127821214D01*
X181535253Y-127462728D01*
X181554920Y-127100002D01*
X181554920Y-127099997D01*
X181535253Y-126737271D01*
X181476482Y-126378785D01*
X181476480Y-126378777D01*
X181379304Y-126028779D01*
X181379302Y-126028772D01*
X181244847Y-125691315D01*
X181244838Y-125691297D01*
X181074683Y-125370352D01*
X181074681Y-125370348D01*
X180870829Y-125069690D01*
X180870822Y-125069680D01*
X180739029Y-124914523D01*
X180739028Y-124914523D01*
X179494251Y-126159300D01*
X179420412Y-126057670D01*
X179242330Y-125879588D01*
X179140698Y-125805748D01*
X180388110Y-124558336D01*
X180388110Y-124558334D01*
X180371929Y-124543007D01*
X180371928Y-124543006D01*
X180082733Y-124323167D01*
X180082717Y-124323156D01*
X179771477Y-124135890D01*
X179771464Y-124135883D01*
X179441794Y-123983360D01*
X179441789Y-123983359D01*
X179097538Y-123867367D01*
X178742764Y-123789275D01*
X178381633Y-123750000D01*
X178018366Y-123750000D01*
X177657235Y-123789275D01*
X177302461Y-123867367D01*
X176958210Y-123983359D01*
X176958205Y-123983360D01*
X176628535Y-124135883D01*
X176628522Y-124135890D01*
X176317282Y-124323156D01*
X176317266Y-124323167D01*
X176028075Y-124543002D01*
X176011888Y-124558335D01*
X176011887Y-124558335D01*
X177259301Y-125805748D01*
X177157670Y-125879588D01*
X176979588Y-126057670D01*
X176905748Y-126159300D01*
X175660970Y-124914522D01*
X175660969Y-124914523D01*
X175529177Y-125069680D01*
X175529170Y-125069690D01*
X175325318Y-125370348D01*
X175325316Y-125370352D01*
X175155161Y-125691297D01*
X175155152Y-125691315D01*
X175020697Y-126028772D01*
X175020695Y-126028779D01*
X174923519Y-126378777D01*
X174923517Y-126378785D01*
X174864746Y-126737271D01*
X174845080Y-127099997D01*
X152432075Y-127099997D01*
X152427262Y-127095184D01*
X152274523Y-126999211D01*
X152104254Y-126939631D01*
X152104249Y-126939630D01*
X151925004Y-126919435D01*
X151924996Y-126919435D01*
X151745750Y-126939630D01*
X151745745Y-126939631D01*
X151575476Y-126999211D01*
X151422737Y-127095184D01*
X151295184Y-127222737D01*
X151199211Y-127375476D01*
X151139631Y-127545745D01*
X151139630Y-127545750D01*
X151119435Y-127724996D01*
X131495198Y-127724996D01*
X131501505Y-127695369D01*
X131501018Y-127695167D01*
X131502110Y-127692530D01*
X131502349Y-127691408D01*
X131503347Y-127689539D01*
X131544160Y-127555000D01*
X130819975Y-127555000D01*
X130855070Y-127519905D01*
X130901148Y-127440095D01*
X130925000Y-127351078D01*
X130925000Y-127258922D01*
X130901148Y-127169905D01*
X130855070Y-127090095D01*
X130819975Y-127055000D01*
X130825000Y-127055000D01*
X131544160Y-127055000D01*
X131544160Y-127054999D01*
X131503347Y-126920458D01*
X131410496Y-126746746D01*
X131410492Y-126746739D01*
X131285528Y-126594471D01*
X131133260Y-126469507D01*
X131133253Y-126469503D01*
X130959541Y-126376652D01*
X130825000Y-126335839D01*
X130825000Y-127055000D01*
X130819975Y-127055000D01*
X130789905Y-127024930D01*
X130710095Y-126978852D01*
X130621078Y-126955000D01*
X130528922Y-126955000D01*
X130439905Y-126978852D01*
X130360095Y-127024930D01*
X130294930Y-127090095D01*
X130248852Y-127169905D01*
X130225000Y-127258922D01*
X130225000Y-127351078D01*
X130248852Y-127440095D01*
X130294930Y-127519905D01*
X130330025Y-127555000D01*
X129605840Y-127555000D01*
X129646651Y-127689537D01*
X129647651Y-127691407D01*
X129647878Y-127692501D01*
X129648981Y-127695162D01*
X129648476Y-127695370D01*
X129661896Y-127759809D01*
X129637564Y-127824172D01*
X129631205Y-127832666D01*
X129631202Y-127832671D01*
X129580908Y-127967517D01*
X129574501Y-128027116D01*
X129574501Y-128027123D01*
X129574500Y-128027135D01*
X119073331Y-128027135D01*
X119008815Y-128023076D01*
X119008804Y-128023076D01*
X118779588Y-128023076D01*
X108582769Y-128023076D01*
X108577210Y-128022951D01*
X108175389Y-128004919D01*
X108164316Y-128003924D01*
X107768454Y-127950344D01*
X107757515Y-127948360D01*
X107368064Y-127859544D01*
X107357347Y-127856589D01*
X106977401Y-127733243D01*
X106966991Y-127729339D01*
X106737185Y-127631204D01*
X106599625Y-127572461D01*
X106589628Y-127567651D01*
X106237771Y-127378489D01*
X106228235Y-127372797D01*
X105894750Y-127152889D01*
X105885753Y-127146359D01*
X105771063Y-127054999D01*
X129605839Y-127054999D01*
X129605840Y-127055000D01*
X130325000Y-127055000D01*
X130325000Y-126335839D01*
X130324999Y-126335839D01*
X130190458Y-126376652D01*
X130016746Y-126469503D01*
X130016739Y-126469507D01*
X129864471Y-126594471D01*
X129739507Y-126746739D01*
X129739503Y-126746746D01*
X129646652Y-126920458D01*
X129605839Y-127054999D01*
X105771063Y-127054999D01*
X105626235Y-126939631D01*
X105573304Y-126897467D01*
X105564941Y-126890169D01*
X105279262Y-126617367D01*
X105276041Y-126614291D01*
X105268353Y-126606261D01*
X105005321Y-126305614D01*
X104998383Y-126296926D01*
X104771568Y-125985239D01*
X104763344Y-125973937D01*
X104757216Y-125964670D01*
X104552040Y-125621911D01*
X104546777Y-125612151D01*
X104373127Y-125252394D01*
X104368748Y-125242176D01*
X104367274Y-125238259D01*
X104228020Y-124868313D01*
X104224579Y-124857759D01*
X104223365Y-124853379D01*
X104129542Y-124514803D01*
X104117903Y-124472800D01*
X104115418Y-124461964D01*
X104061146Y-124164798D01*
X104043650Y-124069003D01*
X104042147Y-124057996D01*
X104035340Y-123983359D01*
X104005864Y-123660174D01*
X104005354Y-123649111D01*
X104005094Y-123443573D01*
X105225076Y-123443573D01*
X105225076Y-123443578D01*
X105244742Y-123806304D01*
X105303513Y-124164790D01*
X105303515Y-124164798D01*
X105400691Y-124514796D01*
X105400693Y-124514803D01*
X105535148Y-124852260D01*
X105535157Y-124852278D01*
X105705312Y-125173223D01*
X105705314Y-125173227D01*
X105909166Y-125473885D01*
X105909173Y-125473895D01*
X106040965Y-125629051D01*
X106040966Y-125629051D01*
X107285744Y-124384274D01*
X107359584Y-124485906D01*
X107537666Y-124663988D01*
X107639296Y-124737827D01*
X106391884Y-125985238D01*
X106391884Y-125985240D01*
X106408066Y-126000568D01*
X106408067Y-126000569D01*
X106697262Y-126220408D01*
X106697278Y-126220419D01*
X107008518Y-126407685D01*
X107008531Y-126407692D01*
X107338201Y-126560215D01*
X107338206Y-126560216D01*
X107682457Y-126676208D01*
X108037231Y-126754300D01*
X108398362Y-126793575D01*
X108398370Y-126793576D01*
X108761622Y-126793576D01*
X108761629Y-126793575D01*
X109122760Y-126754300D01*
X109477534Y-126676208D01*
X109821785Y-126560216D01*
X109821790Y-126560215D01*
X110151460Y-126407692D01*
X110151473Y-126407685D01*
X110462713Y-126220419D01*
X110462729Y-126220408D01*
X110751925Y-126000568D01*
X110768106Y-125985240D01*
X110768106Y-125985239D01*
X109520694Y-124737827D01*
X109622326Y-124663988D01*
X109800408Y-124485906D01*
X109874247Y-124384274D01*
X111119024Y-125629051D01*
X111119025Y-125629051D01*
X111250823Y-125473887D01*
X111250834Y-125473873D01*
X111454677Y-125173227D01*
X111454679Y-125173223D01*
X111624834Y-124852278D01*
X111624843Y-124852260D01*
X111759298Y-124514803D01*
X111759300Y-124514796D01*
X111856476Y-124164798D01*
X111856478Y-124164790D01*
X111915249Y-123806304D01*
X111934916Y-123443578D01*
X111934916Y-123443573D01*
X300778786Y-123443573D01*
X300778786Y-123443578D01*
X300798452Y-123806304D01*
X300857223Y-124164790D01*
X300857225Y-124164798D01*
X300954401Y-124514796D01*
X300954403Y-124514803D01*
X301088858Y-124852260D01*
X301088867Y-124852278D01*
X301259022Y-125173223D01*
X301259024Y-125173227D01*
X301462876Y-125473885D01*
X301462883Y-125473895D01*
X301594675Y-125629051D01*
X301594676Y-125629051D01*
X302839454Y-124384274D01*
X302913294Y-124485906D01*
X303091376Y-124663988D01*
X303193006Y-124737827D01*
X301945594Y-125985238D01*
X301945594Y-125985240D01*
X301961776Y-126000568D01*
X301961777Y-126000569D01*
X302250972Y-126220408D01*
X302250988Y-126220419D01*
X302562228Y-126407685D01*
X302562241Y-126407692D01*
X302891911Y-126560215D01*
X302891916Y-126560216D01*
X303236167Y-126676208D01*
X303590941Y-126754300D01*
X303952072Y-126793575D01*
X303952080Y-126793576D01*
X304315332Y-126793576D01*
X304315339Y-126793575D01*
X304676470Y-126754300D01*
X305031244Y-126676208D01*
X305375495Y-126560216D01*
X305375500Y-126560215D01*
X305705170Y-126407692D01*
X305705183Y-126407685D01*
X306016423Y-126220419D01*
X306016439Y-126220408D01*
X306305635Y-126000568D01*
X306321816Y-125985240D01*
X306321816Y-125985239D01*
X305074404Y-124737827D01*
X305176036Y-124663988D01*
X305354118Y-124485906D01*
X305427957Y-124384274D01*
X306672734Y-125629051D01*
X306672735Y-125629051D01*
X306804533Y-125473887D01*
X306804544Y-125473873D01*
X307008387Y-125173227D01*
X307008389Y-125173223D01*
X307178544Y-124852278D01*
X307178553Y-124852260D01*
X307313008Y-124514803D01*
X307313010Y-124514796D01*
X307410186Y-124164798D01*
X307410188Y-124164790D01*
X307468959Y-123806304D01*
X307488626Y-123443578D01*
X307488626Y-123443573D01*
X307468959Y-123080847D01*
X307410188Y-122722361D01*
X307410186Y-122722353D01*
X307313010Y-122372355D01*
X307313008Y-122372348D01*
X307178553Y-122034891D01*
X307178544Y-122034873D01*
X307008389Y-121713928D01*
X307008387Y-121713924D01*
X306804535Y-121413266D01*
X306804528Y-121413256D01*
X306672735Y-121258099D01*
X306672734Y-121258099D01*
X305427957Y-122502876D01*
X305354118Y-122401246D01*
X305176036Y-122223164D01*
X305074404Y-122149324D01*
X306321816Y-120901912D01*
X306321816Y-120901910D01*
X306305635Y-120886583D01*
X306305634Y-120886582D01*
X306016439Y-120666743D01*
X306016423Y-120666732D01*
X305705183Y-120479466D01*
X305705170Y-120479459D01*
X305375500Y-120326936D01*
X305375495Y-120326935D01*
X305031244Y-120210943D01*
X304676470Y-120132851D01*
X304315339Y-120093576D01*
X303952072Y-120093576D01*
X303590941Y-120132851D01*
X303236167Y-120210943D01*
X302891916Y-120326935D01*
X302891911Y-120326936D01*
X302562241Y-120479459D01*
X302562228Y-120479466D01*
X302250988Y-120666732D01*
X302250972Y-120666743D01*
X301961781Y-120886578D01*
X301945594Y-120901911D01*
X301945593Y-120901911D01*
X303193007Y-122149324D01*
X303091376Y-122223164D01*
X302913294Y-122401246D01*
X302839454Y-122502876D01*
X301594676Y-121258098D01*
X301594675Y-121258099D01*
X301462883Y-121413256D01*
X301462876Y-121413266D01*
X301259024Y-121713924D01*
X301259022Y-121713928D01*
X301088867Y-122034873D01*
X301088858Y-122034891D01*
X300954403Y-122372348D01*
X300954401Y-122372355D01*
X300857225Y-122722353D01*
X300857223Y-122722361D01*
X300798452Y-123080847D01*
X300778786Y-123443573D01*
X111934916Y-123443573D01*
X111915249Y-123080847D01*
X111856478Y-122722361D01*
X111856476Y-122722353D01*
X111759300Y-122372355D01*
X111759298Y-122372348D01*
X111624843Y-122034891D01*
X111624834Y-122034873D01*
X111454679Y-121713928D01*
X111454677Y-121713924D01*
X111250825Y-121413266D01*
X111250818Y-121413256D01*
X111119025Y-121258099D01*
X111119024Y-121258099D01*
X109874247Y-122502876D01*
X109800408Y-122401246D01*
X109622326Y-122223164D01*
X109520694Y-122149324D01*
X110768106Y-120901912D01*
X110768106Y-120901910D01*
X110751925Y-120886583D01*
X110751924Y-120886582D01*
X110462729Y-120666743D01*
X110462713Y-120666732D01*
X110151473Y-120479466D01*
X110151460Y-120479459D01*
X109821790Y-120326936D01*
X109821785Y-120326935D01*
X109477534Y-120210943D01*
X109122760Y-120132851D01*
X108761629Y-120093576D01*
X108398362Y-120093576D01*
X108037231Y-120132851D01*
X107682457Y-120210943D01*
X107338206Y-120326935D01*
X107338201Y-120326936D01*
X107008531Y-120479459D01*
X107008518Y-120479466D01*
X106697278Y-120666732D01*
X106697262Y-120666743D01*
X106408071Y-120886578D01*
X106391884Y-120901911D01*
X106391883Y-120901911D01*
X107639297Y-122149324D01*
X107537666Y-122223164D01*
X107359584Y-122401246D01*
X107285744Y-122502876D01*
X106040966Y-121258098D01*
X106040965Y-121258099D01*
X105909173Y-121413256D01*
X105909166Y-121413266D01*
X105705314Y-121713924D01*
X105705312Y-121713928D01*
X105535157Y-122034873D01*
X105535148Y-122034891D01*
X105400693Y-122372348D01*
X105400691Y-122372355D01*
X105303515Y-122722353D01*
X105303513Y-122722361D01*
X105244742Y-123080847D01*
X105225076Y-123443573D01*
X104005094Y-123443573D01*
X104004849Y-123249629D01*
X104005333Y-123238524D01*
X104040609Y-122840614D01*
X104042087Y-122829595D01*
X104054566Y-122760276D01*
X104112858Y-122436458D01*
X104115314Y-122425627D01*
X104122004Y-122401246D01*
X104221019Y-122040389D01*
X104224425Y-122029849D01*
X104364221Y-121655598D01*
X104368562Y-121645398D01*
X104541301Y-121285206D01*
X104546539Y-121275431D01*
X104750863Y-120932126D01*
X104756955Y-120922864D01*
X104991192Y-120599260D01*
X104998081Y-120590590D01*
X105260369Y-120289259D01*
X105268024Y-120281222D01*
X105556231Y-120004609D01*
X105564567Y-119997297D01*
X105876422Y-119747584D01*
X105885360Y-119741063D01*
X106218308Y-119520301D01*
X106227831Y-119514585D01*
X106579189Y-119324544D01*
X106589184Y-119319702D01*
X106956183Y-119161881D01*
X106966553Y-119157963D01*
X107346198Y-119033653D01*
X107356877Y-119030679D01*
X107746149Y-118940868D01*
X107757042Y-118938864D01*
X108152786Y-118884280D01*
X108163829Y-118883259D01*
X108494257Y-118867594D01*
X108565547Y-118864215D01*
X108571419Y-118864076D01*
X304067804Y-118864076D01*
X304130916Y-118864076D01*
X304136479Y-118864201D01*
G37*
%TD.AperFunction*%
%TD*%
M02*
