M48
; DRILL file {KiCad 8.0.5} date 2025-02-04T15:21:29-0800
; FORMAT={-:-/ absolute / inch / decimal}
; #@! TF.CreationDate,2025-02-04T15:21:29-08:00
; #@! TF.GenerationSoftware,Kicad,Pcbnew,8.0.5
; #@! TF.FileFunction,Plated,1,2,PTH
FMAT,2
INCH
; #@! TA.AperFunction,Plated,PTH,ViaDrill
T1C0.0118
; #@! TA.AperFunction,Plated,PTH,ComponentDrill
T2C0.0276
; #@! TA.AperFunction,Plated,PTH,ComponentDrill
T3C0.0315
; #@! TA.AperFunction,Plated,PTH,ComponentDrill
T4C0.0374
; #@! TA.AperFunction,Plated,PTH,ComponentDrill
T5C0.1260
%
G90
G05
T1
X4.4449Y-4.7657
X4.937Y-4.9016
X5.2756Y-5.5945
X5.2815Y-5.5276
X5.2815Y-5.6693
X5.5335Y-4.7638
X5.5748Y-6.5689
X5.5768Y-5.0276
X5.6949Y-5.7382
X5.7106Y-5.3366
X5.9173Y-6.3406
X5.9193Y-6.5059
X5.9193Y-6.6142
X5.9646Y-5.3386
X5.9646Y-6.3406
X5.9646Y-6.5059
X5.9764Y-4.9547
X5.9813Y-5.0285
X6.0138Y-6.0138
X6.0256Y-5.6555
X6.0787Y-5.8701
X6.0906Y-5.1142
X6.1496Y-5.7461
X6.1634Y-5.0748
X6.185Y-6.4508
X6.2382Y-5.9232
X6.2913Y-4.7677
X6.2972Y-5.5925
X6.3012Y-5.6457
X6.3091Y-5.3425
X6.3091Y-5.4764
X6.311Y-5.4094
X6.3661Y-5.5354
X6.4035Y-5.7461
X6.4075Y-6.4528
X6.435Y-5.5374
X6.4587Y-5.7539
X6.5039Y-5.2461
X6.5039Y-5.5394
X6.5118Y-4.9823
X6.5531Y-5.2835
X6.5531Y-5.5827
X6.5551Y-5.1791
X6.563Y-5.4783
X6.565Y-5.3406
X6.565Y-5.4154
X6.5669Y-5.7421
X6.5846Y-5.2165
X6.5866Y-5.9252
X6.6004Y-6.2677
X6.628Y-5.6417
X6.7047Y-5.7913
X6.7165Y-6.0
X6.7224Y-4.9587
X6.7717Y-5.1339
X6.7795Y-5.689
X6.7854Y-5.5098
X6.7972Y-5.2461
X6.8366Y-5.2854
X6.8445Y-5.1791
X6.8996Y-5.2146
X7.0492Y-4.7638
X7.2992Y-6.0394
X7.4705Y-4.9665
X7.7736Y-4.7638
X8.2992Y-4.8957
X8.5354Y-4.7638
X8.9685Y-4.9606
X9.2874Y-4.7638
X9.7224Y-4.9646
X10.0413Y-4.7677
X10.4724Y-4.9685
X11.2815Y-4.7657
X11.7185Y-4.9547
T2
X5.1378Y-5.2244
X5.1378Y-5.2744
X5.1407Y-5.012
X5.1407Y-5.062
X5.2106Y-5.4439
X5.2106Y-5.6348
X5.5787Y-5.2728
X5.5787Y-5.3228
X6.2138Y-5.811
X6.2638Y-5.811
T3
X5.6634Y-6.6969
X5.6634Y-6.7953
T4
X5.3351Y-6.035
X5.3351Y-6.135
X5.3351Y-6.235
X5.3351Y-6.335
T5
X4.2748Y-4.86
X5.3346Y-6.7795
X7.0157Y-5.0039
X8.6555Y-5.1122
X8.6967Y-6.1065
X11.9738Y-4.86
T2
G00X5.122Y-5.3976
M15
G01X5.0906Y-5.3976
M16
G05
G00X5.122Y-5.6811
M15
G01X5.0906Y-5.6811
M16
G05
M30
