%TF.GenerationSoftware,KiCad,Pcbnew,8.0.5*%
%TF.CreationDate,2025-02-04T15:21:29-08:00*%
%TF.ProjectId,MM36-Dash,4d4d3336-2d44-4617-9368-2e6b69636164,rev?*%
%TF.SameCoordinates,Original*%
%TF.FileFunction,Profile,NP*%
%FSLAX46Y46*%
G04 Gerber Fmt 4.6, Leading zero omitted, Abs format (unit mm)*
G04 Created by KiCad (PCBNEW 8.0.5) date 2025-02-04 15:21:29*
%MOMM*%
%LPD*%
G01*
G04 APERTURE LIST*
%TA.AperFunction,Profile*%
%ADD10C,0.250000*%
%TD*%
%ADD11C,0.250000*%
G04 APERTURE END LIST*
D10*
X235703976Y-128523576D02*
X304133696Y-128523576D01*
X220941864Y-139026582D02*
G75*
G02*
X235703976Y-128523628I14747436J-5102118D01*
G01*
X224197694Y-151348599D02*
G75*
G02*
X220941887Y-139026590I7546006J8584999D01*
G01*
X187928706Y-142763576D02*
G75*
G02*
X173958706Y-142763576I-6985000J0D01*
G01*
X173958706Y-142763576D02*
G75*
G02*
X187928706Y-142763576I6985000J0D01*
G01*
X127603706Y-137413576D02*
X127603706Y-170106676D01*
X127603696Y-137413576D02*
X127603706Y-137413576D01*
X304133696Y-118363576D02*
X108567147Y-118363576D01*
X154466197Y-171994422D02*
G75*
G02*
X138357685Y-178799042I-25894497J38830722D01*
G01*
X138357688Y-178799058D02*
G75*
G02*
X127603732Y-170106676I-1863988J8692358D01*
G01*
X108579996Y-128523576D02*
X118713696Y-128523576D01*
X118713696Y-128523576D02*
G75*
G02*
X127603724Y-137413576I4J-8890024D01*
G01*
D11*
X154466197Y-171994422D02*
X156210482Y-170873871D01*
X157993094Y-169811579D01*
X159812228Y-168806544D01*
X161666077Y-167857767D01*
X163552836Y-166964247D01*
X165470700Y-166124985D01*
X167417863Y-165338981D01*
X169392520Y-164605235D01*
X171392865Y-163922746D01*
X173417094Y-163290516D01*
X175463400Y-162707543D01*
X177529978Y-162172828D01*
X179615023Y-161685372D01*
X181716729Y-161244174D01*
X183833291Y-160848233D01*
X185962903Y-160496551D01*
X188103761Y-160188127D01*
X190254057Y-159921962D01*
X192411988Y-159697055D01*
X194575748Y-159512406D01*
X196743530Y-159367016D01*
X198913531Y-159259884D01*
X201083943Y-159190011D01*
X203252963Y-159156397D01*
X205418784Y-159158041D01*
X207579601Y-159193943D01*
X209733608Y-159263105D01*
X211879001Y-159364525D01*
X214013973Y-159497204D01*
X216136719Y-159660142D01*
X218245435Y-159852339D01*
X220338314Y-160072796D01*
D10*
X304133696Y-118363576D02*
G75*
G02*
X304133696Y-128523624I4J-5080024D01*
G01*
X108579996Y-128523576D02*
G75*
G02*
X108567147Y-118363580I4J5080006D01*
G01*
X224197694Y-151348599D02*
G75*
G02*
X220338315Y-160072790I-3300974J-3755471D01*
G01*
M02*
