%TF.GenerationSoftware,KiCad,Pcbnew,8.0.5*%
%TF.CreationDate,2025-02-04T15:21:29-08:00*%
%TF.ProjectId,MM36-Dash,4d4d3336-2d44-4617-9368-2e6b69636164,rev?*%
%TF.SameCoordinates,Original*%
%TF.FileFunction,Legend,Bot*%
%TF.FilePolarity,Positive*%
%FSLAX46Y46*%
G04 Gerber Fmt 4.6, Leading zero omitted, Abs format (unit mm)*
G04 Created by KiCad (PCBNEW 8.0.5) date 2025-02-04 15:21:29*
%MOMM*%
%LPD*%
G01*
G04 APERTURE LIST*
%ADD10C,0.200000*%
%ADD11C,0.254000*%
%ADD12C,0.000000*%
%ADD13C,0.100000*%
%ADD14R,1.000000X1.000000*%
%ADD15O,1.000000X1.000000*%
%ADD16C,1.600000*%
%ADD17R,1.600000X1.600000*%
%ADD18C,1.200000*%
%ADD19O,2.200000X1.300000*%
%ADD20C,5.700000*%
%ADD21C,3.600000*%
%ADD22C,2.500000*%
%ADD23C,1.650000*%
%ADD24R,1.478000X1.478000*%
%ADD25C,1.478000*%
G04 APERTURE END LIST*
D10*
X146630326Y-167486266D02*
X145868422Y-167486266D01*
X146249374Y-167867219D02*
X146249374Y-167105314D01*
X214430326Y-154117219D02*
X214430326Y-153117219D01*
X213192231Y-154117219D02*
X213192231Y-153117219D01*
X213192231Y-153593409D02*
X212620803Y-153593409D01*
X212620803Y-154117219D02*
X212620803Y-153117219D01*
X211954136Y-153117219D02*
X211763660Y-153117219D01*
X211763660Y-153117219D02*
X211668422Y-153164838D01*
X211668422Y-153164838D02*
X211573184Y-153260076D01*
X211573184Y-153260076D02*
X211525565Y-153450552D01*
X211525565Y-153450552D02*
X211525565Y-153783885D01*
X211525565Y-153783885D02*
X211573184Y-153974361D01*
X211573184Y-153974361D02*
X211668422Y-154069600D01*
X211668422Y-154069600D02*
X211763660Y-154117219D01*
X211763660Y-154117219D02*
X211954136Y-154117219D01*
X211954136Y-154117219D02*
X212049374Y-154069600D01*
X212049374Y-154069600D02*
X212144612Y-153974361D01*
X212144612Y-153974361D02*
X212192231Y-153783885D01*
X212192231Y-153783885D02*
X212192231Y-153450552D01*
X212192231Y-153450552D02*
X212144612Y-153260076D01*
X212144612Y-153260076D02*
X212049374Y-153164838D01*
X212049374Y-153164838D02*
X211954136Y-153117219D01*
X211096993Y-154117219D02*
X211096993Y-153117219D01*
X211096993Y-153117219D02*
X210716041Y-153117219D01*
X210716041Y-153117219D02*
X210620803Y-153164838D01*
X210620803Y-153164838D02*
X210573184Y-153212457D01*
X210573184Y-153212457D02*
X210525565Y-153307695D01*
X210525565Y-153307695D02*
X210525565Y-153450552D01*
X210525565Y-153450552D02*
X210573184Y-153545790D01*
X210573184Y-153545790D02*
X210620803Y-153593409D01*
X210620803Y-153593409D02*
X210716041Y-153641028D01*
X210716041Y-153641028D02*
X211096993Y-153641028D01*
X210096993Y-153593409D02*
X209763660Y-153593409D01*
X209620803Y-154117219D02*
X210096993Y-154117219D01*
X210096993Y-154117219D02*
X210096993Y-153117219D01*
X210096993Y-153117219D02*
X209620803Y-153117219D01*
X208573183Y-153117219D02*
X208001755Y-153117219D01*
X208287469Y-154117219D02*
X208287469Y-153117219D01*
X207668421Y-154117219D02*
X207668421Y-153117219D01*
X207668421Y-153593409D02*
X207096993Y-153593409D01*
X207096993Y-154117219D02*
X207096993Y-153117219D01*
X206620802Y-154117219D02*
X206620802Y-153117219D01*
X206192231Y-154069600D02*
X206049374Y-154117219D01*
X206049374Y-154117219D02*
X205811279Y-154117219D01*
X205811279Y-154117219D02*
X205716041Y-154069600D01*
X205716041Y-154069600D02*
X205668422Y-154021980D01*
X205668422Y-154021980D02*
X205620803Y-153926742D01*
X205620803Y-153926742D02*
X205620803Y-153831504D01*
X205620803Y-153831504D02*
X205668422Y-153736266D01*
X205668422Y-153736266D02*
X205716041Y-153688647D01*
X205716041Y-153688647D02*
X205811279Y-153641028D01*
X205811279Y-153641028D02*
X206001755Y-153593409D01*
X206001755Y-153593409D02*
X206096993Y-153545790D01*
X206096993Y-153545790D02*
X206144612Y-153498171D01*
X206144612Y-153498171D02*
X206192231Y-153402933D01*
X206192231Y-153402933D02*
X206192231Y-153307695D01*
X206192231Y-153307695D02*
X206144612Y-153212457D01*
X206144612Y-153212457D02*
X206096993Y-153164838D01*
X206096993Y-153164838D02*
X206001755Y-153117219D01*
X206001755Y-153117219D02*
X205763660Y-153117219D01*
X205763660Y-153117219D02*
X205620803Y-153164838D01*
X204573183Y-153117219D02*
X204001755Y-153117219D01*
X204287469Y-154117219D02*
X204287469Y-153117219D01*
X203668421Y-154117219D02*
X203668421Y-153117219D01*
X203668421Y-153593409D02*
X203096993Y-153593409D01*
X203096993Y-154117219D02*
X203096993Y-153117219D01*
X202620802Y-154117219D02*
X202620802Y-153117219D01*
X202144612Y-154117219D02*
X202144612Y-153117219D01*
X202144612Y-153117219D02*
X201573184Y-154117219D01*
X201573184Y-154117219D02*
X201573184Y-153117219D01*
X200573184Y-153164838D02*
X200668422Y-153117219D01*
X200668422Y-153117219D02*
X200811279Y-153117219D01*
X200811279Y-153117219D02*
X200954136Y-153164838D01*
X200954136Y-153164838D02*
X201049374Y-153260076D01*
X201049374Y-153260076D02*
X201096993Y-153355314D01*
X201096993Y-153355314D02*
X201144612Y-153545790D01*
X201144612Y-153545790D02*
X201144612Y-153688647D01*
X201144612Y-153688647D02*
X201096993Y-153879123D01*
X201096993Y-153879123D02*
X201049374Y-153974361D01*
X201049374Y-153974361D02*
X200954136Y-154069600D01*
X200954136Y-154069600D02*
X200811279Y-154117219D01*
X200811279Y-154117219D02*
X200716041Y-154117219D01*
X200716041Y-154117219D02*
X200573184Y-154069600D01*
X200573184Y-154069600D02*
X200525565Y-154021980D01*
X200525565Y-154021980D02*
X200525565Y-153688647D01*
X200525565Y-153688647D02*
X200716041Y-153688647D01*
X199430326Y-153117219D02*
X199192231Y-154117219D01*
X199192231Y-154117219D02*
X199001755Y-153402933D01*
X199001755Y-153402933D02*
X198811279Y-154117219D01*
X198811279Y-154117219D02*
X198573184Y-153117219D01*
X198001755Y-153117219D02*
X197811279Y-153117219D01*
X197811279Y-153117219D02*
X197716041Y-153164838D01*
X197716041Y-153164838D02*
X197620803Y-153260076D01*
X197620803Y-153260076D02*
X197573184Y-153450552D01*
X197573184Y-153450552D02*
X197573184Y-153783885D01*
X197573184Y-153783885D02*
X197620803Y-153974361D01*
X197620803Y-153974361D02*
X197716041Y-154069600D01*
X197716041Y-154069600D02*
X197811279Y-154117219D01*
X197811279Y-154117219D02*
X198001755Y-154117219D01*
X198001755Y-154117219D02*
X198096993Y-154069600D01*
X198096993Y-154069600D02*
X198192231Y-153974361D01*
X198192231Y-153974361D02*
X198239850Y-153783885D01*
X198239850Y-153783885D02*
X198239850Y-153450552D01*
X198239850Y-153450552D02*
X198192231Y-153260076D01*
X198192231Y-153260076D02*
X198096993Y-153164838D01*
X198096993Y-153164838D02*
X198001755Y-153117219D01*
X196573184Y-154117219D02*
X196906517Y-153641028D01*
X197144612Y-154117219D02*
X197144612Y-153117219D01*
X197144612Y-153117219D02*
X196763660Y-153117219D01*
X196763660Y-153117219D02*
X196668422Y-153164838D01*
X196668422Y-153164838D02*
X196620803Y-153212457D01*
X196620803Y-153212457D02*
X196573184Y-153307695D01*
X196573184Y-153307695D02*
X196573184Y-153450552D01*
X196573184Y-153450552D02*
X196620803Y-153545790D01*
X196620803Y-153545790D02*
X196668422Y-153593409D01*
X196668422Y-153593409D02*
X196763660Y-153641028D01*
X196763660Y-153641028D02*
X197144612Y-153641028D01*
X196144612Y-154117219D02*
X196144612Y-153117219D01*
X195573184Y-154117219D02*
X196001755Y-153545790D01*
X195573184Y-153117219D02*
X196144612Y-153688647D01*
X195192231Y-154069600D02*
X195049374Y-154117219D01*
X195049374Y-154117219D02*
X194811279Y-154117219D01*
X194811279Y-154117219D02*
X194716041Y-154069600D01*
X194716041Y-154069600D02*
X194668422Y-154021980D01*
X194668422Y-154021980D02*
X194620803Y-153926742D01*
X194620803Y-153926742D02*
X194620803Y-153831504D01*
X194620803Y-153831504D02*
X194668422Y-153736266D01*
X194668422Y-153736266D02*
X194716041Y-153688647D01*
X194716041Y-153688647D02*
X194811279Y-153641028D01*
X194811279Y-153641028D02*
X195001755Y-153593409D01*
X195001755Y-153593409D02*
X195096993Y-153545790D01*
X195096993Y-153545790D02*
X195144612Y-153498171D01*
X195144612Y-153498171D02*
X195192231Y-153402933D01*
X195192231Y-153402933D02*
X195192231Y-153307695D01*
X195192231Y-153307695D02*
X195144612Y-153212457D01*
X195144612Y-153212457D02*
X195096993Y-153164838D01*
X195096993Y-153164838D02*
X195001755Y-153117219D01*
X195001755Y-153117219D02*
X194763660Y-153117219D01*
X194763660Y-153117219D02*
X194620803Y-153164838D01*
X214430326Y-152367219D02*
X214430326Y-151367219D01*
X214430326Y-151367219D02*
X214192231Y-151367219D01*
X214192231Y-151367219D02*
X214049374Y-151414838D01*
X214049374Y-151414838D02*
X213954136Y-151510076D01*
X213954136Y-151510076D02*
X213906517Y-151605314D01*
X213906517Y-151605314D02*
X213858898Y-151795790D01*
X213858898Y-151795790D02*
X213858898Y-151938647D01*
X213858898Y-151938647D02*
X213906517Y-152129123D01*
X213906517Y-152129123D02*
X213954136Y-152224361D01*
X213954136Y-152224361D02*
X214049374Y-152319600D01*
X214049374Y-152319600D02*
X214192231Y-152367219D01*
X214192231Y-152367219D02*
X214430326Y-152367219D01*
X213477945Y-152081504D02*
X213001755Y-152081504D01*
X213573183Y-152367219D02*
X213239850Y-151367219D01*
X213239850Y-151367219D02*
X212906517Y-152367219D01*
X212620802Y-152319600D02*
X212477945Y-152367219D01*
X212477945Y-152367219D02*
X212239850Y-152367219D01*
X212239850Y-152367219D02*
X212144612Y-152319600D01*
X212144612Y-152319600D02*
X212096993Y-152271980D01*
X212096993Y-152271980D02*
X212049374Y-152176742D01*
X212049374Y-152176742D02*
X212049374Y-152081504D01*
X212049374Y-152081504D02*
X212096993Y-151986266D01*
X212096993Y-151986266D02*
X212144612Y-151938647D01*
X212144612Y-151938647D02*
X212239850Y-151891028D01*
X212239850Y-151891028D02*
X212430326Y-151843409D01*
X212430326Y-151843409D02*
X212525564Y-151795790D01*
X212525564Y-151795790D02*
X212573183Y-151748171D01*
X212573183Y-151748171D02*
X212620802Y-151652933D01*
X212620802Y-151652933D02*
X212620802Y-151557695D01*
X212620802Y-151557695D02*
X212573183Y-151462457D01*
X212573183Y-151462457D02*
X212525564Y-151414838D01*
X212525564Y-151414838D02*
X212430326Y-151367219D01*
X212430326Y-151367219D02*
X212192231Y-151367219D01*
X212192231Y-151367219D02*
X212049374Y-151414838D01*
X211620802Y-152367219D02*
X211620802Y-151367219D01*
X211620802Y-151843409D02*
X211049374Y-151843409D01*
X211049374Y-152367219D02*
X211049374Y-151367219D01*
X209239850Y-152271980D02*
X209287469Y-152319600D01*
X209287469Y-152319600D02*
X209430326Y-152367219D01*
X209430326Y-152367219D02*
X209525564Y-152367219D01*
X209525564Y-152367219D02*
X209668421Y-152319600D01*
X209668421Y-152319600D02*
X209763659Y-152224361D01*
X209763659Y-152224361D02*
X209811278Y-152129123D01*
X209811278Y-152129123D02*
X209858897Y-151938647D01*
X209858897Y-151938647D02*
X209858897Y-151795790D01*
X209858897Y-151795790D02*
X209811278Y-151605314D01*
X209811278Y-151605314D02*
X209763659Y-151510076D01*
X209763659Y-151510076D02*
X209668421Y-151414838D01*
X209668421Y-151414838D02*
X209525564Y-151367219D01*
X209525564Y-151367219D02*
X209430326Y-151367219D01*
X209430326Y-151367219D02*
X209287469Y-151414838D01*
X209287469Y-151414838D02*
X209239850Y-151462457D01*
X208620802Y-151367219D02*
X208430326Y-151367219D01*
X208430326Y-151367219D02*
X208335088Y-151414838D01*
X208335088Y-151414838D02*
X208239850Y-151510076D01*
X208239850Y-151510076D02*
X208192231Y-151700552D01*
X208192231Y-151700552D02*
X208192231Y-152033885D01*
X208192231Y-152033885D02*
X208239850Y-152224361D01*
X208239850Y-152224361D02*
X208335088Y-152319600D01*
X208335088Y-152319600D02*
X208430326Y-152367219D01*
X208430326Y-152367219D02*
X208620802Y-152367219D01*
X208620802Y-152367219D02*
X208716040Y-152319600D01*
X208716040Y-152319600D02*
X208811278Y-152224361D01*
X208811278Y-152224361D02*
X208858897Y-152033885D01*
X208858897Y-152033885D02*
X208858897Y-151700552D01*
X208858897Y-151700552D02*
X208811278Y-151510076D01*
X208811278Y-151510076D02*
X208716040Y-151414838D01*
X208716040Y-151414838D02*
X208620802Y-151367219D01*
X207763659Y-152367219D02*
X207763659Y-151367219D01*
X207763659Y-151367219D02*
X207192231Y-152367219D01*
X207192231Y-152367219D02*
X207192231Y-151367219D01*
X206858897Y-151367219D02*
X206287469Y-151367219D01*
X206573183Y-152367219D02*
X206573183Y-151367219D01*
X205382707Y-152367219D02*
X205716040Y-151891028D01*
X205954135Y-152367219D02*
X205954135Y-151367219D01*
X205954135Y-151367219D02*
X205573183Y-151367219D01*
X205573183Y-151367219D02*
X205477945Y-151414838D01*
X205477945Y-151414838D02*
X205430326Y-151462457D01*
X205430326Y-151462457D02*
X205382707Y-151557695D01*
X205382707Y-151557695D02*
X205382707Y-151700552D01*
X205382707Y-151700552D02*
X205430326Y-151795790D01*
X205430326Y-151795790D02*
X205477945Y-151843409D01*
X205477945Y-151843409D02*
X205573183Y-151891028D01*
X205573183Y-151891028D02*
X205954135Y-151891028D01*
X204763659Y-151367219D02*
X204573183Y-151367219D01*
X204573183Y-151367219D02*
X204477945Y-151414838D01*
X204477945Y-151414838D02*
X204382707Y-151510076D01*
X204382707Y-151510076D02*
X204335088Y-151700552D01*
X204335088Y-151700552D02*
X204335088Y-152033885D01*
X204335088Y-152033885D02*
X204382707Y-152224361D01*
X204382707Y-152224361D02*
X204477945Y-152319600D01*
X204477945Y-152319600D02*
X204573183Y-152367219D01*
X204573183Y-152367219D02*
X204763659Y-152367219D01*
X204763659Y-152367219D02*
X204858897Y-152319600D01*
X204858897Y-152319600D02*
X204954135Y-152224361D01*
X204954135Y-152224361D02*
X205001754Y-152033885D01*
X205001754Y-152033885D02*
X205001754Y-151700552D01*
X205001754Y-151700552D02*
X204954135Y-151510076D01*
X204954135Y-151510076D02*
X204858897Y-151414838D01*
X204858897Y-151414838D02*
X204763659Y-151367219D01*
X203430326Y-152367219D02*
X203906516Y-152367219D01*
X203906516Y-152367219D02*
X203906516Y-151367219D01*
X202001754Y-151843409D02*
X201858897Y-151891028D01*
X201858897Y-151891028D02*
X201811278Y-151938647D01*
X201811278Y-151938647D02*
X201763659Y-152033885D01*
X201763659Y-152033885D02*
X201763659Y-152176742D01*
X201763659Y-152176742D02*
X201811278Y-152271980D01*
X201811278Y-152271980D02*
X201858897Y-152319600D01*
X201858897Y-152319600D02*
X201954135Y-152367219D01*
X201954135Y-152367219D02*
X202335087Y-152367219D01*
X202335087Y-152367219D02*
X202335087Y-151367219D01*
X202335087Y-151367219D02*
X202001754Y-151367219D01*
X202001754Y-151367219D02*
X201906516Y-151414838D01*
X201906516Y-151414838D02*
X201858897Y-151462457D01*
X201858897Y-151462457D02*
X201811278Y-151557695D01*
X201811278Y-151557695D02*
X201811278Y-151652933D01*
X201811278Y-151652933D02*
X201858897Y-151748171D01*
X201858897Y-151748171D02*
X201906516Y-151795790D01*
X201906516Y-151795790D02*
X202001754Y-151843409D01*
X202001754Y-151843409D02*
X202335087Y-151843409D01*
X201144611Y-151367219D02*
X200954135Y-151367219D01*
X200954135Y-151367219D02*
X200858897Y-151414838D01*
X200858897Y-151414838D02*
X200763659Y-151510076D01*
X200763659Y-151510076D02*
X200716040Y-151700552D01*
X200716040Y-151700552D02*
X200716040Y-152033885D01*
X200716040Y-152033885D02*
X200763659Y-152224361D01*
X200763659Y-152224361D02*
X200858897Y-152319600D01*
X200858897Y-152319600D02*
X200954135Y-152367219D01*
X200954135Y-152367219D02*
X201144611Y-152367219D01*
X201144611Y-152367219D02*
X201239849Y-152319600D01*
X201239849Y-152319600D02*
X201335087Y-152224361D01*
X201335087Y-152224361D02*
X201382706Y-152033885D01*
X201382706Y-152033885D02*
X201382706Y-151700552D01*
X201382706Y-151700552D02*
X201335087Y-151510076D01*
X201335087Y-151510076D02*
X201239849Y-151414838D01*
X201239849Y-151414838D02*
X201144611Y-151367219D01*
X200335087Y-152081504D02*
X199858897Y-152081504D01*
X200430325Y-152367219D02*
X200096992Y-151367219D01*
X200096992Y-151367219D02*
X199763659Y-152367219D01*
X198858897Y-152367219D02*
X199192230Y-151891028D01*
X199430325Y-152367219D02*
X199430325Y-151367219D01*
X199430325Y-151367219D02*
X199049373Y-151367219D01*
X199049373Y-151367219D02*
X198954135Y-151414838D01*
X198954135Y-151414838D02*
X198906516Y-151462457D01*
X198906516Y-151462457D02*
X198858897Y-151557695D01*
X198858897Y-151557695D02*
X198858897Y-151700552D01*
X198858897Y-151700552D02*
X198906516Y-151795790D01*
X198906516Y-151795790D02*
X198954135Y-151843409D01*
X198954135Y-151843409D02*
X199049373Y-151891028D01*
X199049373Y-151891028D02*
X199430325Y-151891028D01*
X198430325Y-152367219D02*
X198430325Y-151367219D01*
X198430325Y-151367219D02*
X198192230Y-151367219D01*
X198192230Y-151367219D02*
X198049373Y-151414838D01*
X198049373Y-151414838D02*
X197954135Y-151510076D01*
X197954135Y-151510076D02*
X197906516Y-151605314D01*
X197906516Y-151605314D02*
X197858897Y-151795790D01*
X197858897Y-151795790D02*
X197858897Y-151938647D01*
X197858897Y-151938647D02*
X197906516Y-152129123D01*
X197906516Y-152129123D02*
X197954135Y-152224361D01*
X197954135Y-152224361D02*
X198049373Y-152319600D01*
X198049373Y-152319600D02*
X198192230Y-152367219D01*
X198192230Y-152367219D02*
X198430325Y-152367219D01*
X196811277Y-151367219D02*
X196477944Y-152367219D01*
X196477944Y-152367219D02*
X196144611Y-151367219D01*
X195287468Y-152367219D02*
X195858896Y-152367219D01*
X195573182Y-152367219D02*
X195573182Y-151367219D01*
X195573182Y-151367219D02*
X195668420Y-151510076D01*
X195668420Y-151510076D02*
X195763658Y-151605314D01*
X195763658Y-151605314D02*
X195858896Y-151652933D01*
X194858896Y-152271980D02*
X194811277Y-152319600D01*
X194811277Y-152319600D02*
X194858896Y-152367219D01*
X194858896Y-152367219D02*
X194906515Y-152319600D01*
X194906515Y-152319600D02*
X194858896Y-152271980D01*
X194858896Y-152271980D02*
X194858896Y-152367219D01*
X194192230Y-151367219D02*
X194096992Y-151367219D01*
X194096992Y-151367219D02*
X194001754Y-151414838D01*
X194001754Y-151414838D02*
X193954135Y-151462457D01*
X193954135Y-151462457D02*
X193906516Y-151557695D01*
X193906516Y-151557695D02*
X193858897Y-151748171D01*
X193858897Y-151748171D02*
X193858897Y-151986266D01*
X193858897Y-151986266D02*
X193906516Y-152176742D01*
X193906516Y-152176742D02*
X193954135Y-152271980D01*
X193954135Y-152271980D02*
X194001754Y-152319600D01*
X194001754Y-152319600D02*
X194096992Y-152367219D01*
X194096992Y-152367219D02*
X194192230Y-152367219D01*
X194192230Y-152367219D02*
X194287468Y-152319600D01*
X194287468Y-152319600D02*
X194335087Y-152271980D01*
X194335087Y-152271980D02*
X194382706Y-152176742D01*
X194382706Y-152176742D02*
X194430325Y-151986266D01*
X194430325Y-151986266D02*
X194430325Y-151748171D01*
X194430325Y-151748171D02*
X194382706Y-151557695D01*
X194382706Y-151557695D02*
X194335087Y-151462457D01*
X194335087Y-151462457D02*
X194287468Y-151414838D01*
X194287468Y-151414838D02*
X194192230Y-151367219D01*
X214380326Y-149117219D02*
X214380326Y-148117219D01*
X214380326Y-148117219D02*
X214046993Y-148831504D01*
X214046993Y-148831504D02*
X213713660Y-148117219D01*
X213713660Y-148117219D02*
X213713660Y-149117219D01*
X213237469Y-149117219D02*
X213237469Y-148117219D01*
X213237469Y-148117219D02*
X212904136Y-148831504D01*
X212904136Y-148831504D02*
X212570803Y-148117219D01*
X212570803Y-148117219D02*
X212570803Y-149117219D01*
X212189850Y-148117219D02*
X211570803Y-148117219D01*
X211570803Y-148117219D02*
X211904136Y-148498171D01*
X211904136Y-148498171D02*
X211761279Y-148498171D01*
X211761279Y-148498171D02*
X211666041Y-148545790D01*
X211666041Y-148545790D02*
X211618422Y-148593409D01*
X211618422Y-148593409D02*
X211570803Y-148688647D01*
X211570803Y-148688647D02*
X211570803Y-148926742D01*
X211570803Y-148926742D02*
X211618422Y-149021980D01*
X211618422Y-149021980D02*
X211666041Y-149069600D01*
X211666041Y-149069600D02*
X211761279Y-149117219D01*
X211761279Y-149117219D02*
X212046993Y-149117219D01*
X212046993Y-149117219D02*
X212142231Y-149069600D01*
X212142231Y-149069600D02*
X212189850Y-149021980D01*
X210713660Y-148117219D02*
X210904136Y-148117219D01*
X210904136Y-148117219D02*
X210999374Y-148164838D01*
X210999374Y-148164838D02*
X211046993Y-148212457D01*
X211046993Y-148212457D02*
X211142231Y-148355314D01*
X211142231Y-148355314D02*
X211189850Y-148545790D01*
X211189850Y-148545790D02*
X211189850Y-148926742D01*
X211189850Y-148926742D02*
X211142231Y-149021980D01*
X211142231Y-149021980D02*
X211094612Y-149069600D01*
X211094612Y-149069600D02*
X210999374Y-149117219D01*
X210999374Y-149117219D02*
X210808898Y-149117219D01*
X210808898Y-149117219D02*
X210713660Y-149069600D01*
X210713660Y-149069600D02*
X210666041Y-149021980D01*
X210666041Y-149021980D02*
X210618422Y-148926742D01*
X210618422Y-148926742D02*
X210618422Y-148688647D01*
X210618422Y-148688647D02*
X210666041Y-148593409D01*
X210666041Y-148593409D02*
X210713660Y-148545790D01*
X210713660Y-148545790D02*
X210808898Y-148498171D01*
X210808898Y-148498171D02*
X210999374Y-148498171D01*
X210999374Y-148498171D02*
X211094612Y-148545790D01*
X211094612Y-148545790D02*
X211142231Y-148593409D01*
X211142231Y-148593409D02*
X211189850Y-148688647D01*
X209475564Y-148212457D02*
X209427945Y-148164838D01*
X209427945Y-148164838D02*
X209332707Y-148117219D01*
X209332707Y-148117219D02*
X209094612Y-148117219D01*
X209094612Y-148117219D02*
X208999374Y-148164838D01*
X208999374Y-148164838D02*
X208951755Y-148212457D01*
X208951755Y-148212457D02*
X208904136Y-148307695D01*
X208904136Y-148307695D02*
X208904136Y-148402933D01*
X208904136Y-148402933D02*
X208951755Y-148545790D01*
X208951755Y-148545790D02*
X209523183Y-149117219D01*
X209523183Y-149117219D02*
X208904136Y-149117219D01*
X208285088Y-148117219D02*
X208189850Y-148117219D01*
X208189850Y-148117219D02*
X208094612Y-148164838D01*
X208094612Y-148164838D02*
X208046993Y-148212457D01*
X208046993Y-148212457D02*
X207999374Y-148307695D01*
X207999374Y-148307695D02*
X207951755Y-148498171D01*
X207951755Y-148498171D02*
X207951755Y-148736266D01*
X207951755Y-148736266D02*
X207999374Y-148926742D01*
X207999374Y-148926742D02*
X208046993Y-149021980D01*
X208046993Y-149021980D02*
X208094612Y-149069600D01*
X208094612Y-149069600D02*
X208189850Y-149117219D01*
X208189850Y-149117219D02*
X208285088Y-149117219D01*
X208285088Y-149117219D02*
X208380326Y-149069600D01*
X208380326Y-149069600D02*
X208427945Y-149021980D01*
X208427945Y-149021980D02*
X208475564Y-148926742D01*
X208475564Y-148926742D02*
X208523183Y-148736266D01*
X208523183Y-148736266D02*
X208523183Y-148498171D01*
X208523183Y-148498171D02*
X208475564Y-148307695D01*
X208475564Y-148307695D02*
X208427945Y-148212457D01*
X208427945Y-148212457D02*
X208380326Y-148164838D01*
X208380326Y-148164838D02*
X208285088Y-148117219D01*
X207570802Y-148212457D02*
X207523183Y-148164838D01*
X207523183Y-148164838D02*
X207427945Y-148117219D01*
X207427945Y-148117219D02*
X207189850Y-148117219D01*
X207189850Y-148117219D02*
X207094612Y-148164838D01*
X207094612Y-148164838D02*
X207046993Y-148212457D01*
X207046993Y-148212457D02*
X206999374Y-148307695D01*
X206999374Y-148307695D02*
X206999374Y-148402933D01*
X206999374Y-148402933D02*
X207046993Y-148545790D01*
X207046993Y-148545790D02*
X207618421Y-149117219D01*
X207618421Y-149117219D02*
X206999374Y-149117219D01*
X206142231Y-148450552D02*
X206142231Y-149117219D01*
X206380326Y-148069600D02*
X206618421Y-148783885D01*
X206618421Y-148783885D02*
X205999374Y-148783885D01*
X205618421Y-148736266D02*
X204856517Y-148736266D01*
X204427945Y-148212457D02*
X204380326Y-148164838D01*
X204380326Y-148164838D02*
X204285088Y-148117219D01*
X204285088Y-148117219D02*
X204046993Y-148117219D01*
X204046993Y-148117219D02*
X203951755Y-148164838D01*
X203951755Y-148164838D02*
X203904136Y-148212457D01*
X203904136Y-148212457D02*
X203856517Y-148307695D01*
X203856517Y-148307695D02*
X203856517Y-148402933D01*
X203856517Y-148402933D02*
X203904136Y-148545790D01*
X203904136Y-148545790D02*
X204475564Y-149117219D01*
X204475564Y-149117219D02*
X203856517Y-149117219D01*
X203237469Y-148117219D02*
X203142231Y-148117219D01*
X203142231Y-148117219D02*
X203046993Y-148164838D01*
X203046993Y-148164838D02*
X202999374Y-148212457D01*
X202999374Y-148212457D02*
X202951755Y-148307695D01*
X202951755Y-148307695D02*
X202904136Y-148498171D01*
X202904136Y-148498171D02*
X202904136Y-148736266D01*
X202904136Y-148736266D02*
X202951755Y-148926742D01*
X202951755Y-148926742D02*
X202999374Y-149021980D01*
X202999374Y-149021980D02*
X203046993Y-149069600D01*
X203046993Y-149069600D02*
X203142231Y-149117219D01*
X203142231Y-149117219D02*
X203237469Y-149117219D01*
X203237469Y-149117219D02*
X203332707Y-149069600D01*
X203332707Y-149069600D02*
X203380326Y-149021980D01*
X203380326Y-149021980D02*
X203427945Y-148926742D01*
X203427945Y-148926742D02*
X203475564Y-148736266D01*
X203475564Y-148736266D02*
X203475564Y-148498171D01*
X203475564Y-148498171D02*
X203427945Y-148307695D01*
X203427945Y-148307695D02*
X203380326Y-148212457D01*
X203380326Y-148212457D02*
X203332707Y-148164838D01*
X203332707Y-148164838D02*
X203237469Y-148117219D01*
X202523183Y-148212457D02*
X202475564Y-148164838D01*
X202475564Y-148164838D02*
X202380326Y-148117219D01*
X202380326Y-148117219D02*
X202142231Y-148117219D01*
X202142231Y-148117219D02*
X202046993Y-148164838D01*
X202046993Y-148164838D02*
X201999374Y-148212457D01*
X201999374Y-148212457D02*
X201951755Y-148307695D01*
X201951755Y-148307695D02*
X201951755Y-148402933D01*
X201951755Y-148402933D02*
X201999374Y-148545790D01*
X201999374Y-148545790D02*
X202570802Y-149117219D01*
X202570802Y-149117219D02*
X201951755Y-149117219D01*
X201046993Y-148117219D02*
X201523183Y-148117219D01*
X201523183Y-148117219D02*
X201570802Y-148593409D01*
X201570802Y-148593409D02*
X201523183Y-148545790D01*
X201523183Y-148545790D02*
X201427945Y-148498171D01*
X201427945Y-148498171D02*
X201189850Y-148498171D01*
X201189850Y-148498171D02*
X201094612Y-148545790D01*
X201094612Y-148545790D02*
X201046993Y-148593409D01*
X201046993Y-148593409D02*
X200999374Y-148688647D01*
X200999374Y-148688647D02*
X200999374Y-148926742D01*
X200999374Y-148926742D02*
X201046993Y-149021980D01*
X201046993Y-149021980D02*
X201094612Y-149069600D01*
X201094612Y-149069600D02*
X201189850Y-149117219D01*
X201189850Y-149117219D02*
X201427945Y-149117219D01*
X201427945Y-149117219D02*
X201523183Y-149069600D01*
X201523183Y-149069600D02*
X201570802Y-149021980D01*
X214530326Y-150667219D02*
X214530326Y-149667219D01*
X214530326Y-149667219D02*
X214196993Y-150381504D01*
X214196993Y-150381504D02*
X213863660Y-149667219D01*
X213863660Y-149667219D02*
X213863660Y-150667219D01*
X213435088Y-150381504D02*
X212958898Y-150381504D01*
X213530326Y-150667219D02*
X213196993Y-149667219D01*
X213196993Y-149667219D02*
X212863660Y-150667219D01*
X212530326Y-150667219D02*
X212530326Y-149667219D01*
X212530326Y-149667219D02*
X212292231Y-149667219D01*
X212292231Y-149667219D02*
X212149374Y-149714838D01*
X212149374Y-149714838D02*
X212054136Y-149810076D01*
X212054136Y-149810076D02*
X212006517Y-149905314D01*
X212006517Y-149905314D02*
X211958898Y-150095790D01*
X211958898Y-150095790D02*
X211958898Y-150238647D01*
X211958898Y-150238647D02*
X212006517Y-150429123D01*
X212006517Y-150429123D02*
X212054136Y-150524361D01*
X212054136Y-150524361D02*
X212149374Y-150619600D01*
X212149374Y-150619600D02*
X212292231Y-150667219D01*
X212292231Y-150667219D02*
X212530326Y-150667219D01*
X211530326Y-150143409D02*
X211196993Y-150143409D01*
X211054136Y-150667219D02*
X211530326Y-150667219D01*
X211530326Y-150667219D02*
X211530326Y-149667219D01*
X211530326Y-149667219D02*
X211054136Y-149667219D01*
X209530326Y-150143409D02*
X209387469Y-150191028D01*
X209387469Y-150191028D02*
X209339850Y-150238647D01*
X209339850Y-150238647D02*
X209292231Y-150333885D01*
X209292231Y-150333885D02*
X209292231Y-150476742D01*
X209292231Y-150476742D02*
X209339850Y-150571980D01*
X209339850Y-150571980D02*
X209387469Y-150619600D01*
X209387469Y-150619600D02*
X209482707Y-150667219D01*
X209482707Y-150667219D02*
X209863659Y-150667219D01*
X209863659Y-150667219D02*
X209863659Y-149667219D01*
X209863659Y-149667219D02*
X209530326Y-149667219D01*
X209530326Y-149667219D02*
X209435088Y-149714838D01*
X209435088Y-149714838D02*
X209387469Y-149762457D01*
X209387469Y-149762457D02*
X209339850Y-149857695D01*
X209339850Y-149857695D02*
X209339850Y-149952933D01*
X209339850Y-149952933D02*
X209387469Y-150048171D01*
X209387469Y-150048171D02*
X209435088Y-150095790D01*
X209435088Y-150095790D02*
X209530326Y-150143409D01*
X209530326Y-150143409D02*
X209863659Y-150143409D01*
X208673183Y-150191028D02*
X208673183Y-150667219D01*
X209006516Y-149667219D02*
X208673183Y-150191028D01*
X208673183Y-150191028D02*
X208339850Y-149667219D01*
X207244611Y-150667219D02*
X207244611Y-149667219D01*
X207244611Y-149667219D02*
X206911278Y-150381504D01*
X206911278Y-150381504D02*
X206577945Y-149667219D01*
X206577945Y-149667219D02*
X206577945Y-150667219D01*
X206149373Y-150381504D02*
X205673183Y-150381504D01*
X206244611Y-150667219D02*
X205911278Y-149667219D01*
X205911278Y-149667219D02*
X205577945Y-150667219D01*
X205339849Y-149667219D02*
X204673183Y-150667219D01*
X204673183Y-149667219D02*
X205339849Y-150667219D01*
X203577944Y-150619600D02*
X203435087Y-150667219D01*
X203435087Y-150667219D02*
X203196992Y-150667219D01*
X203196992Y-150667219D02*
X203101754Y-150619600D01*
X203101754Y-150619600D02*
X203054135Y-150571980D01*
X203054135Y-150571980D02*
X203006516Y-150476742D01*
X203006516Y-150476742D02*
X203006516Y-150381504D01*
X203006516Y-150381504D02*
X203054135Y-150286266D01*
X203054135Y-150286266D02*
X203101754Y-150238647D01*
X203101754Y-150238647D02*
X203196992Y-150191028D01*
X203196992Y-150191028D02*
X203387468Y-150143409D01*
X203387468Y-150143409D02*
X203482706Y-150095790D01*
X203482706Y-150095790D02*
X203530325Y-150048171D01*
X203530325Y-150048171D02*
X203577944Y-149952933D01*
X203577944Y-149952933D02*
X203577944Y-149857695D01*
X203577944Y-149857695D02*
X203530325Y-149762457D01*
X203530325Y-149762457D02*
X203482706Y-149714838D01*
X203482706Y-149714838D02*
X203387468Y-149667219D01*
X203387468Y-149667219D02*
X203149373Y-149667219D01*
X203149373Y-149667219D02*
X203006516Y-149714838D01*
X202577944Y-150571980D02*
X202530325Y-150619600D01*
X202530325Y-150619600D02*
X202577944Y-150667219D01*
X202577944Y-150667219D02*
X202625563Y-150619600D01*
X202625563Y-150619600D02*
X202577944Y-150571980D01*
X202577944Y-150571980D02*
X202577944Y-150667219D01*
D11*
X130004318Y-168976667D02*
X130911461Y-168976667D01*
X130911461Y-168976667D02*
X131092889Y-168916190D01*
X131092889Y-168916190D02*
X131213842Y-168795238D01*
X131213842Y-168795238D02*
X131274318Y-168613809D01*
X131274318Y-168613809D02*
X131274318Y-168492857D01*
X130004318Y-169460476D02*
X130004318Y-170246667D01*
X130004318Y-170246667D02*
X130488127Y-169823333D01*
X130488127Y-169823333D02*
X130488127Y-170004762D01*
X130488127Y-170004762D02*
X130548603Y-170125714D01*
X130548603Y-170125714D02*
X130609080Y-170186190D01*
X130609080Y-170186190D02*
X130730032Y-170246667D01*
X130730032Y-170246667D02*
X131032413Y-170246667D01*
X131032413Y-170246667D02*
X131153365Y-170186190D01*
X131153365Y-170186190D02*
X131213842Y-170125714D01*
X131213842Y-170125714D02*
X131274318Y-170004762D01*
X131274318Y-170004762D02*
X131274318Y-169641905D01*
X131274318Y-169641905D02*
X131213842Y-169520952D01*
X131213842Y-169520952D02*
X131153365Y-169460476D01*
D12*
%TO.C,G\u002A\u002A\u002A*%
G36*
X206876092Y-141263260D02*
G01*
X206836005Y-141308065D01*
X206755650Y-141316845D01*
X206730699Y-141317416D01*
X206642624Y-141349176D01*
X206620255Y-141452239D01*
X206620827Y-141477190D01*
X206652587Y-141565265D01*
X206755650Y-141587633D01*
X206780601Y-141588205D01*
X206868676Y-141619965D01*
X206891044Y-141723028D01*
X206890472Y-141747979D01*
X206858713Y-141836054D01*
X206755650Y-141858422D01*
X206730699Y-141857851D01*
X206642624Y-141826091D01*
X206620255Y-141723028D01*
X206617690Y-141668691D01*
X206590352Y-141614426D01*
X206510177Y-141592023D01*
X206349466Y-141587633D01*
X206240793Y-141588916D01*
X206132262Y-141602585D01*
X206087457Y-141642673D01*
X206078678Y-141723028D01*
X206079249Y-141747979D01*
X206111009Y-141836054D01*
X206214072Y-141858422D01*
X206239023Y-141858994D01*
X206327098Y-141890754D01*
X206349466Y-141993817D01*
X206350038Y-142018768D01*
X206381798Y-142106843D01*
X206484861Y-142129211D01*
X206588523Y-142152590D01*
X206620255Y-142237527D01*
X206591032Y-142320456D01*
X206484861Y-142345842D01*
X206430524Y-142348408D01*
X206376259Y-142375746D01*
X206353856Y-142455921D01*
X206349466Y-142616631D01*
X206348184Y-142725305D01*
X206334515Y-142833836D01*
X206294427Y-142878641D01*
X206214072Y-142887420D01*
X206189121Y-142886848D01*
X206101046Y-142855089D01*
X206078678Y-142752026D01*
X206078106Y-142727075D01*
X206046346Y-142639000D01*
X205943283Y-142616631D01*
X205918332Y-142616060D01*
X205830257Y-142584300D01*
X205807889Y-142481237D01*
X205807317Y-142456286D01*
X205775557Y-142368211D01*
X205672494Y-142345842D01*
X205618157Y-142348408D01*
X205563892Y-142375746D01*
X205541489Y-142455921D01*
X205537100Y-142616631D01*
X205535817Y-142725305D01*
X205532452Y-142752026D01*
X205522148Y-142833836D01*
X205482061Y-142878641D01*
X205401705Y-142887420D01*
X205376754Y-142887992D01*
X205288679Y-142919752D01*
X205266311Y-143022815D01*
X205266311Y-143158209D01*
X205807889Y-143158209D01*
X206349466Y-143158209D01*
X206349466Y-143293604D01*
X206346901Y-143347941D01*
X206319563Y-143402206D01*
X206239388Y-143424608D01*
X206078678Y-143428998D01*
X205807889Y-143428998D01*
X205807889Y-143699787D01*
X205809171Y-143808461D01*
X205822841Y-143916991D01*
X205862928Y-143961796D01*
X205943283Y-143970576D01*
X205968234Y-143970004D01*
X206056309Y-143938244D01*
X206078678Y-143835181D01*
X206079249Y-143810230D01*
X206111009Y-143722156D01*
X206214072Y-143699787D01*
X206239023Y-143700359D01*
X206327098Y-143732119D01*
X206349466Y-143835181D01*
X206352032Y-143889518D01*
X206379370Y-143943784D01*
X206459545Y-143966186D01*
X206620255Y-143970576D01*
X206728929Y-143971858D01*
X206837460Y-143985528D01*
X206882265Y-144025615D01*
X206891044Y-144105970D01*
X206888479Y-144160307D01*
X206861141Y-144214573D01*
X206780966Y-144236975D01*
X206620255Y-144241365D01*
X206511581Y-144240082D01*
X206403051Y-144226413D01*
X206358246Y-144186326D01*
X206349466Y-144105970D01*
X206348895Y-144081019D01*
X206317135Y-143992944D01*
X206214072Y-143970576D01*
X206189121Y-143971148D01*
X206101046Y-144002907D01*
X206078678Y-144105970D01*
X206076112Y-144160307D01*
X206048774Y-144214573D01*
X205968599Y-144236975D01*
X205807889Y-144241365D01*
X205537100Y-144241365D01*
X205537100Y-143835181D01*
X205536602Y-143692516D01*
X205530416Y-143543004D01*
X205510941Y-143464457D01*
X205470573Y-143434060D01*
X205401705Y-143428998D01*
X205376754Y-143429570D01*
X205288679Y-143461330D01*
X205266311Y-143564393D01*
X205265739Y-143589344D01*
X205233979Y-143677418D01*
X205130916Y-143699787D01*
X205105965Y-143699215D01*
X205017890Y-143667455D01*
X204995522Y-143564393D01*
X204994950Y-143539441D01*
X204963190Y-143451367D01*
X204860127Y-143428998D01*
X204835176Y-143429570D01*
X204747102Y-143461330D01*
X204724733Y-143564393D01*
X204724161Y-143589344D01*
X204692401Y-143677418D01*
X204589339Y-143699787D01*
X204535002Y-143702352D01*
X204480736Y-143729691D01*
X204458334Y-143809865D01*
X204453944Y-143970576D01*
X204455227Y-144079250D01*
X204468896Y-144187780D01*
X204508983Y-144232585D01*
X204589339Y-144241365D01*
X204614290Y-144240793D01*
X204702364Y-144209033D01*
X204724733Y-144105970D01*
X204727298Y-144051633D01*
X204754637Y-143997368D01*
X204834811Y-143974966D01*
X204995522Y-143970576D01*
X205104196Y-143971858D01*
X205212726Y-143985528D01*
X205257531Y-144025615D01*
X205266311Y-144105970D01*
X205263746Y-144160307D01*
X205236407Y-144214573D01*
X205156232Y-144236975D01*
X204995522Y-144241365D01*
X204886848Y-144242647D01*
X204778318Y-144256317D01*
X204733513Y-144296404D01*
X204724733Y-144376759D01*
X204724161Y-144401710D01*
X204692401Y-144489785D01*
X204589339Y-144512154D01*
X204564387Y-144511582D01*
X204476313Y-144479822D01*
X204453944Y-144376759D01*
X204452451Y-144329204D01*
X204433892Y-144279367D01*
X204375468Y-144253184D01*
X204254363Y-144243052D01*
X204047761Y-144241365D01*
X203905095Y-144241863D01*
X203755583Y-144248049D01*
X203677036Y-144267524D01*
X203646639Y-144307892D01*
X203641577Y-144376759D01*
X203644142Y-144431096D01*
X203671481Y-144485361D01*
X203751656Y-144507764D01*
X203912366Y-144512154D01*
X204021040Y-144513436D01*
X204129571Y-144527106D01*
X204174376Y-144567193D01*
X204183155Y-144647548D01*
X204185720Y-144701885D01*
X204213059Y-144756150D01*
X204293234Y-144778553D01*
X204453944Y-144782943D01*
X204724733Y-144782943D01*
X204724733Y-145053732D01*
X204723450Y-145162406D01*
X204709781Y-145270936D01*
X204669694Y-145315741D01*
X204589339Y-145324520D01*
X204535002Y-145327086D01*
X204480736Y-145354424D01*
X204458334Y-145434599D01*
X204453944Y-145595309D01*
X204455227Y-145703983D01*
X204468896Y-145812514D01*
X204508983Y-145857319D01*
X204589339Y-145866098D01*
X204643676Y-145868663D01*
X204697941Y-145896002D01*
X204720343Y-145976177D01*
X204724733Y-146136887D01*
X204723450Y-146245561D01*
X204709781Y-146354092D01*
X204669694Y-146398897D01*
X204589339Y-146407676D01*
X204535002Y-146405111D01*
X204480736Y-146377772D01*
X204458334Y-146297598D01*
X204453944Y-146136887D01*
X204452662Y-146028213D01*
X204438992Y-145919683D01*
X204398905Y-145874878D01*
X204318550Y-145866098D01*
X204264213Y-145863533D01*
X204209947Y-145836195D01*
X204187545Y-145756020D01*
X204183155Y-145595309D01*
X204181873Y-145486635D01*
X204168203Y-145378105D01*
X204128116Y-145333300D01*
X204047761Y-145324520D01*
X204022810Y-145323949D01*
X203934735Y-145292189D01*
X203912366Y-145189126D01*
X203911794Y-145164175D01*
X203880035Y-145076100D01*
X203776972Y-145053732D01*
X203722635Y-145051166D01*
X203668370Y-145023828D01*
X203645967Y-144943653D01*
X203641577Y-144782943D01*
X203641577Y-144512154D01*
X203397867Y-144512154D01*
X203332133Y-144512671D01*
X203213910Y-144524414D01*
X203164259Y-144563999D01*
X203154157Y-144647548D01*
X203177536Y-144751210D01*
X203262473Y-144782943D01*
X203287526Y-144784101D01*
X203340880Y-144810306D01*
X203365086Y-144891311D01*
X203370788Y-145053732D01*
X203372071Y-145162406D01*
X203385740Y-145270936D01*
X203425828Y-145315741D01*
X203506183Y-145324520D01*
X203531134Y-145325092D01*
X203619209Y-145356852D01*
X203641577Y-145459915D01*
X203642149Y-145484866D01*
X203673909Y-145572941D01*
X203776972Y-145595309D01*
X203831309Y-145597875D01*
X203885574Y-145625213D01*
X203907976Y-145705388D01*
X203912366Y-145866098D01*
X203912366Y-146136887D01*
X203641577Y-146136887D01*
X203532903Y-146135605D01*
X203424373Y-146121935D01*
X203379568Y-146081848D01*
X203370788Y-146001493D01*
X203369858Y-145964974D01*
X203348719Y-145899294D01*
X203277467Y-145871710D01*
X203127078Y-145866098D01*
X202883368Y-145866098D01*
X202883368Y-145189126D01*
X202883368Y-144512154D01*
X202612579Y-144512154D01*
X202341791Y-144512154D01*
X202341791Y-144241365D01*
X202340508Y-144132691D01*
X202326839Y-144024161D01*
X202286751Y-143979355D01*
X202206396Y-143970576D01*
X202181445Y-143971148D01*
X202093370Y-144002907D01*
X202071002Y-144105970D01*
X202070430Y-144130921D01*
X202038670Y-144218996D01*
X201935607Y-144241365D01*
X201910656Y-144241937D01*
X201822581Y-144273696D01*
X201800213Y-144376759D01*
X201800785Y-144401710D01*
X201832544Y-144489785D01*
X201935607Y-144512154D01*
X201960558Y-144512726D01*
X202048633Y-144544485D01*
X202071002Y-144647548D01*
X202073567Y-144701885D01*
X202100905Y-144756150D01*
X202181080Y-144778553D01*
X202341791Y-144782943D01*
X202450465Y-144784225D01*
X202558995Y-144797895D01*
X202603800Y-144837982D01*
X202612579Y-144918337D01*
X202611086Y-144965892D01*
X202592527Y-145015730D01*
X202534103Y-145041912D01*
X202412998Y-145052044D01*
X202206396Y-145053732D01*
X202063731Y-145054229D01*
X201914218Y-145060416D01*
X201835671Y-145079890D01*
X201805275Y-145120259D01*
X201800213Y-145189126D01*
X201800785Y-145214077D01*
X201832544Y-145302152D01*
X201935607Y-145324520D01*
X201989944Y-145327086D01*
X202044209Y-145354424D01*
X202066612Y-145434599D01*
X202067304Y-145459915D01*
X202071002Y-145595309D01*
X202072284Y-145703983D01*
X202085954Y-145812514D01*
X202126041Y-145857319D01*
X202206396Y-145866098D01*
X202231347Y-145865527D01*
X202319422Y-145833767D01*
X202341791Y-145730704D01*
X202342362Y-145705753D01*
X202374122Y-145617678D01*
X202477185Y-145595309D01*
X202502136Y-145595881D01*
X202590211Y-145627641D01*
X202612579Y-145730704D01*
X202612008Y-145755655D01*
X202580248Y-145843730D01*
X202477185Y-145866098D01*
X202452234Y-145866670D01*
X202364159Y-145898430D01*
X202341791Y-146001493D01*
X202342362Y-146026444D01*
X202374122Y-146114519D01*
X202477185Y-146136887D01*
X202502136Y-146137459D01*
X202590211Y-146169219D01*
X202612579Y-146272282D01*
X202611086Y-146319837D01*
X202592527Y-146369674D01*
X202534103Y-146395857D01*
X202412998Y-146405989D01*
X202206396Y-146407676D01*
X202063731Y-146407178D01*
X201914218Y-146400992D01*
X201835671Y-146381517D01*
X201805275Y-146341149D01*
X201800213Y-146272282D01*
X201799641Y-146247331D01*
X201767881Y-146159256D01*
X201664818Y-146136887D01*
X201639867Y-146137459D01*
X201551792Y-146169219D01*
X201529424Y-146272282D01*
X201527931Y-146319837D01*
X201509372Y-146369674D01*
X201450948Y-146395857D01*
X201329842Y-146405989D01*
X201123240Y-146407676D01*
X200980575Y-146407178D01*
X200831063Y-146400992D01*
X200752516Y-146381517D01*
X200722119Y-146341149D01*
X200717057Y-146272282D01*
X200716485Y-146247331D01*
X200684726Y-146159256D01*
X200581663Y-146136887D01*
X200556712Y-146137459D01*
X200468637Y-146169219D01*
X200446268Y-146272282D01*
X200445696Y-146297233D01*
X200413937Y-146385308D01*
X200310874Y-146407676D01*
X200285923Y-146407104D01*
X200197848Y-146375345D01*
X200175479Y-146272282D01*
X200172914Y-146217945D01*
X200145576Y-146163680D01*
X200065401Y-146141277D01*
X199904690Y-146136887D01*
X199796016Y-146138170D01*
X199687486Y-146151839D01*
X199642681Y-146191926D01*
X199633901Y-146272282D01*
X199633330Y-146297233D01*
X199601570Y-146385308D01*
X199498507Y-146407676D01*
X199473556Y-146407104D01*
X199385481Y-146375345D01*
X199363113Y-146272282D01*
X199363684Y-146247331D01*
X199395444Y-146159256D01*
X199498507Y-146136887D01*
X199523458Y-146136315D01*
X199611533Y-146104556D01*
X199633901Y-146001493D01*
X199631336Y-145947156D01*
X199603998Y-145892891D01*
X199523823Y-145870488D01*
X199363113Y-145866098D01*
X199254439Y-145864816D01*
X199145908Y-145851146D01*
X199101103Y-145811059D01*
X199092324Y-145730704D01*
X199904690Y-145730704D01*
X199905262Y-145755655D01*
X199937022Y-145843730D01*
X200040085Y-145866098D01*
X200065036Y-145865527D01*
X200153111Y-145833767D01*
X200175479Y-145730704D01*
X200176051Y-145705753D01*
X200207811Y-145617678D01*
X200310874Y-145595309D01*
X200335825Y-145595881D01*
X200423900Y-145627641D01*
X200446268Y-145730704D01*
X200448833Y-145785041D01*
X200476172Y-145839306D01*
X200556347Y-145861709D01*
X200717057Y-145866098D01*
X200825731Y-145867381D01*
X200934261Y-145881050D01*
X200979066Y-145921138D01*
X200987846Y-146001493D01*
X200990411Y-146055830D01*
X201017750Y-146110095D01*
X201097924Y-146132497D01*
X201258635Y-146136887D01*
X201529424Y-146136887D01*
X201529424Y-146001493D01*
X201800213Y-146001493D01*
X201800785Y-146026444D01*
X201832544Y-146114519D01*
X201935607Y-146136887D01*
X201960558Y-146136315D01*
X202048633Y-146104556D01*
X202071002Y-146001493D01*
X202070430Y-145976542D01*
X202038670Y-145888467D01*
X201935607Y-145866098D01*
X201910656Y-145866670D01*
X201822581Y-145898430D01*
X201800213Y-146001493D01*
X201529424Y-146001493D01*
X201529424Y-145866098D01*
X201530706Y-145757424D01*
X201544376Y-145648894D01*
X201584463Y-145604089D01*
X201664818Y-145595309D01*
X201689769Y-145594738D01*
X201777844Y-145562978D01*
X201800213Y-145459915D01*
X201797648Y-145405578D01*
X201770309Y-145351313D01*
X201690134Y-145328910D01*
X201529424Y-145324520D01*
X201420750Y-145325803D01*
X201312220Y-145339472D01*
X201267414Y-145379560D01*
X201258635Y-145459915D01*
X201257142Y-145507470D01*
X201238583Y-145557308D01*
X201180159Y-145583490D01*
X201059053Y-145593622D01*
X200852452Y-145595309D01*
X200709786Y-145594812D01*
X200560274Y-145588625D01*
X200481727Y-145569151D01*
X200451330Y-145528782D01*
X200446268Y-145459915D01*
X200445696Y-145434964D01*
X200413937Y-145346889D01*
X200310874Y-145324520D01*
X200285923Y-145325092D01*
X200197848Y-145356852D01*
X200175479Y-145459915D01*
X200174907Y-145484866D01*
X200143148Y-145572941D01*
X200040085Y-145595309D01*
X200015134Y-145595881D01*
X199927059Y-145627641D01*
X199904690Y-145730704D01*
X199092324Y-145730704D01*
X199092895Y-145705753D01*
X199124655Y-145617678D01*
X199227718Y-145595309D01*
X199252669Y-145594738D01*
X199340744Y-145562978D01*
X199363113Y-145459915D01*
X199362541Y-145434964D01*
X199330781Y-145346889D01*
X199227718Y-145324520D01*
X199202767Y-145323949D01*
X199114692Y-145292189D01*
X199092324Y-145189126D01*
X199363113Y-145189126D01*
X199365678Y-145243463D01*
X199393016Y-145297728D01*
X199473191Y-145320131D01*
X199633901Y-145324520D01*
X199742575Y-145323238D01*
X199851106Y-145309569D01*
X199895911Y-145269481D01*
X199904690Y-145189126D01*
X199905262Y-145164175D01*
X199937022Y-145076100D01*
X200040085Y-145053732D01*
X200446268Y-145053732D01*
X200852452Y-145053732D01*
X201258635Y-145053732D01*
X201258635Y-144647548D01*
X201529424Y-144647548D01*
X201529996Y-144672499D01*
X201561755Y-144760574D01*
X201664818Y-144782943D01*
X201689769Y-144782371D01*
X201777844Y-144750611D01*
X201800213Y-144647548D01*
X201799641Y-144622597D01*
X201767881Y-144534522D01*
X201664818Y-144512154D01*
X201639867Y-144512726D01*
X201551792Y-144544485D01*
X201529424Y-144647548D01*
X201258635Y-144647548D01*
X201258635Y-144241365D01*
X200852452Y-144241365D01*
X200446268Y-144241365D01*
X200446268Y-144647548D01*
X200446268Y-144918337D01*
X200446268Y-145053732D01*
X200040085Y-145053732D01*
X200065036Y-145053160D01*
X200153111Y-145021400D01*
X200175479Y-144918337D01*
X200174907Y-144893386D01*
X200143148Y-144805311D01*
X200040085Y-144782943D01*
X200015134Y-144783514D01*
X199927059Y-144815274D01*
X199904690Y-144918337D01*
X199902125Y-144972674D01*
X199874787Y-145026939D01*
X199794612Y-145049342D01*
X199633901Y-145053732D01*
X199525227Y-145055014D01*
X199416697Y-145068683D01*
X199371892Y-145108771D01*
X199363113Y-145189126D01*
X199092324Y-145189126D01*
X199092895Y-145164175D01*
X199124655Y-145076100D01*
X199227718Y-145053732D01*
X199252669Y-145053160D01*
X199340744Y-145021400D01*
X199363113Y-144918337D01*
X199362541Y-144893386D01*
X199330781Y-144805311D01*
X199227718Y-144782943D01*
X199202767Y-144782371D01*
X199114692Y-144750611D01*
X199092324Y-144647548D01*
X199092895Y-144622597D01*
X199124655Y-144534522D01*
X199227718Y-144512154D01*
X199252669Y-144512726D01*
X199340744Y-144544485D01*
X199363113Y-144647548D01*
X199363684Y-144672499D01*
X199395444Y-144760574D01*
X199498507Y-144782943D01*
X199552844Y-144780378D01*
X199607109Y-144753039D01*
X199629512Y-144672864D01*
X199633901Y-144512154D01*
X199633901Y-144241365D01*
X199904690Y-144241365D01*
X200013364Y-144240082D01*
X200121895Y-144226413D01*
X200166700Y-144186326D01*
X200175479Y-144105970D01*
X200176972Y-144058415D01*
X200195531Y-144008578D01*
X200253956Y-143982395D01*
X200375061Y-143972263D01*
X200581663Y-143970576D01*
X200724328Y-143970078D01*
X200873841Y-143963892D01*
X200952387Y-143944417D01*
X200982784Y-143904049D01*
X200987846Y-143835181D01*
X200987274Y-143810230D01*
X200955514Y-143722156D01*
X200852452Y-143699787D01*
X200827500Y-143699215D01*
X200739426Y-143667455D01*
X200717057Y-143564393D01*
X200716485Y-143539441D01*
X200684726Y-143451367D01*
X200581663Y-143428998D01*
X200556712Y-143429570D01*
X200468637Y-143461330D01*
X200446268Y-143564393D01*
X200444775Y-143611948D01*
X200426216Y-143661785D01*
X200367792Y-143687967D01*
X200246687Y-143698100D01*
X200040085Y-143699787D01*
X199897420Y-143700285D01*
X199747907Y-143706471D01*
X199669360Y-143725946D01*
X199638963Y-143766314D01*
X199633901Y-143835181D01*
X199633330Y-143860133D01*
X199601570Y-143948207D01*
X199498507Y-143970576D01*
X199444170Y-143968011D01*
X199389905Y-143940672D01*
X199367502Y-143860497D01*
X199363113Y-143699787D01*
X199361830Y-143591113D01*
X199348161Y-143482583D01*
X199308073Y-143437778D01*
X199227718Y-143428998D01*
X199202767Y-143428426D01*
X199114692Y-143396667D01*
X199092324Y-143293604D01*
X199904690Y-143293604D01*
X199905262Y-143318555D01*
X199937022Y-143406630D01*
X200040085Y-143428998D01*
X200065036Y-143428426D01*
X200153111Y-143396667D01*
X200175479Y-143293604D01*
X200717057Y-143293604D01*
X200717629Y-143318555D01*
X200749389Y-143406630D01*
X200852452Y-143428998D01*
X200877403Y-143429570D01*
X200965477Y-143461330D01*
X200987846Y-143564393D01*
X200988418Y-143589344D01*
X201020178Y-143677418D01*
X201123240Y-143699787D01*
X201148192Y-143699215D01*
X201236266Y-143667455D01*
X201258635Y-143564393D01*
X201529424Y-143564393D01*
X201529996Y-143589344D01*
X201561755Y-143677418D01*
X201664818Y-143699787D01*
X201689769Y-143700359D01*
X201777844Y-143732119D01*
X201800213Y-143835181D01*
X201800785Y-143860133D01*
X201832544Y-143948207D01*
X201935607Y-143970576D01*
X201960558Y-143970004D01*
X202048633Y-143938244D01*
X202071002Y-143835181D01*
X202071573Y-143810230D01*
X202103333Y-143722156D01*
X202206396Y-143699787D01*
X202231347Y-143700359D01*
X202319422Y-143732119D01*
X202341791Y-143835181D01*
X202342362Y-143860133D01*
X202374122Y-143948207D01*
X202477185Y-143970576D01*
X202502136Y-143971148D01*
X202590211Y-144002907D01*
X202612579Y-144105970D01*
X202613151Y-144130921D01*
X202644911Y-144218996D01*
X202747974Y-144241365D01*
X202772925Y-144241937D01*
X202861000Y-144273696D01*
X202883368Y-144376759D01*
X202883940Y-144401710D01*
X202915700Y-144489785D01*
X203018763Y-144512154D01*
X203043714Y-144511582D01*
X203131789Y-144479822D01*
X203154157Y-144376759D01*
X203177536Y-144273097D01*
X203262473Y-144241365D01*
X203287526Y-144240206D01*
X203340880Y-144214001D01*
X203365086Y-144132996D01*
X203370788Y-143970576D01*
X203372071Y-143861902D01*
X203385740Y-143753372D01*
X203425828Y-143708567D01*
X203506183Y-143699787D01*
X203531134Y-143700359D01*
X203619209Y-143732119D01*
X203641577Y-143835181D01*
X203644142Y-143889518D01*
X203671481Y-143943784D01*
X203751656Y-143966186D01*
X203912366Y-143970576D01*
X204021040Y-143969293D01*
X204129571Y-143955624D01*
X204174376Y-143915537D01*
X204183155Y-143835181D01*
X204183727Y-143810230D01*
X204215487Y-143722156D01*
X204318550Y-143699787D01*
X204372887Y-143697222D01*
X204427152Y-143669883D01*
X204449554Y-143589709D01*
X204453944Y-143428998D01*
X204455227Y-143320324D01*
X204458592Y-143293604D01*
X204995522Y-143293604D01*
X204996094Y-143318555D01*
X205027853Y-143406630D01*
X205130916Y-143428998D01*
X205155867Y-143428426D01*
X205243942Y-143396667D01*
X205266311Y-143293604D01*
X205265739Y-143268653D01*
X205233979Y-143180578D01*
X205130916Y-143158209D01*
X205105965Y-143158781D01*
X205017890Y-143190541D01*
X204995522Y-143293604D01*
X204458592Y-143293604D01*
X204468896Y-143211794D01*
X204508983Y-143166989D01*
X204589339Y-143158209D01*
X204614290Y-143157637D01*
X204702364Y-143125878D01*
X204724733Y-143022815D01*
X204727298Y-142968478D01*
X204754637Y-142914213D01*
X204834811Y-142891810D01*
X204995522Y-142887420D01*
X205104196Y-142886138D01*
X205212726Y-142872468D01*
X205257531Y-142832381D01*
X205266311Y-142752026D01*
X205264818Y-142704471D01*
X205246259Y-142654633D01*
X205187835Y-142628451D01*
X205066729Y-142618319D01*
X204860127Y-142616631D01*
X204717462Y-142617129D01*
X204567950Y-142623315D01*
X204489403Y-142642790D01*
X204459006Y-142683159D01*
X204453944Y-142752026D01*
X204453372Y-142776977D01*
X204421613Y-142865052D01*
X204318550Y-142887420D01*
X204293599Y-142887992D01*
X204205524Y-142919752D01*
X204183155Y-143022815D01*
X204182583Y-143047766D01*
X204150824Y-143135841D01*
X204047761Y-143158209D01*
X204022810Y-143157637D01*
X203934735Y-143125878D01*
X203912366Y-143022815D01*
X203911794Y-142997864D01*
X203880035Y-142909789D01*
X203776972Y-142887420D01*
X203752021Y-142887992D01*
X203663946Y-142919752D01*
X203641577Y-143022815D01*
X203641006Y-143047766D01*
X203609246Y-143135841D01*
X203506183Y-143158209D01*
X203451846Y-143160774D01*
X203397581Y-143188113D01*
X203375178Y-143268288D01*
X203370788Y-143428998D01*
X203370788Y-143699787D01*
X202991684Y-143699787D01*
X202890595Y-143699541D01*
X202733560Y-143694273D01*
X202650614Y-143675613D01*
X202618154Y-143635129D01*
X202612579Y-143564393D01*
X202612008Y-143539441D01*
X202580248Y-143451367D01*
X202477185Y-143428998D01*
X202452234Y-143428426D01*
X202364159Y-143396667D01*
X202341791Y-143293604D01*
X202341219Y-143268653D01*
X202309459Y-143180578D01*
X202206396Y-143158209D01*
X202181445Y-143157637D01*
X202093370Y-143125878D01*
X202071002Y-143022815D01*
X202070430Y-142997864D01*
X202038670Y-142909789D01*
X201935607Y-142887420D01*
X201881270Y-142889985D01*
X201827005Y-142917324D01*
X201804602Y-142997499D01*
X201800213Y-143158209D01*
X201798930Y-143266883D01*
X201785261Y-143375413D01*
X201745174Y-143420219D01*
X201664818Y-143428998D01*
X201639867Y-143429570D01*
X201551792Y-143461330D01*
X201529424Y-143564393D01*
X201258635Y-143564393D01*
X201258063Y-143539441D01*
X201226303Y-143451367D01*
X201123240Y-143428998D01*
X201098289Y-143428426D01*
X201010215Y-143396667D01*
X200987846Y-143293604D01*
X200987274Y-143268653D01*
X200955514Y-143180578D01*
X200852452Y-143158209D01*
X200827500Y-143158781D01*
X200739426Y-143190541D01*
X200717057Y-143293604D01*
X200175479Y-143293604D01*
X200174907Y-143268653D01*
X200143148Y-143180578D01*
X200040085Y-143158209D01*
X200015134Y-143158781D01*
X199927059Y-143190541D01*
X199904690Y-143293604D01*
X199092324Y-143293604D01*
X199092895Y-143268653D01*
X199124655Y-143180578D01*
X199227718Y-143158209D01*
X199275273Y-143156716D01*
X199325111Y-143138157D01*
X199351293Y-143079733D01*
X199361425Y-142958628D01*
X199363113Y-142752026D01*
X199363610Y-142609361D01*
X199369797Y-142459848D01*
X199389271Y-142381301D01*
X199429640Y-142350905D01*
X199498507Y-142345842D01*
X199602169Y-142322464D01*
X199633901Y-142237527D01*
X199904690Y-142237527D01*
X199933914Y-142320456D01*
X200040085Y-142345842D01*
X200143747Y-142322464D01*
X200175479Y-142237527D01*
X200204702Y-142154597D01*
X200310874Y-142129211D01*
X200335825Y-142128640D01*
X200423900Y-142096880D01*
X200446268Y-141993817D01*
X200448833Y-141939480D01*
X200476172Y-141885215D01*
X200556347Y-141862812D01*
X200717057Y-141858422D01*
X200825731Y-141857140D01*
X200934261Y-141843471D01*
X200979066Y-141803383D01*
X200987846Y-141723028D01*
X200987274Y-141698077D01*
X200955514Y-141610002D01*
X200852452Y-141587633D01*
X200827500Y-141587062D01*
X200739426Y-141555302D01*
X200717057Y-141452239D01*
X200716485Y-141427288D01*
X200684726Y-141339213D01*
X200581663Y-141316845D01*
X200556712Y-141317416D01*
X200468637Y-141349176D01*
X200446268Y-141452239D01*
X200445696Y-141477190D01*
X200413937Y-141565265D01*
X200310874Y-141587633D01*
X200256537Y-141590199D01*
X200202272Y-141617537D01*
X200179869Y-141697712D01*
X200175479Y-141858422D01*
X200174197Y-141967096D01*
X200160527Y-142075627D01*
X200120440Y-142120432D01*
X200040085Y-142129211D01*
X199936423Y-142152590D01*
X199904690Y-142237527D01*
X199633901Y-142237527D01*
X199604678Y-142154597D01*
X199498507Y-142129211D01*
X199473556Y-142128640D01*
X199385481Y-142096880D01*
X199363113Y-141993817D01*
X199365678Y-141939480D01*
X199393016Y-141885215D01*
X199473191Y-141862812D01*
X199633901Y-141858422D01*
X199742575Y-141857140D01*
X199851106Y-141843471D01*
X199895911Y-141803383D01*
X199904690Y-141723028D01*
X199904119Y-141698077D01*
X199872359Y-141610002D01*
X199769296Y-141587633D01*
X199714959Y-141585068D01*
X199660694Y-141557730D01*
X199638291Y-141477555D01*
X199633901Y-141316845D01*
X199633901Y-141181450D01*
X199904690Y-141181450D01*
X199905262Y-141206401D01*
X199937022Y-141294476D01*
X200040085Y-141316845D01*
X200065036Y-141316273D01*
X200153111Y-141284513D01*
X200175479Y-141181450D01*
X200174907Y-141156499D01*
X200143148Y-141068424D01*
X200040085Y-141046056D01*
X200015134Y-141046627D01*
X199927059Y-141078387D01*
X199904690Y-141181450D01*
X199633901Y-141181450D01*
X199633901Y-141046056D01*
X199363113Y-141046056D01*
X199254439Y-141044773D01*
X199145908Y-141031104D01*
X199101103Y-140991016D01*
X199092324Y-140910661D01*
X199092324Y-140775267D01*
X199633901Y-140775267D01*
X200175479Y-140775267D01*
X200175479Y-140910661D01*
X200176051Y-140935612D01*
X200207811Y-141023687D01*
X200310874Y-141046056D01*
X200335825Y-141045484D01*
X200423900Y-141013724D01*
X200446268Y-140910661D01*
X200446840Y-140885710D01*
X200478600Y-140797635D01*
X200581663Y-140775267D01*
X200606614Y-140775839D01*
X200694689Y-140807598D01*
X200717057Y-140910661D01*
X200719622Y-140964998D01*
X200746961Y-141019263D01*
X200827136Y-141041666D01*
X200987846Y-141046056D01*
X201258635Y-141046056D01*
X201258635Y-141181450D01*
X201258635Y-141316845D01*
X201258635Y-141587633D01*
X201529424Y-141587633D01*
X201800213Y-141587633D01*
X201800213Y-141723028D01*
X201800213Y-141858422D01*
X201798930Y-141967096D01*
X201785261Y-142075627D01*
X201745174Y-142120432D01*
X201664818Y-142129211D01*
X201561156Y-142152590D01*
X201529424Y-142237527D01*
X201500201Y-142320456D01*
X201394029Y-142345842D01*
X201290368Y-142322464D01*
X201258635Y-142237527D01*
X201229412Y-142154597D01*
X201123240Y-142129211D01*
X201086722Y-142130142D01*
X201021042Y-142151280D01*
X200993458Y-142222533D01*
X200987846Y-142372921D01*
X200987329Y-142438655D01*
X200975585Y-142556879D01*
X200936001Y-142606530D01*
X200852452Y-142616631D01*
X200827500Y-142616060D01*
X200739426Y-142584300D01*
X200717057Y-142481237D01*
X200716485Y-142456286D01*
X200684726Y-142368211D01*
X200581663Y-142345842D01*
X200556712Y-142346414D01*
X200468637Y-142378174D01*
X200446268Y-142481237D01*
X200444775Y-142528792D01*
X200426216Y-142578630D01*
X200367792Y-142604812D01*
X200246687Y-142614944D01*
X200040085Y-142616631D01*
X199897420Y-142617129D01*
X199747907Y-142623315D01*
X199669360Y-142642790D01*
X199638963Y-142683159D01*
X199633901Y-142752026D01*
X199636467Y-142806363D01*
X199663805Y-142860628D01*
X199743980Y-142883031D01*
X199904690Y-142887420D01*
X200013364Y-142888703D01*
X200121895Y-142902372D01*
X200166700Y-142942459D01*
X200175479Y-143022815D01*
X200176051Y-143047766D01*
X200207811Y-143135841D01*
X200310874Y-143158209D01*
X200335825Y-143157637D01*
X200423900Y-143125878D01*
X200446268Y-143022815D01*
X200448833Y-142968478D01*
X200476172Y-142914213D01*
X200556347Y-142891810D01*
X200717057Y-142887420D01*
X200825731Y-142888703D01*
X200934261Y-142902372D01*
X200979066Y-142942459D01*
X200987846Y-143022815D01*
X200988418Y-143047766D01*
X201020178Y-143135841D01*
X201123240Y-143158209D01*
X201148192Y-143158781D01*
X201236266Y-143190541D01*
X201258635Y-143293604D01*
X201259207Y-143318555D01*
X201290966Y-143406630D01*
X201394029Y-143428998D01*
X201448366Y-143426433D01*
X201502632Y-143399094D01*
X201525034Y-143318920D01*
X201529424Y-143158209D01*
X201528141Y-143049535D01*
X201514472Y-142941005D01*
X201474385Y-142896200D01*
X201394029Y-142887420D01*
X201369078Y-142886848D01*
X201281003Y-142855089D01*
X201258635Y-142752026D01*
X201261200Y-142697689D01*
X201288539Y-142643424D01*
X201368713Y-142621021D01*
X201529424Y-142616631D01*
X201638098Y-142615349D01*
X201746628Y-142601679D01*
X201791433Y-142561592D01*
X201800213Y-142481237D01*
X201800785Y-142456286D01*
X201832544Y-142368211D01*
X201935607Y-142345842D01*
X201960558Y-142346414D01*
X202048633Y-142378174D01*
X202071002Y-142481237D01*
X202073567Y-142535574D01*
X202100905Y-142589839D01*
X202181080Y-142612242D01*
X202341791Y-142616631D01*
X202450465Y-142617914D01*
X202558995Y-142631583D01*
X202603800Y-142671671D01*
X202612579Y-142752026D01*
X202612008Y-142776977D01*
X202580248Y-142865052D01*
X202477185Y-142887420D01*
X202452234Y-142887992D01*
X202364159Y-142919752D01*
X202341791Y-143022815D01*
X202344356Y-143077152D01*
X202371694Y-143131417D01*
X202451869Y-143153819D01*
X202612579Y-143158209D01*
X202721253Y-143159492D01*
X202829784Y-143173161D01*
X202874589Y-143213248D01*
X202883368Y-143293604D01*
X202883940Y-143318555D01*
X202915700Y-143406630D01*
X203018763Y-143428998D01*
X203043714Y-143428426D01*
X203131789Y-143396667D01*
X203154157Y-143293604D01*
X203177536Y-143189942D01*
X203262473Y-143158209D01*
X203345402Y-143128986D01*
X203370788Y-143022815D01*
X203371360Y-142997864D01*
X203403120Y-142909789D01*
X203506183Y-142887420D01*
X203531134Y-142886848D01*
X203619209Y-142855089D01*
X203641577Y-142752026D01*
X203641006Y-142727075D01*
X203609246Y-142639000D01*
X203506183Y-142616631D01*
X203481232Y-142616060D01*
X203393157Y-142584300D01*
X203370788Y-142481237D01*
X203347410Y-142377575D01*
X203262473Y-142345842D01*
X203237420Y-142347001D01*
X203184065Y-142373206D01*
X203159860Y-142454211D01*
X203154157Y-142616631D01*
X203152875Y-142725305D01*
X203139205Y-142833836D01*
X203099118Y-142878641D01*
X203018763Y-142887420D01*
X202964426Y-142884855D01*
X202910161Y-142857517D01*
X202887758Y-142777342D01*
X202883368Y-142616631D01*
X202884651Y-142507957D01*
X202898320Y-142399427D01*
X202938408Y-142354622D01*
X203018763Y-142345842D01*
X203122425Y-142322464D01*
X203154157Y-142237527D01*
X203124934Y-142154597D01*
X203018763Y-142129211D01*
X202964426Y-142126646D01*
X202910161Y-142099308D01*
X202887758Y-142019133D01*
X202887066Y-141993817D01*
X203370788Y-141993817D01*
X203371360Y-142018768D01*
X203403120Y-142106843D01*
X203506183Y-142129211D01*
X203609845Y-142152590D01*
X203641577Y-142237527D01*
X203670801Y-142320456D01*
X203776972Y-142345842D01*
X203880634Y-142322464D01*
X203912366Y-142237527D01*
X203883143Y-142154597D01*
X203776972Y-142129211D01*
X203752021Y-142128640D01*
X203663946Y-142096880D01*
X203641577Y-141993817D01*
X203641006Y-141968866D01*
X203609246Y-141880791D01*
X203506183Y-141858422D01*
X203481232Y-141858994D01*
X203393157Y-141890754D01*
X203370788Y-141993817D01*
X202887066Y-141993817D01*
X202883368Y-141858422D01*
X202883368Y-141587633D01*
X202612579Y-141587633D01*
X202341791Y-141587633D01*
X202341791Y-141316845D01*
X202343073Y-141208171D01*
X202356742Y-141099640D01*
X202396830Y-141054835D01*
X202477185Y-141046056D01*
X202502136Y-141046627D01*
X202590211Y-141078387D01*
X202612579Y-141181450D01*
X202613151Y-141206401D01*
X202644911Y-141294476D01*
X202747974Y-141316845D01*
X202772925Y-141317416D01*
X202861000Y-141349176D01*
X202883368Y-141452239D01*
X202883940Y-141477190D01*
X202915700Y-141565265D01*
X203018763Y-141587633D01*
X203073100Y-141585068D01*
X203127365Y-141557730D01*
X203149768Y-141477555D01*
X203154157Y-141316845D01*
X203154621Y-141254211D01*
X203165103Y-141120826D01*
X203197505Y-141060312D01*
X203262473Y-141046056D01*
X203345402Y-141016832D01*
X203370788Y-140910661D01*
X203371360Y-140885710D01*
X203403120Y-140797635D01*
X203506183Y-140775267D01*
X203531134Y-140774695D01*
X203619209Y-140742935D01*
X203641577Y-140639872D01*
X203641006Y-140614921D01*
X203609246Y-140526846D01*
X203506183Y-140504478D01*
X203481232Y-140503906D01*
X203393157Y-140472146D01*
X203370788Y-140369083D01*
X203371360Y-140344132D01*
X203403120Y-140256057D01*
X203506183Y-140233689D01*
X203531134Y-140234261D01*
X203619209Y-140266020D01*
X203641577Y-140369083D01*
X203642149Y-140394034D01*
X203673909Y-140482109D01*
X203776972Y-140504478D01*
X203912366Y-140504478D01*
X203912366Y-139962900D01*
X203912366Y-139421322D01*
X204047761Y-139421322D01*
X204072712Y-139420750D01*
X204160787Y-139388991D01*
X204183155Y-139285928D01*
X204183727Y-139260977D01*
X204215487Y-139172902D01*
X204318550Y-139150533D01*
X204372887Y-139147968D01*
X204427152Y-139120630D01*
X204449554Y-139040455D01*
X204453944Y-138879744D01*
X204455227Y-138771070D01*
X204468896Y-138662540D01*
X204508983Y-138617735D01*
X204589339Y-138608955D01*
X204724733Y-138608955D01*
X204724733Y-139150533D01*
X204724733Y-139692111D01*
X204589339Y-139692111D01*
X204564387Y-139692683D01*
X204476313Y-139724443D01*
X204453944Y-139827506D01*
X204454516Y-139852457D01*
X204486276Y-139940531D01*
X204589339Y-139962900D01*
X204643676Y-139965465D01*
X204697941Y-139992804D01*
X204720343Y-140072978D01*
X204724733Y-140233689D01*
X204723450Y-140342363D01*
X204709781Y-140450893D01*
X204669694Y-140495698D01*
X204589339Y-140504478D01*
X204564387Y-140503906D01*
X204476313Y-140472146D01*
X204453944Y-140369083D01*
X204453372Y-140344132D01*
X204421613Y-140256057D01*
X204318550Y-140233689D01*
X204270995Y-140235182D01*
X204221157Y-140253741D01*
X204194975Y-140312165D01*
X204184843Y-140433270D01*
X204183155Y-140639872D01*
X204182657Y-140782538D01*
X204176471Y-140932050D01*
X204156996Y-141010597D01*
X204116628Y-141040994D01*
X204047761Y-141046056D01*
X204022810Y-141045484D01*
X203934735Y-141013724D01*
X203912366Y-140910661D01*
X203911794Y-140885710D01*
X203880035Y-140797635D01*
X203776972Y-140775267D01*
X203752021Y-140775839D01*
X203663946Y-140807598D01*
X203641577Y-140910661D01*
X203641006Y-140935612D01*
X203609246Y-141023687D01*
X203506183Y-141046056D01*
X203451846Y-141048621D01*
X203397581Y-141075959D01*
X203375178Y-141156134D01*
X203370788Y-141316845D01*
X203372071Y-141425519D01*
X203385740Y-141534049D01*
X203425828Y-141578854D01*
X203506183Y-141587633D01*
X203531134Y-141588205D01*
X203619209Y-141619965D01*
X203641577Y-141723028D01*
X203642149Y-141747979D01*
X203673909Y-141836054D01*
X203776972Y-141858422D01*
X203801923Y-141858994D01*
X203889998Y-141890754D01*
X203912366Y-141993817D01*
X203914931Y-142048154D01*
X203942270Y-142102419D01*
X204022445Y-142124822D01*
X204183155Y-142129211D01*
X204245788Y-142129675D01*
X204379174Y-142140157D01*
X204439687Y-142172559D01*
X204453944Y-142237527D01*
X204483167Y-142320456D01*
X204589339Y-142345842D01*
X204693000Y-142322464D01*
X204724733Y-142237527D01*
X204995522Y-142237527D01*
X204996681Y-142262580D01*
X205022885Y-142315934D01*
X205103890Y-142340140D01*
X205266311Y-142345842D01*
X205537100Y-142345842D01*
X205537100Y-142102132D01*
X205536583Y-142036399D01*
X205532353Y-141993817D01*
X205807889Y-141993817D01*
X205808460Y-142018768D01*
X205838521Y-142102132D01*
X205840220Y-142106843D01*
X205943283Y-142129211D01*
X206046945Y-142152590D01*
X206078678Y-142237527D01*
X206107901Y-142320456D01*
X206214072Y-142345842D01*
X206317734Y-142322464D01*
X206349466Y-142237527D01*
X206320243Y-142154597D01*
X206214072Y-142129211D01*
X206189121Y-142128640D01*
X206101046Y-142096880D01*
X206078678Y-141993817D01*
X206078106Y-141968866D01*
X206046346Y-141880791D01*
X205943283Y-141858422D01*
X205918332Y-141858994D01*
X205830257Y-141890754D01*
X205807889Y-141993817D01*
X205532353Y-141993817D01*
X205524839Y-141918175D01*
X205485254Y-141868524D01*
X205401705Y-141858422D01*
X205376754Y-141858994D01*
X205288679Y-141890754D01*
X205266311Y-141993817D01*
X205265739Y-142018768D01*
X205233979Y-142106843D01*
X205130916Y-142129211D01*
X205027255Y-142152590D01*
X204995522Y-142237527D01*
X204724733Y-142237527D01*
X204753956Y-142154597D01*
X204860127Y-142129211D01*
X204885079Y-142128640D01*
X204973153Y-142096880D01*
X204995522Y-141993817D01*
X204996094Y-141968866D01*
X205027853Y-141880791D01*
X205130916Y-141858422D01*
X205155867Y-141857851D01*
X205243942Y-141826091D01*
X205266311Y-141723028D01*
X205263746Y-141668691D01*
X205236407Y-141614426D01*
X205156232Y-141592023D01*
X204995522Y-141587633D01*
X204886848Y-141588916D01*
X204778318Y-141602585D01*
X204733513Y-141642673D01*
X204724733Y-141723028D01*
X204722168Y-141777365D01*
X204694829Y-141831630D01*
X204614655Y-141854033D01*
X204453944Y-141858422D01*
X204345270Y-141857140D01*
X204236740Y-141843471D01*
X204191935Y-141803383D01*
X204183155Y-141723028D01*
X204182583Y-141698077D01*
X204150824Y-141610002D01*
X204047761Y-141587633D01*
X204022810Y-141587062D01*
X203934735Y-141555302D01*
X203912366Y-141452239D01*
X204453944Y-141452239D01*
X204454516Y-141477190D01*
X204486276Y-141565265D01*
X204589339Y-141587633D01*
X204614290Y-141587062D01*
X204702364Y-141555302D01*
X204724733Y-141452239D01*
X205266311Y-141452239D01*
X205268876Y-141506576D01*
X205296215Y-141560841D01*
X205376389Y-141583244D01*
X205537100Y-141587633D01*
X205645774Y-141586351D01*
X205754304Y-141572682D01*
X205799109Y-141532594D01*
X205807889Y-141452239D01*
X205805323Y-141397902D01*
X205777985Y-141343637D01*
X205697810Y-141321234D01*
X205537100Y-141316845D01*
X205428426Y-141318127D01*
X205319895Y-141331796D01*
X205275090Y-141371884D01*
X205266311Y-141452239D01*
X204724733Y-141452239D01*
X204724161Y-141427288D01*
X204692401Y-141339213D01*
X204589339Y-141316845D01*
X204564387Y-141317416D01*
X204476313Y-141349176D01*
X204453944Y-141452239D01*
X203912366Y-141452239D01*
X203914931Y-141397902D01*
X203942270Y-141343637D01*
X204022445Y-141321234D01*
X204183155Y-141316845D01*
X204291829Y-141315562D01*
X204400359Y-141301893D01*
X204445165Y-141261805D01*
X204453944Y-141181450D01*
X204454516Y-141156499D01*
X204486276Y-141068424D01*
X204589339Y-141046056D01*
X204614290Y-141046627D01*
X204702364Y-141078387D01*
X204724733Y-141181450D01*
X204727298Y-141235787D01*
X204754637Y-141290052D01*
X204834811Y-141312455D01*
X204995522Y-141316845D01*
X205104196Y-141315562D01*
X205212726Y-141301893D01*
X205257531Y-141261805D01*
X205266311Y-141181450D01*
X206349466Y-141181450D01*
X206350038Y-141206401D01*
X206381798Y-141294476D01*
X206484861Y-141316845D01*
X206509812Y-141316273D01*
X206597887Y-141284513D01*
X206620255Y-141181450D01*
X206619684Y-141156499D01*
X206587924Y-141068424D01*
X206484861Y-141046056D01*
X206459910Y-141046627D01*
X206371835Y-141078387D01*
X206349466Y-141181450D01*
X205266311Y-141181450D01*
X205265739Y-141156499D01*
X205233979Y-141068424D01*
X205130916Y-141046056D01*
X205105965Y-141045484D01*
X205017890Y-141013724D01*
X204995522Y-140910661D01*
X204997015Y-140863106D01*
X205015574Y-140813269D01*
X205073998Y-140787086D01*
X205195103Y-140776954D01*
X205401705Y-140775267D01*
X205544371Y-140775764D01*
X205693883Y-140781951D01*
X205772430Y-140801426D01*
X205802827Y-140841794D01*
X205807889Y-140910661D01*
X205810454Y-140964998D01*
X205837792Y-141019263D01*
X205917967Y-141041666D01*
X206078678Y-141046056D01*
X206187352Y-141044773D01*
X206295882Y-141031104D01*
X206340687Y-140991016D01*
X206349466Y-140910661D01*
X206352032Y-140856324D01*
X206379370Y-140802059D01*
X206459545Y-140779657D01*
X206620255Y-140775267D01*
X206891044Y-140775267D01*
X206891044Y-141046056D01*
X206889762Y-141154730D01*
X206886396Y-141181450D01*
X206876092Y-141263260D01*
G37*
G36*
X203643265Y-139350115D02*
G01*
X203641577Y-139556717D01*
X203641577Y-139962900D01*
X203262473Y-139962900D01*
X203161384Y-139962654D01*
X203004349Y-139957386D01*
X202921402Y-139938726D01*
X202888943Y-139898242D01*
X202883368Y-139827506D01*
X202882797Y-139802554D01*
X202851037Y-139714480D01*
X202747974Y-139692111D01*
X202723023Y-139691539D01*
X202634948Y-139659780D01*
X202612579Y-139556717D01*
X202613151Y-139531766D01*
X202644911Y-139443691D01*
X202747974Y-139421322D01*
X202802311Y-139418757D01*
X202856576Y-139391418D01*
X202878979Y-139311244D01*
X202879670Y-139285928D01*
X203154157Y-139285928D01*
X203154327Y-139359043D01*
X203159005Y-139538430D01*
X203174599Y-139638773D01*
X203207092Y-139682518D01*
X203262473Y-139692111D01*
X203281970Y-139691474D01*
X203329807Y-139673931D01*
X203356565Y-139615456D01*
X203368230Y-139493604D01*
X203370788Y-139285928D01*
X203370619Y-139212812D01*
X203365940Y-139033425D01*
X203350347Y-138933083D01*
X203317853Y-138889338D01*
X203262473Y-138879744D01*
X203242975Y-138880381D01*
X203195139Y-138897925D01*
X203168381Y-138956399D01*
X203156716Y-139078251D01*
X203154157Y-139285928D01*
X202879670Y-139285928D01*
X202883368Y-139150533D01*
X202882086Y-139041859D01*
X202868417Y-138933329D01*
X202828329Y-138888524D01*
X202747974Y-138879744D01*
X202723023Y-138880316D01*
X202634948Y-138912076D01*
X202612579Y-139015139D01*
X202610014Y-139069476D01*
X202582676Y-139123741D01*
X202502501Y-139146144D01*
X202341791Y-139150533D01*
X202233117Y-139149251D01*
X202124586Y-139135581D01*
X202079781Y-139095494D01*
X202071002Y-139015139D01*
X202071573Y-138990188D01*
X202103333Y-138902113D01*
X202206396Y-138879744D01*
X202231347Y-138879173D01*
X202319422Y-138847413D01*
X202341791Y-138744350D01*
X202344356Y-138690013D01*
X202371694Y-138635748D01*
X202451869Y-138613345D01*
X202612579Y-138608955D01*
X202721253Y-138610238D01*
X202829784Y-138623907D01*
X202874589Y-138663995D01*
X202883368Y-138744350D01*
X202883940Y-138769301D01*
X202915700Y-138857376D01*
X203018763Y-138879744D01*
X203043714Y-138879173D01*
X203131789Y-138847413D01*
X203154157Y-138744350D01*
X203177536Y-138640688D01*
X203262473Y-138608955D01*
X203345402Y-138638179D01*
X203370788Y-138744350D01*
X203373354Y-138798687D01*
X203400692Y-138852952D01*
X203480867Y-138875355D01*
X203641577Y-138879744D01*
X203750251Y-138881027D01*
X203858782Y-138894696D01*
X203903587Y-138934784D01*
X203912366Y-139015139D01*
X203911794Y-139040090D01*
X203880035Y-139128165D01*
X203776972Y-139150533D01*
X203729417Y-139152026D01*
X203679579Y-139170585D01*
X203653397Y-139229010D01*
X203648635Y-139285928D01*
X203643265Y-139350115D01*
G37*
G36*
X202612579Y-140233689D02*
G01*
X202613862Y-140342363D01*
X202627531Y-140450893D01*
X202667619Y-140495698D01*
X202747974Y-140504478D01*
X202772925Y-140503906D01*
X202861000Y-140472146D01*
X202883368Y-140369083D01*
X202883940Y-140344132D01*
X202915700Y-140256057D01*
X203018763Y-140233689D01*
X203073100Y-140236254D01*
X203127365Y-140263593D01*
X203149768Y-140343767D01*
X203154157Y-140504478D01*
X203154157Y-140775267D01*
X202883368Y-140775267D01*
X202774694Y-140773984D01*
X202666164Y-140760315D01*
X202621359Y-140720228D01*
X202612579Y-140639872D01*
X202612008Y-140614921D01*
X202580248Y-140526846D01*
X202477185Y-140504478D01*
X202452234Y-140503906D01*
X202364159Y-140472146D01*
X202341791Y-140369083D01*
X202341219Y-140344132D01*
X202309459Y-140256057D01*
X202206396Y-140233689D01*
X202181445Y-140234261D01*
X202093370Y-140266020D01*
X202071002Y-140369083D01*
X202070430Y-140394034D01*
X202038670Y-140482109D01*
X201935607Y-140504478D01*
X201888052Y-140505971D01*
X201838215Y-140524530D01*
X201812032Y-140582954D01*
X201801900Y-140704059D01*
X201800213Y-140910661D01*
X201799715Y-141053326D01*
X201793529Y-141202839D01*
X201774054Y-141281386D01*
X201733686Y-141311783D01*
X201664818Y-141316845D01*
X201617263Y-141315351D01*
X201567426Y-141296793D01*
X201541243Y-141238368D01*
X201531111Y-141117263D01*
X201529424Y-140910661D01*
X201528926Y-140767996D01*
X201522740Y-140618483D01*
X201503265Y-140539936D01*
X201462897Y-140509540D01*
X201394029Y-140504478D01*
X201339692Y-140501913D01*
X201285427Y-140474574D01*
X201263025Y-140394399D01*
X201258635Y-140233689D01*
X201259917Y-140125015D01*
X201273587Y-140016485D01*
X201313674Y-139971680D01*
X201394029Y-139962900D01*
X201448366Y-139965465D01*
X201502632Y-139992804D01*
X201525034Y-140072978D01*
X201529424Y-140233689D01*
X201530706Y-140342363D01*
X201544376Y-140450893D01*
X201584463Y-140495698D01*
X201664818Y-140504478D01*
X201689769Y-140503906D01*
X201777844Y-140472146D01*
X201800213Y-140369083D01*
X201800785Y-140344132D01*
X201832544Y-140256057D01*
X201935607Y-140233689D01*
X201960558Y-140233117D01*
X202048633Y-140201357D01*
X202071002Y-140098294D01*
X202073567Y-140043957D01*
X202100905Y-139989692D01*
X202181080Y-139967290D01*
X202341791Y-139962900D01*
X202612579Y-139962900D01*
X202612579Y-140233689D01*
G37*
G36*
X201418980Y-138609527D02*
G01*
X201507055Y-138641287D01*
X201529424Y-138744350D01*
X201529996Y-138769301D01*
X201561755Y-138857376D01*
X201664818Y-138879744D01*
X201719155Y-138882310D01*
X201773420Y-138909648D01*
X201795823Y-138989823D01*
X201800213Y-139150533D01*
X201801495Y-139259207D01*
X201815165Y-139367738D01*
X201855252Y-139412543D01*
X201935607Y-139421322D01*
X201960558Y-139421894D01*
X202048633Y-139453654D01*
X202071002Y-139556717D01*
X202070430Y-139581668D01*
X202038670Y-139669743D01*
X201935607Y-139692111D01*
X201910656Y-139691539D01*
X201822581Y-139659780D01*
X201800213Y-139556717D01*
X201797648Y-139502380D01*
X201770309Y-139448114D01*
X201690134Y-139425712D01*
X201529424Y-139421322D01*
X201258635Y-139421322D01*
X201258635Y-139015139D01*
X201259133Y-138872474D01*
X201265319Y-138722961D01*
X201284794Y-138644414D01*
X201325162Y-138614018D01*
X201394029Y-138608955D01*
X201418980Y-138609527D01*
G37*
G36*
X206889850Y-139750107D02*
G01*
X206884870Y-140027181D01*
X206876692Y-140251894D01*
X206866049Y-140405595D01*
X206853676Y-140469635D01*
X206818456Y-140478167D01*
X206689145Y-140487517D01*
X206483666Y-140493276D01*
X206220833Y-140494988D01*
X205919455Y-140492201D01*
X205022601Y-140477399D01*
X205007782Y-139543177D01*
X204997259Y-138879744D01*
X205266311Y-138879744D01*
X205266311Y-139556717D01*
X205266311Y-140233689D01*
X205943283Y-140233689D01*
X206620255Y-140233689D01*
X206620255Y-139556717D01*
X206620255Y-138879744D01*
X205943283Y-138879744D01*
X205266311Y-138879744D01*
X204997259Y-138879744D01*
X204992964Y-138608955D01*
X205942004Y-138608955D01*
X206891044Y-138608955D01*
X206891044Y-139520611D01*
X206890856Y-139556717D01*
X206889850Y-139750107D01*
G37*
G36*
X200986652Y-139750107D02*
G01*
X200981672Y-140027181D01*
X200973494Y-140251894D01*
X200962851Y-140405595D01*
X200950478Y-140469635D01*
X200915257Y-140478167D01*
X200785946Y-140487517D01*
X200580468Y-140493276D01*
X200317634Y-140494988D01*
X200016256Y-140492201D01*
X199119402Y-140477399D01*
X199104584Y-139543177D01*
X199094061Y-138879744D01*
X199363113Y-138879744D01*
X199363113Y-139556717D01*
X199363113Y-140233689D01*
X200040085Y-140233689D01*
X200717057Y-140233689D01*
X200717057Y-139556717D01*
X200717057Y-138879744D01*
X200040085Y-138879744D01*
X199363113Y-138879744D01*
X199094061Y-138879744D01*
X199089766Y-138608955D01*
X200038806Y-138608955D01*
X200987846Y-138608955D01*
X200987846Y-139520611D01*
X200987658Y-139556717D01*
X200986652Y-139750107D01*
G37*
G36*
X206891044Y-146410234D02*
G01*
X205956823Y-146395416D01*
X205022601Y-146380597D01*
X205022601Y-145459915D01*
X205022601Y-144782943D01*
X205266311Y-144782943D01*
X205266311Y-145459915D01*
X205266311Y-146136887D01*
X205943283Y-146136887D01*
X206620255Y-146136887D01*
X206620255Y-145459915D01*
X206620255Y-144782943D01*
X205943283Y-144782943D01*
X205266311Y-144782943D01*
X205022601Y-144782943D01*
X205022601Y-144539233D01*
X205956823Y-144524414D01*
X206891044Y-144509596D01*
X206891044Y-145459915D01*
X206891044Y-146410234D01*
G37*
G36*
X202612579Y-142102132D02*
G01*
X202612062Y-142167866D01*
X202600319Y-142286090D01*
X202560734Y-142335741D01*
X202477185Y-142345842D01*
X202373523Y-142322464D01*
X202341791Y-142237527D01*
X202312567Y-142154597D01*
X202206396Y-142129211D01*
X202181445Y-142128640D01*
X202093370Y-142096880D01*
X202071002Y-141993817D01*
X202073567Y-141939480D01*
X202100905Y-141885215D01*
X202181080Y-141862812D01*
X202341791Y-141858422D01*
X202612579Y-141858422D01*
X202612579Y-142102132D01*
G37*
G36*
X206780601Y-143158781D02*
G01*
X206868676Y-143190541D01*
X206891044Y-143293604D01*
X206890472Y-143318555D01*
X206858713Y-143406630D01*
X206755650Y-143428998D01*
X206730699Y-143428426D01*
X206642624Y-143396667D01*
X206620255Y-143293604D01*
X206620827Y-143268653D01*
X206652587Y-143180578D01*
X206755650Y-143158209D01*
X206780601Y-143158781D01*
G37*
G36*
X203043714Y-146137459D02*
G01*
X203131789Y-146169219D01*
X203154157Y-146272282D01*
X203153586Y-146297233D01*
X203121826Y-146385308D01*
X203018763Y-146407676D01*
X202993812Y-146407104D01*
X202905737Y-146375345D01*
X202883368Y-146272282D01*
X202883940Y-146247331D01*
X202915700Y-146159256D01*
X203018763Y-146136887D01*
X203043714Y-146137459D01*
G37*
G36*
X201960558Y-143429570D02*
G01*
X202048633Y-143461330D01*
X202071002Y-143564393D01*
X202070430Y-143589344D01*
X202038670Y-143677418D01*
X201935607Y-143699787D01*
X201910656Y-143699215D01*
X201822581Y-143667455D01*
X201800213Y-143564393D01*
X201800785Y-143539441D01*
X201832544Y-143451367D01*
X201935607Y-143428998D01*
X201960558Y-143429570D01*
G37*
G36*
X200877403Y-144512726D02*
G01*
X200965477Y-144544485D01*
X200987846Y-144647548D01*
X200987274Y-144672499D01*
X200955514Y-144760574D01*
X200852452Y-144782943D01*
X200827500Y-144782371D01*
X200739426Y-144750611D01*
X200717057Y-144647548D01*
X200717629Y-144622597D01*
X200749389Y-144534522D01*
X200852452Y-144512154D01*
X200877403Y-144512726D01*
G37*
G36*
X199252669Y-141317416D02*
G01*
X199340744Y-141349176D01*
X199363113Y-141452239D01*
X199362541Y-141477190D01*
X199330781Y-141565265D01*
X199227718Y-141587633D01*
X199202767Y-141587062D01*
X199114692Y-141555302D01*
X199092324Y-141452239D01*
X199092895Y-141427288D01*
X199124655Y-141339213D01*
X199227718Y-141316845D01*
X199252669Y-141317416D01*
G37*
G36*
X206349466Y-145459915D02*
G01*
X206349466Y-145866098D01*
X205943283Y-145866098D01*
X205537100Y-145866098D01*
X205537100Y-145459915D01*
X205537100Y-145053732D01*
X205943283Y-145053732D01*
X206349466Y-145053732D01*
X206349466Y-145459915D01*
G37*
G36*
X206349466Y-139556717D02*
G01*
X206349466Y-139962900D01*
X205943283Y-139962900D01*
X205537100Y-139962900D01*
X205537100Y-139556717D01*
X205537100Y-139150533D01*
X205943283Y-139150533D01*
X206349466Y-139150533D01*
X206349466Y-139556717D01*
G37*
G36*
X200446268Y-139556717D02*
G01*
X200446268Y-139962900D01*
X200040085Y-139962900D01*
X199633901Y-139962900D01*
X199633901Y-139556717D01*
X199633901Y-139150533D01*
X200040085Y-139150533D01*
X200446268Y-139150533D01*
X200446268Y-139556717D01*
G37*
G36*
X212470082Y-139121770D02*
G01*
X212398451Y-139247308D01*
X212312325Y-139309823D01*
X212203537Y-139343787D01*
X212163379Y-139348304D01*
X212099449Y-139391867D01*
X212081217Y-139404291D01*
X212021285Y-139534425D01*
X211976416Y-139751576D01*
X211941562Y-139984019D01*
X212343829Y-140002287D01*
X212581368Y-140021811D01*
X212792793Y-140070662D01*
X212932361Y-140156184D01*
X213014636Y-140288093D01*
X213034772Y-140383815D01*
X213054186Y-140476104D01*
X213072450Y-140570363D01*
X213140435Y-140760384D01*
X213238862Y-140955052D01*
X213349528Y-141120404D01*
X213454230Y-141222479D01*
X213483313Y-141263804D01*
X213532511Y-141379794D01*
X213583534Y-141538152D01*
X213617875Y-141657295D01*
X213682215Y-141874833D01*
X213758646Y-142128991D01*
X213837091Y-142386066D01*
X213864134Y-142476426D01*
X213897452Y-142587752D01*
X213952845Y-142784088D01*
X213964443Y-142825197D01*
X214016649Y-143025548D01*
X214046186Y-143159638D01*
X214070375Y-143259179D01*
X214079853Y-143298185D01*
X214136119Y-143371297D01*
X214241023Y-143411960D01*
X214316495Y-143437079D01*
X214474369Y-143543111D01*
X214588670Y-143716001D01*
X214661799Y-143962602D01*
X214677225Y-144109489D01*
X214696158Y-144289764D01*
X214694151Y-144704340D01*
X214686097Y-144870188D01*
X214672575Y-145036925D01*
X214666777Y-145108424D01*
X214635710Y-145300529D01*
X214586477Y-145481196D01*
X214512657Y-145685118D01*
X214496778Y-145724831D01*
X214395129Y-145945022D01*
X214281090Y-146149623D01*
X214176468Y-146298826D01*
X214102054Y-146383123D01*
X214015513Y-146472999D01*
X213971057Y-146507890D01*
X213970880Y-146507887D01*
X213924280Y-146472253D01*
X213849876Y-146387472D01*
X213735110Y-146269750D01*
X213501685Y-146103695D01*
X213207786Y-145952572D01*
X212876632Y-145829688D01*
X212477052Y-145741726D01*
X211994247Y-145703184D01*
X211498356Y-145725469D01*
X211024457Y-145808975D01*
X210893536Y-145840538D01*
X210405297Y-145924653D01*
X209966408Y-145940495D01*
X209558598Y-145889063D01*
X209488866Y-145873573D01*
X209035632Y-145734342D01*
X208664949Y-145546448D01*
X208380221Y-145311559D01*
X208213408Y-145113232D01*
X208055710Y-144855494D01*
X207956113Y-144576266D01*
X207910822Y-144258283D01*
X207916040Y-143884285D01*
X207967970Y-143437008D01*
X207985887Y-143286716D01*
X208233554Y-143286716D01*
X208543319Y-143314805D01*
X208689223Y-143330776D01*
X208819387Y-143351324D01*
X208879644Y-143369454D01*
X208883005Y-143377120D01*
X208888378Y-143459594D01*
X208884019Y-143608961D01*
X208870472Y-143799684D01*
X208834739Y-144203353D01*
X208539361Y-144203353D01*
X208412411Y-144207944D01*
X208290040Y-144226371D01*
X208243984Y-144255061D01*
X208244260Y-144263991D01*
X208277071Y-144385951D01*
X208352756Y-144541944D01*
X208454480Y-144706903D01*
X208565412Y-144855764D01*
X208668719Y-144963462D01*
X208747567Y-145004931D01*
X208751166Y-145002864D01*
X208771005Y-144939381D01*
X208791727Y-144805114D01*
X208809390Y-144624338D01*
X208812189Y-144588649D01*
X208829489Y-144409455D01*
X208847549Y-144277447D01*
X208862886Y-144219034D01*
X208866975Y-144216866D01*
X208939027Y-144215150D01*
X209072079Y-144227303D01*
X209234563Y-144248757D01*
X209394912Y-144274944D01*
X209521560Y-144301295D01*
X209582938Y-144323241D01*
X209584179Y-144325031D01*
X209590386Y-144391740D01*
X209585820Y-144528185D01*
X209571301Y-144707286D01*
X209535191Y-145066857D01*
X209190179Y-145032861D01*
X209004788Y-145021184D01*
X208881811Y-145030562D01*
X208851881Y-145061218D01*
X208917092Y-145110453D01*
X209079536Y-145175567D01*
X209186385Y-145209290D01*
X209382253Y-145250304D01*
X209504419Y-145240654D01*
X209546548Y-145180277D01*
X209546677Y-145174427D01*
X209570511Y-145124402D01*
X209645346Y-145109589D01*
X209785378Y-145130177D01*
X210004804Y-145186354D01*
X210032317Y-145193957D01*
X210234823Y-145237512D01*
X210362547Y-145232719D01*
X210429157Y-145175772D01*
X210448323Y-145062865D01*
X210456809Y-144922234D01*
X210480557Y-144756090D01*
X210497193Y-144681863D01*
X210530658Y-144624233D01*
X210602683Y-144610750D01*
X210743575Y-144626478D01*
X210824297Y-144637606D01*
X211025367Y-144668194D01*
X211150517Y-144696958D01*
X211217693Y-144731902D01*
X211244840Y-144781033D01*
X211249901Y-144852354D01*
X211241887Y-144985741D01*
X211218589Y-145148965D01*
X211213325Y-145174821D01*
X211190004Y-145249797D01*
X211143669Y-145288664D01*
X211048592Y-145303285D01*
X210879046Y-145305523D01*
X210733177Y-145312286D01*
X210526967Y-145354888D01*
X210394763Y-145432285D01*
X210348126Y-145539383D01*
X210351391Y-145565510D01*
X210395889Y-145597743D01*
X210510946Y-145587984D01*
X210537999Y-145583182D01*
X210708260Y-145554415D01*
X210888537Y-145525611D01*
X210914979Y-145521017D01*
X211072321Y-145470044D01*
X211170474Y-145396626D01*
X211178724Y-145385546D01*
X211231094Y-145341815D01*
X211317834Y-145314573D01*
X211460871Y-145299317D01*
X211682134Y-145291543D01*
X211729755Y-145290807D01*
X211980184Y-145293329D01*
X212224090Y-145304585D01*
X212414694Y-145322593D01*
X212444779Y-145326787D01*
X212593292Y-145344675D01*
X212669951Y-145340043D01*
X212698519Y-145305582D01*
X212702761Y-145233980D01*
X212703081Y-145215450D01*
X212729639Y-145128411D01*
X212815483Y-145105813D01*
X212886581Y-145107823D01*
X213045532Y-145136180D01*
X213129264Y-145206099D01*
X213153648Y-145328010D01*
X213160353Y-145417909D01*
X213206434Y-145491723D01*
X213322195Y-145540835D01*
X213439351Y-145568048D01*
X213509349Y-145543141D01*
X213575326Y-145449371D01*
X213659912Y-145306179D01*
X213859386Y-145407943D01*
X213916384Y-145434860D01*
X214037205Y-145476816D01*
X214107956Y-145479364D01*
X214137959Y-145445963D01*
X214202272Y-145347340D01*
X214273869Y-145221650D01*
X214332025Y-145105857D01*
X214356015Y-145036925D01*
X214329452Y-145008033D01*
X214242202Y-144948715D01*
X214127093Y-144881821D01*
X214018623Y-144827159D01*
X213951289Y-144804537D01*
X213900077Y-144844441D01*
X213843274Y-144942308D01*
X213786982Y-145068720D01*
X213716018Y-145197512D01*
X213646430Y-145256405D01*
X213556900Y-145259669D01*
X213426109Y-145221575D01*
X213203747Y-145145809D01*
X213203747Y-144877932D01*
X213207163Y-144772857D01*
X213223211Y-144644253D01*
X213247968Y-144582726D01*
X213300058Y-144581309D01*
X213422884Y-144606810D01*
X213583071Y-144655474D01*
X213624260Y-144669499D01*
X213784748Y-144716121D01*
X213881459Y-144717471D01*
X213938402Y-144667866D01*
X213979591Y-144561623D01*
X213993289Y-144510306D01*
X213982283Y-144464657D01*
X213902739Y-144479654D01*
X213853134Y-144493409D01*
X213810353Y-144480763D01*
X213825853Y-144396927D01*
X213857650Y-144278964D01*
X213858614Y-144220201D01*
X214207917Y-144220201D01*
X214246377Y-144240548D01*
X214343491Y-144275654D01*
X214362899Y-144281369D01*
X214425150Y-144285779D01*
X214451049Y-144236158D01*
X214456213Y-144109489D01*
X214455296Y-144067696D01*
X214440457Y-143944663D01*
X214413228Y-143882109D01*
X214378281Y-143896163D01*
X214316753Y-143969078D01*
X214253824Y-144070485D01*
X214210533Y-144165740D01*
X214207917Y-144220201D01*
X213858614Y-144220201D01*
X213859279Y-144179644D01*
X213799548Y-144125822D01*
X213663861Y-144089827D01*
X213536949Y-144074506D01*
X213358662Y-144103558D01*
X213244182Y-144198529D01*
X213203747Y-144353552D01*
X213199296Y-144434781D01*
X213163361Y-144483474D01*
X213065976Y-144478288D01*
X212922182Y-144455429D01*
X212693702Y-144429097D01*
X212490968Y-144424344D01*
X212267020Y-144438852D01*
X212141304Y-144454085D01*
X212000029Y-144488079D01*
X211951282Y-144530879D01*
X211949676Y-144547768D01*
X211897946Y-144608785D01*
X211766580Y-144643343D01*
X211546395Y-144654241D01*
X211300000Y-144654241D01*
X211300000Y-144378699D01*
X211303361Y-144237226D01*
X211326717Y-144144621D01*
X211389726Y-144104482D01*
X211512040Y-144105237D01*
X211713313Y-144135312D01*
X211757892Y-144143732D01*
X211868254Y-144186988D01*
X211901183Y-144257050D01*
X211906743Y-144307259D01*
X211939731Y-144371560D01*
X211963833Y-144377547D01*
X212071572Y-144358173D01*
X212232930Y-144299945D01*
X212426952Y-144213720D01*
X212632686Y-144110355D01*
X212829176Y-144000705D01*
X212995469Y-143895627D01*
X213110611Y-143805978D01*
X213153648Y-143742615D01*
X213140353Y-143719918D01*
X213072050Y-143722960D01*
X213045632Y-143732228D01*
X212924592Y-143768531D01*
X212771459Y-143809415D01*
X212707986Y-143827148D01*
X212589127Y-143883020D01*
X212552465Y-143953448D01*
X212541482Y-144002673D01*
X212473220Y-144072747D01*
X212382650Y-144093075D01*
X212245431Y-144102556D01*
X212104905Y-144098587D01*
X211995410Y-144082337D01*
X211951282Y-144054976D01*
X211925327Y-144039589D01*
X211814221Y-144023411D01*
X211629846Y-144013821D01*
X211387672Y-144012000D01*
X211197680Y-144011744D01*
X210966131Y-144006049D01*
X210777833Y-143995414D01*
X210661242Y-143981052D01*
X210498422Y-143944899D01*
X210498422Y-144200945D01*
X210489741Y-144358041D01*
X210452487Y-144453179D01*
X210370452Y-144490379D01*
X210227429Y-144476863D01*
X210007210Y-144419853D01*
X209671794Y-144322930D01*
X209688442Y-143975127D01*
X209688814Y-143967471D01*
X209700205Y-143792643D01*
X209713951Y-143662694D01*
X209727159Y-143605254D01*
X209728632Y-143604310D01*
X209790924Y-143610333D01*
X209919905Y-143641930D01*
X210089806Y-143692874D01*
X210103257Y-143697198D01*
X210273660Y-143750447D01*
X210403071Y-143788213D01*
X210464402Y-143802565D01*
X210476646Y-143785689D01*
X210492299Y-143694996D01*
X210498422Y-143552071D01*
X210500159Y-143461942D01*
X210509502Y-143346667D01*
X210524227Y-143301578D01*
X210581534Y-143309457D01*
X210711571Y-143341818D01*
X210871223Y-143389777D01*
X211028860Y-143443071D01*
X211152849Y-143491435D01*
X211211560Y-143524607D01*
X211236012Y-143593600D01*
X211249134Y-143714892D01*
X211252904Y-143770138D01*
X211281527Y-143828823D01*
X211353471Y-143850897D01*
X211486486Y-143839660D01*
X211698323Y-143798413D01*
X211778738Y-143778353D01*
X211904749Y-143728357D01*
X211951282Y-143676772D01*
X211958923Y-143655798D01*
X212046036Y-143609562D01*
X212226824Y-143574953D01*
X212340602Y-143556129D01*
X212457184Y-143522917D01*
X212502366Y-143489191D01*
X212491139Y-143472848D01*
X212398325Y-143460787D01*
X212214299Y-143477947D01*
X211998546Y-143500175D01*
X211754597Y-143509252D01*
X211534213Y-143502262D01*
X211362640Y-143480114D01*
X211265125Y-143443720D01*
X211262615Y-143441690D01*
X211165669Y-143388160D01*
X211011984Y-143326267D01*
X210856052Y-143273657D01*
X213315179Y-143273657D01*
X213395562Y-143368962D01*
X213484847Y-143418492D01*
X213636122Y-143448363D01*
X213788140Y-143440148D01*
X213895108Y-143391756D01*
X213904329Y-143381932D01*
X213955750Y-143259179D01*
X213934248Y-143118993D01*
X213854723Y-142987060D01*
X213732077Y-142889064D01*
X213581211Y-142850691D01*
X213459206Y-142868194D01*
X213384452Y-142929936D01*
X213364272Y-142990461D01*
X213363910Y-143075808D01*
X213429191Y-143101184D01*
X213463761Y-143106836D01*
X213504339Y-143151282D01*
X213485550Y-143180401D01*
X213404142Y-143201381D01*
X213325044Y-143216976D01*
X213315179Y-143273657D01*
X210856052Y-143273657D01*
X210831425Y-143265348D01*
X210653856Y-143214736D01*
X210509141Y-143183768D01*
X210427145Y-143181779D01*
X210362128Y-143180629D01*
X210229735Y-143144936D01*
X210068534Y-143080725D01*
X209933506Y-143021168D01*
X209806673Y-142970405D01*
X209740888Y-142950888D01*
X209722246Y-142977551D01*
X209703930Y-143079942D01*
X209696844Y-143232833D01*
X209696844Y-143514779D01*
X209508974Y-143483766D01*
X209504082Y-143482951D01*
X209317911Y-143445612D01*
X209133234Y-143399860D01*
X208945364Y-143346967D01*
X208945364Y-142948533D01*
X208950675Y-142741816D01*
X208969835Y-142597773D01*
X209003173Y-142550099D01*
X209007601Y-142550480D01*
X209085897Y-142578954D01*
X209221087Y-142643736D01*
X209386742Y-142732274D01*
X209712502Y-142914450D01*
X209693773Y-142719516D01*
X210402606Y-142719516D01*
X210416010Y-142774680D01*
X210432683Y-142821152D01*
X210448323Y-142879838D01*
X210456633Y-142889386D01*
X210523471Y-142900789D01*
X210588058Y-142884071D01*
X210581041Y-142832086D01*
X210491158Y-142757584D01*
X210442823Y-142728707D01*
X210402606Y-142719516D01*
X209693773Y-142719516D01*
X209679355Y-142569454D01*
X209665112Y-142427144D01*
X209637870Y-142227621D01*
X209614379Y-142145760D01*
X210723865Y-142145760D01*
X210878336Y-142147535D01*
X210902364Y-142148044D01*
X211033332Y-142167758D01*
X211071690Y-142218224D01*
X211021043Y-142303379D01*
X210972717Y-142395410D01*
X210958310Y-142555501D01*
X210966746Y-142606195D01*
X211017980Y-142712410D01*
X211124604Y-142807177D01*
X211268889Y-142884071D01*
X211300857Y-142901108D01*
X211560973Y-143004817D01*
X211661160Y-143037270D01*
X211856807Y-143083162D01*
X212018886Y-143101184D01*
X212213151Y-143101184D01*
X212180021Y-142863215D01*
X212149855Y-142725757D01*
X212082389Y-142517759D01*
X211997665Y-142315821D01*
X211948834Y-142218046D01*
X211899321Y-142136267D01*
X212168946Y-142136267D01*
X212188069Y-142259709D01*
X212245315Y-142410296D01*
X212274729Y-142482628D01*
X212339070Y-142667800D01*
X212380044Y-142823610D01*
X212388717Y-142864999D01*
X212434739Y-142974470D01*
X212505947Y-142989915D01*
X212613657Y-142915800D01*
X212636299Y-142895850D01*
X212698862Y-142859037D01*
X212771611Y-142868525D01*
X212893144Y-142925678D01*
X212934897Y-142947059D01*
X213050354Y-143005796D01*
X213113874Y-143037511D01*
X213114277Y-143037692D01*
X213163675Y-143011736D01*
X213232240Y-142927613D01*
X213241704Y-142912952D01*
X213273260Y-142851624D01*
X213282919Y-142784088D01*
X213267711Y-142688313D01*
X213224664Y-142542268D01*
X213150805Y-142323923D01*
X213079044Y-142117163D01*
X213017530Y-141960314D01*
X212957253Y-141854719D01*
X212880990Y-141777922D01*
X212771517Y-141707466D01*
X212611611Y-141620895D01*
X212595585Y-141612334D01*
X212451052Y-141540997D01*
X212356890Y-141521845D01*
X212295763Y-141566428D01*
X212250341Y-141686296D01*
X212203290Y-141893001D01*
X212183951Y-141990767D01*
X212168946Y-142136267D01*
X211899321Y-142136267D01*
X211866930Y-142082768D01*
X211789379Y-142008512D01*
X211696670Y-141973060D01*
X211624911Y-141962549D01*
X211427497Y-141960515D01*
X211204526Y-141982152D01*
X210997798Y-142022380D01*
X210849112Y-142076114D01*
X210723865Y-142145760D01*
X209614379Y-142145760D01*
X209599155Y-142092708D01*
X209536648Y-141999456D01*
X209438027Y-141924919D01*
X209290969Y-141846151D01*
X209144085Y-141774786D01*
X209018811Y-141719564D01*
X208954317Y-141698423D01*
X208950188Y-141700167D01*
X208933972Y-141762084D01*
X208928289Y-141894864D01*
X208934428Y-142074162D01*
X208943647Y-142274403D01*
X208931133Y-142398418D01*
X208883024Y-142447902D01*
X208786177Y-142435725D01*
X208627451Y-142374754D01*
X208596037Y-142361907D01*
X208474502Y-142317531D01*
X208402360Y-142299606D01*
X208376702Y-142337539D01*
X208347203Y-142450675D01*
X208322937Y-142612722D01*
X208306524Y-142756689D01*
X208281943Y-142955553D01*
X208261153Y-143106278D01*
X208233554Y-143286716D01*
X207985887Y-143286716D01*
X207996253Y-143199758D01*
X208019067Y-142876554D01*
X208030723Y-142528480D01*
X208031241Y-142180427D01*
X208020645Y-141857286D01*
X207998954Y-141583949D01*
X207966192Y-141385306D01*
X207951518Y-141316989D01*
X207963415Y-141268628D01*
X208030598Y-141250623D01*
X208175520Y-141248275D01*
X208426683Y-141268914D01*
X208774224Y-141341480D01*
X209140572Y-141455842D01*
X209495980Y-141601049D01*
X209810704Y-141766150D01*
X210054996Y-141940194D01*
X210115581Y-141991904D01*
X210214433Y-142068912D01*
X210267067Y-142099211D01*
X210280072Y-142093731D01*
X210298260Y-142021734D01*
X210289026Y-141882926D01*
X210254782Y-141698579D01*
X210197943Y-141489967D01*
X210153578Y-141335082D01*
X210100490Y-141110380D01*
X210067719Y-140921894D01*
X210060961Y-140861277D01*
X210058960Y-140785734D01*
X210220717Y-140785734D01*
X210260415Y-140829684D01*
X210276231Y-140846992D01*
X210320329Y-140950145D01*
X210368223Y-141123853D01*
X210413873Y-141347732D01*
X210433618Y-141461390D01*
X210469092Y-141671874D01*
X210496267Y-141841404D01*
X210510449Y-141941147D01*
X210523475Y-141999952D01*
X210554652Y-142021981D01*
X210584985Y-141970704D01*
X210598619Y-141860604D01*
X210600247Y-141826252D01*
X210603627Y-141805809D01*
X211074556Y-141805809D01*
X211350098Y-141820107D01*
X211450432Y-141827065D01*
X211644770Y-141848413D01*
X211796866Y-141874554D01*
X211826111Y-141881371D01*
X211920310Y-141898283D01*
X211936953Y-141877327D01*
X211892532Y-141806828D01*
X211884617Y-141795215D01*
X211851931Y-141728321D01*
X211841883Y-141643312D01*
X211854279Y-141513648D01*
X211888926Y-141312786D01*
X211899387Y-141256003D01*
X211928723Y-141074510D01*
X211935716Y-140955497D01*
X211925126Y-140898513D01*
X212455221Y-140898513D01*
X212502204Y-141011681D01*
X212663843Y-141196885D01*
X212812836Y-141342090D01*
X212918855Y-141413077D01*
X212965234Y-141443365D01*
X212975205Y-141503041D01*
X212972791Y-141535745D01*
X213047177Y-141525069D01*
X213072491Y-141517768D01*
X213137778Y-141524231D01*
X213153305Y-141607374D01*
X213156001Y-141639239D01*
X213181862Y-141769363D01*
X213229290Y-141953195D01*
X213291077Y-142161726D01*
X213324604Y-142263579D01*
X213388758Y-142435097D01*
X213443363Y-142552325D01*
X213479290Y-142594278D01*
X213553934Y-142582585D01*
X213666125Y-142539120D01*
X213687182Y-142476426D01*
X213672229Y-142429524D01*
X213634545Y-142299128D01*
X213582603Y-142112556D01*
X213522952Y-141893062D01*
X213456115Y-141655823D01*
X213393295Y-141476057D01*
X213320624Y-141330185D01*
X213221866Y-141185796D01*
X213080783Y-141010479D01*
X212926677Y-140833013D01*
X212798168Y-140711050D01*
X212699257Y-140659137D01*
X212616182Y-140670401D01*
X212535180Y-140737969D01*
X212502921Y-140777169D01*
X212455221Y-140898513D01*
X211925126Y-140898513D01*
X211919931Y-140870557D01*
X211880932Y-140791280D01*
X211878585Y-140787299D01*
X211823699Y-140689135D01*
X211800986Y-140638622D01*
X211816662Y-140632556D01*
X211905718Y-140624470D01*
X212047282Y-140621302D01*
X212082853Y-140620858D01*
X212286643Y-140590831D01*
X212452040Y-140504146D01*
X212592179Y-140425646D01*
X212731780Y-140417427D01*
X212813675Y-140426159D01*
X212853057Y-140383815D01*
X212830071Y-140320564D01*
X212718871Y-140243761D01*
X212523254Y-140187778D01*
X212251873Y-140155897D01*
X212226511Y-140154250D01*
X212039934Y-140136203D01*
X211894049Y-140112251D01*
X211818578Y-140087114D01*
X211813092Y-140083752D01*
X211736531Y-140090229D01*
X211623317Y-140140531D01*
X211505930Y-140214551D01*
X211416853Y-140292183D01*
X211388567Y-140353316D01*
X211382041Y-140395727D01*
X211378018Y-140401591D01*
X211326450Y-140476762D01*
X211296244Y-140514751D01*
X211223563Y-140670588D01*
X211160927Y-140892749D01*
X211114306Y-141156974D01*
X211089669Y-141439000D01*
X211074556Y-141805809D01*
X210603627Y-141805809D01*
X210627841Y-141659342D01*
X210682390Y-141438935D01*
X210754562Y-141195048D01*
X210835024Y-140957698D01*
X210914444Y-140756903D01*
X210983489Y-140622680D01*
X211031388Y-140524310D01*
X211045676Y-140401591D01*
X211001399Y-140321941D01*
X210947517Y-140323155D01*
X210828400Y-140363825D01*
X210675213Y-140434195D01*
X210515019Y-140520559D01*
X210374875Y-140609208D01*
X210281844Y-140686435D01*
X210251842Y-140721336D01*
X210220717Y-140785734D01*
X210058960Y-140785734D01*
X210057403Y-140726972D01*
X210087350Y-140638506D01*
X210160845Y-140556483D01*
X210180417Y-140539930D01*
X210303411Y-140459328D01*
X210479973Y-140363576D01*
X210678812Y-140269981D01*
X210749231Y-140238614D01*
X210918531Y-140156292D01*
X211040336Y-140086915D01*
X211092003Y-140042925D01*
X211092791Y-139978832D01*
X211069241Y-139846298D01*
X211028375Y-139689664D01*
X210980370Y-139547033D01*
X210935401Y-139456509D01*
X210878672Y-139417621D01*
X210764536Y-139393886D01*
X210762277Y-139393532D01*
X211224633Y-139393532D01*
X211255307Y-139420115D01*
X211350098Y-139443985D01*
X211366288Y-139443440D01*
X211453429Y-139414410D01*
X211479790Y-139361491D01*
X211434477Y-139318738D01*
X211550493Y-139318738D01*
X211550900Y-139341722D01*
X211553753Y-139361491D01*
X211566530Y-139450034D01*
X211597805Y-139494083D01*
X211608158Y-139499606D01*
X211625642Y-139569671D01*
X211620962Y-139694478D01*
X211612858Y-139788968D01*
X211625030Y-139872101D01*
X211672693Y-139894872D01*
X211710736Y-139887143D01*
X211800370Y-139811540D01*
X211873615Y-139681859D01*
X211919024Y-139531001D01*
X211925153Y-139391867D01*
X211880556Y-139297359D01*
X211830760Y-139267609D01*
X211758331Y-139264039D01*
X211730749Y-139268437D01*
X211682561Y-139218253D01*
X211660509Y-139173958D01*
X211609650Y-139143881D01*
X211567847Y-139196044D01*
X211550493Y-139318738D01*
X211434477Y-139318738D01*
X211428421Y-139313024D01*
X211400512Y-139304749D01*
X211303144Y-139305236D01*
X211232250Y-139339677D01*
X211224633Y-139393532D01*
X210762277Y-139393532D01*
X210595170Y-139367348D01*
X210484644Y-139277137D01*
X210448323Y-139121034D01*
X210449389Y-139086108D01*
X210450374Y-139082666D01*
X210598619Y-139082666D01*
X210617063Y-139123438D01*
X210689123Y-139135181D01*
X210836587Y-139119154D01*
X210911960Y-139106674D01*
X211048234Y-139077392D01*
X211124654Y-139051248D01*
X211206101Y-139010794D01*
X211352323Y-138956520D01*
X211503557Y-138912277D01*
X211611631Y-138893654D01*
X211674685Y-138905364D01*
X211809766Y-138950531D01*
X211971636Y-139018146D01*
X212055041Y-139056175D01*
X212187123Y-139113697D01*
X212260724Y-139136790D01*
X212298307Y-139130752D01*
X212322332Y-139100881D01*
X212316989Y-139044793D01*
X212252462Y-138957488D01*
X212151370Y-138871746D01*
X212040649Y-138814913D01*
X211963392Y-138781465D01*
X211890399Y-138723327D01*
X211847605Y-138694800D01*
X211723581Y-138671042D01*
X211554507Y-138667280D01*
X211371613Y-138682037D01*
X211206128Y-138713836D01*
X211089284Y-138761202D01*
X211082854Y-138765403D01*
X210974117Y-138815607D01*
X210897705Y-138816821D01*
X210886006Y-138812297D01*
X210807753Y-138834149D01*
X210712669Y-138905251D01*
X210632407Y-138997468D01*
X210598619Y-139082666D01*
X210450374Y-139082666D01*
X210489115Y-138947298D01*
X210602463Y-138822205D01*
X210630268Y-138799992D01*
X210753504Y-138723430D01*
X210851745Y-138692505D01*
X210865019Y-138691712D01*
X210978118Y-138658794D01*
X211110919Y-138592495D01*
X211170471Y-138560411D01*
X211417683Y-138496010D01*
X211692509Y-138517182D01*
X211976730Y-138623278D01*
X212091504Y-138686625D01*
X212316866Y-138841810D01*
X212442973Y-138986731D01*
X212465889Y-139100881D01*
X212470082Y-139121770D01*
G37*
G36*
X212564970Y-144534877D02*
G01*
X212602297Y-144606446D01*
X212625901Y-144735433D01*
X212639660Y-144897101D01*
X212608815Y-145006631D01*
X212514039Y-145078592D01*
X212337563Y-145137784D01*
X212274933Y-145154717D01*
X212124167Y-145189527D01*
X212042136Y-145188704D01*
X212008115Y-145147531D01*
X212001380Y-145061292D01*
X211994554Y-144935130D01*
X211971990Y-144770307D01*
X211960638Y-144693777D01*
X211978917Y-144638430D01*
X212051897Y-144601568D01*
X212201256Y-144563650D01*
X212360935Y-144528303D01*
X212491868Y-144511803D01*
X212564970Y-144534877D01*
G37*
G36*
X198229610Y-130267921D02*
G01*
X198281179Y-130283460D01*
X198354878Y-130312046D01*
X198399107Y-130337727D01*
X198412329Y-130348766D01*
X198476395Y-130390932D01*
X198565594Y-130441177D01*
X198663816Y-130491165D01*
X198754948Y-130532562D01*
X198822883Y-130557026D01*
X198880639Y-130566598D01*
X198967836Y-130573886D01*
X199066446Y-130577861D01*
X199161029Y-130578200D01*
X199236151Y-130574571D01*
X199276373Y-130566650D01*
X199306279Y-130564699D01*
X199369371Y-130575158D01*
X199447729Y-130594740D01*
X199525120Y-130618826D01*
X199585306Y-130642804D01*
X199612050Y-130662059D01*
X199637286Y-130685310D01*
X199697684Y-130718507D01*
X199779173Y-130754739D01*
X199867874Y-130787857D01*
X199949904Y-130811708D01*
X200028806Y-130817784D01*
X200108708Y-130804939D01*
X200123450Y-130800306D01*
X200154688Y-130794288D01*
X200195132Y-130792813D01*
X200251531Y-130796648D01*
X200330640Y-130806564D01*
X200439206Y-130823328D01*
X200583983Y-130847710D01*
X200771721Y-130880481D01*
X200852667Y-130892688D01*
X200919102Y-130898571D01*
X200950752Y-130895881D01*
X200966337Y-130887393D01*
X201032913Y-130873050D01*
X201127356Y-130868725D01*
X201234068Y-130875540D01*
X201275593Y-130879618D01*
X201346324Y-130882376D01*
X201387253Y-130878057D01*
X201416478Y-130873687D01*
X201484280Y-130872354D01*
X201571047Y-130875678D01*
X201640168Y-130878551D01*
X201736314Y-130878242D01*
X201807246Y-130873019D01*
X201846795Y-130868210D01*
X201936868Y-130860872D01*
X202034193Y-130856065D01*
X202094761Y-130853595D01*
X202178597Y-130848313D01*
X202234070Y-130842484D01*
X202237829Y-130841940D01*
X202293973Y-130839049D01*
X202381319Y-130839228D01*
X202482640Y-130842480D01*
X202499346Y-130843211D01*
X202594008Y-130845462D01*
X202667763Y-130844169D01*
X202705836Y-130839524D01*
X202732883Y-130836431D01*
X202798896Y-130839162D01*
X202883698Y-130848652D01*
X202945774Y-130854855D01*
X203049886Y-130856263D01*
X203133659Y-130847229D01*
X203166377Y-130840888D01*
X203240659Y-130840189D01*
X203307211Y-130867983D01*
X203313046Y-130871405D01*
X203365513Y-130894506D01*
X203396474Y-130895098D01*
X203403813Y-130891509D01*
X203450608Y-130886619D01*
X203520465Y-130889969D01*
X203552779Y-130891931D01*
X203654090Y-130888371D01*
X203754158Y-130874415D01*
X203920547Y-130841135D01*
X204084257Y-130813925D01*
X204218133Y-130800156D01*
X204332336Y-130799310D01*
X204437026Y-130810868D01*
X204542367Y-130834317D01*
X204550759Y-130836430D01*
X204605227Y-130842566D01*
X204631019Y-130831905D01*
X204643326Y-130820261D01*
X204685094Y-130820230D01*
X204712509Y-130822556D01*
X204782781Y-130816191D01*
X204867251Y-130799546D01*
X204875802Y-130797438D01*
X204930381Y-130785652D01*
X204979844Y-130780956D01*
X205034923Y-130784740D01*
X205106355Y-130798391D01*
X205204874Y-130823299D01*
X205341219Y-130860852D01*
X205371958Y-130869534D01*
X205496258Y-130906836D01*
X205598004Y-130940896D01*
X205668394Y-130968605D01*
X205698624Y-130986864D01*
X205708665Y-130997717D01*
X205759503Y-131024889D01*
X205830310Y-131047974D01*
X205899532Y-131060829D01*
X205945605Y-131057302D01*
X205948487Y-131056212D01*
X205992550Y-131052462D01*
X206069814Y-131054355D01*
X206165550Y-131061605D01*
X206167307Y-131061778D01*
X206276941Y-131068207D01*
X206381211Y-131067318D01*
X206457764Y-131059287D01*
X206583587Y-131047023D01*
X206739042Y-131055101D01*
X206904296Y-131081402D01*
X207064342Y-131122775D01*
X207204168Y-131176068D01*
X207308768Y-131238122D01*
X207401730Y-131327744D01*
X207495110Y-131470522D01*
X207544339Y-131627679D01*
X207549612Y-131657782D01*
X207585957Y-131770734D01*
X207650079Y-131862199D01*
X207683854Y-131904470D01*
X207741454Y-131997195D01*
X207786929Y-132094215D01*
X207847227Y-132214094D01*
X207924013Y-132298605D01*
X207955603Y-132326460D01*
X208019849Y-132401124D01*
X208074735Y-132485146D01*
X208102786Y-132531086D01*
X208163068Y-132608187D01*
X208221204Y-132660948D01*
X208231250Y-132667610D01*
X208353906Y-132773640D01*
X208444185Y-132909362D01*
X208464847Y-132944556D01*
X208519332Y-132998525D01*
X208605739Y-133041110D01*
X208645900Y-133057583D01*
X208709488Y-133088250D01*
X208743123Y-133111116D01*
X208761245Y-133124929D01*
X208816981Y-133154668D01*
X208892603Y-133187977D01*
X209019890Y-133245554D01*
X209147688Y-133324989D01*
X209254010Y-133421770D01*
X209274218Y-133442048D01*
X209328556Y-133484015D01*
X209369183Y-133498746D01*
X209377852Y-133497501D01*
X209448693Y-133459808D01*
X209508961Y-133377229D01*
X209555086Y-133254455D01*
X209600051Y-133123974D01*
X209669192Y-133007126D01*
X209768564Y-132905572D01*
X209907888Y-132806986D01*
X209927933Y-132794431D01*
X210018265Y-132733792D01*
X210080205Y-132680180D01*
X210127635Y-132619586D01*
X210174437Y-132538001D01*
X210185107Y-132518337D01*
X210284480Y-132378249D01*
X210403873Y-132281873D01*
X210548369Y-132224956D01*
X210616376Y-132204702D01*
X210718606Y-132158929D01*
X210832453Y-132088702D01*
X210969221Y-131987652D01*
X211035326Y-131940533D01*
X211142237Y-131887956D01*
X211271155Y-131855761D01*
X211361031Y-131842213D01*
X211456016Y-131832231D01*
X211523409Y-131829974D01*
X211578282Y-131822068D01*
X211680924Y-131780678D01*
X211818850Y-131703866D01*
X211847340Y-131686660D01*
X212030606Y-131581077D01*
X212190298Y-131498178D01*
X212320909Y-131440658D01*
X212416929Y-131411214D01*
X212491892Y-131395452D01*
X212570209Y-131376238D01*
X212720096Y-131345111D01*
X212876538Y-131334682D01*
X212982775Y-131345543D01*
X213013818Y-131348717D01*
X213123073Y-131386220D01*
X213195439Y-131446204D01*
X213227007Y-131502644D01*
X213254458Y-131595389D01*
X213260603Y-131688553D01*
X213244961Y-131766951D01*
X213207058Y-131815394D01*
X213202804Y-131818745D01*
X213175934Y-131860031D01*
X213142310Y-131933600D01*
X213108188Y-132026114D01*
X213094966Y-132066567D01*
X213069664Y-132153974D01*
X213060112Y-132218828D01*
X213064883Y-132279362D01*
X213082546Y-132353812D01*
X213099215Y-132410521D01*
X213124871Y-132482992D01*
X213145559Y-132525099D01*
X213164002Y-132556703D01*
X213187110Y-132617809D01*
X213205492Y-132678788D01*
X213231315Y-132753869D01*
X213237767Y-132776559D01*
X213246571Y-132859770D01*
X213241250Y-132949690D01*
X213237385Y-133004182D01*
X213242421Y-133099970D01*
X213257258Y-133200105D01*
X213278932Y-133286287D01*
X213304483Y-133340226D01*
X213309123Y-133348145D01*
X213327355Y-133400806D01*
X213351326Y-133490352D01*
X213379042Y-133607175D01*
X213408511Y-133741671D01*
X213437740Y-133884232D01*
X213464739Y-134025253D01*
X213487516Y-134155126D01*
X213504074Y-134264246D01*
X213512429Y-134343006D01*
X213515284Y-134383859D01*
X213523253Y-134464244D01*
X213531756Y-134518258D01*
X213537281Y-134556034D01*
X213543221Y-134633250D01*
X213546762Y-134725370D01*
X213550828Y-134798787D01*
X213562625Y-134889909D01*
X213578788Y-134953342D01*
X213595668Y-135011893D01*
X213597239Y-135062948D01*
X213594795Y-135111472D01*
X213603892Y-135179093D01*
X213610390Y-135220602D01*
X213617372Y-135308809D01*
X213619468Y-135405671D01*
X213620326Y-135469207D01*
X213626468Y-135566229D01*
X213636731Y-135639094D01*
X213640889Y-135671754D01*
X213636924Y-135762989D01*
X213617553Y-135864782D01*
X213606195Y-135901910D01*
X213536382Y-136038866D01*
X213434710Y-136148741D01*
X213310558Y-136220671D01*
X213305112Y-136222729D01*
X213252082Y-136250358D01*
X213220088Y-136292687D01*
X213195219Y-136367409D01*
X213153832Y-136468520D01*
X213071015Y-136586448D01*
X212967857Y-136677079D01*
X212938241Y-136702642D01*
X212938547Y-136733057D01*
X212950781Y-136767895D01*
X212938367Y-136831652D01*
X212900823Y-136903922D01*
X212844140Y-136969692D01*
X212799838Y-136999927D01*
X212711239Y-137039523D01*
X212609348Y-137070571D01*
X212513243Y-137087596D01*
X212442004Y-137085118D01*
X212422883Y-137083319D01*
X212397103Y-137100073D01*
X212386105Y-137114258D01*
X212343414Y-137129550D01*
X212336870Y-137130368D01*
X212277826Y-137145039D01*
X212205733Y-137170334D01*
X212201702Y-137171925D01*
X212088355Y-137192867D01*
X211985451Y-137167296D01*
X211897670Y-137098808D01*
X211829681Y-136990998D01*
X211786160Y-136847464D01*
X211768901Y-136770900D01*
X211738181Y-136674028D01*
X211703662Y-136596125D01*
X211670078Y-136547358D01*
X211642158Y-136537894D01*
X211639008Y-136541711D01*
X211637166Y-136580152D01*
X211649887Y-136642549D01*
X211663857Y-136735680D01*
X211660372Y-136846882D01*
X211640645Y-136951153D01*
X211607028Y-137027352D01*
X211582201Y-137053136D01*
X211516645Y-137091145D01*
X211437309Y-137115556D01*
X211358876Y-137123978D01*
X211296016Y-137114021D01*
X211263411Y-137083297D01*
X211262741Y-137081522D01*
X211231687Y-137055796D01*
X211173665Y-137033085D01*
X211166808Y-137031146D01*
X211092970Y-137001475D01*
X211011541Y-136957280D01*
X210935957Y-136907345D01*
X210879653Y-136860456D01*
X210856064Y-136825401D01*
X210854898Y-136817509D01*
X210838255Y-136790552D01*
X210798502Y-136785943D01*
X210728556Y-136804304D01*
X210621333Y-136846271D01*
X210584635Y-136861514D01*
X210490070Y-136896270D01*
X210414937Y-136911729D01*
X210339610Y-136910419D01*
X210244461Y-136894874D01*
X210214741Y-136889597D01*
X210163969Y-136889548D01*
X210125313Y-136914387D01*
X210079553Y-136973244D01*
X210047053Y-137015288D01*
X209993563Y-137059235D01*
X209931766Y-137072925D01*
X209862972Y-137077697D01*
X209789945Y-137087577D01*
X209739294Y-137089719D01*
X209706201Y-137063226D01*
X209698341Y-137052556D01*
X209652701Y-137021317D01*
X209597616Y-137006007D01*
X209557434Y-137014590D01*
X209519072Y-137033115D01*
X209442862Y-137052575D01*
X209346447Y-137068956D01*
X209245715Y-137080079D01*
X209156557Y-137083776D01*
X209094866Y-137077871D01*
X209000251Y-137035624D01*
X208892650Y-136956162D01*
X208792304Y-136853254D01*
X208712859Y-136739007D01*
X208682698Y-136688412D01*
X208629379Y-136611181D01*
X208583581Y-136557984D01*
X208580681Y-136555318D01*
X208537729Y-136522853D01*
X208495407Y-136516527D01*
X208429820Y-136532361D01*
X208424337Y-136534092D01*
X208329340Y-136587253D01*
X208230236Y-136683001D01*
X208228202Y-136685368D01*
X208071885Y-136830723D01*
X207888706Y-136934053D01*
X207676071Y-136996829D01*
X207665494Y-136998815D01*
X207523753Y-137022925D01*
X207413374Y-137034158D01*
X207317829Y-137032261D01*
X207220591Y-137016977D01*
X207105139Y-136988057D01*
X207088226Y-136983358D01*
X206953497Y-136940584D01*
X206856012Y-136894245D01*
X206784141Y-136835054D01*
X206726262Y-136753716D01*
X206670745Y-136640942D01*
X206660409Y-136617921D01*
X206616748Y-136527205D01*
X206577722Y-136455404D01*
X206550739Y-136416389D01*
X206532246Y-136405250D01*
X206468721Y-136388793D01*
X206385604Y-136380352D01*
X206303088Y-136381421D01*
X206241370Y-136393498D01*
X206205322Y-136398939D01*
X206133430Y-136402307D01*
X206042714Y-136402520D01*
X205956275Y-136402310D01*
X205871803Y-136404695D01*
X205818500Y-136409275D01*
X205770461Y-136412693D01*
X205680650Y-136411601D01*
X205571330Y-136405950D01*
X205459159Y-136396890D01*
X205360796Y-136385565D01*
X205292904Y-136373121D01*
X205291141Y-136372655D01*
X205237901Y-136366274D01*
X205212096Y-136377635D01*
X205208633Y-136380999D01*
X205168982Y-136381886D01*
X205092118Y-136368901D01*
X204986314Y-136343301D01*
X204767072Y-136284555D01*
X204680984Y-136384241D01*
X204591252Y-136465064D01*
X204490880Y-136505943D01*
X204409074Y-136535161D01*
X204373098Y-136579325D01*
X204369264Y-136588002D01*
X204327254Y-136631134D01*
X204245447Y-136688825D01*
X204129206Y-136757166D01*
X204059445Y-136796858D01*
X203974572Y-136849453D01*
X203914794Y-136891912D01*
X203889975Y-136917618D01*
X203889232Y-136920078D01*
X203852969Y-136956054D01*
X203781987Y-136976568D01*
X203689571Y-136979611D01*
X203589003Y-136963169D01*
X203558934Y-136954029D01*
X203431099Y-136885117D01*
X203332794Y-136777715D01*
X203266796Y-136635754D01*
X203235883Y-136463169D01*
X203229437Y-136414065D01*
X203199211Y-136315994D01*
X203152467Y-136231238D01*
X203096889Y-136172068D01*
X203040163Y-136150753D01*
X203014412Y-136152951D01*
X202916806Y-136185731D01*
X202837171Y-136248326D01*
X202791563Y-136329207D01*
X202786361Y-136347371D01*
X202739760Y-136460763D01*
X202678403Y-136553155D01*
X202611702Y-136609857D01*
X202600230Y-136616426D01*
X202554219Y-136665966D01*
X202520816Y-136752960D01*
X202520140Y-136755450D01*
X202488061Y-136856140D01*
X202451094Y-136921238D01*
X202397535Y-136964926D01*
X202315674Y-137001378D01*
X202300226Y-137007129D01*
X202245481Y-137024770D01*
X202196175Y-137031607D01*
X202138807Y-137026830D01*
X202059880Y-137009632D01*
X201945894Y-136979198D01*
X201874754Y-136958551D01*
X201777938Y-136926407D01*
X201706578Y-136897635D01*
X201672471Y-136876655D01*
X201652310Y-136857751D01*
X201595362Y-136818426D01*
X201520872Y-136775442D01*
X201477430Y-136751052D01*
X201380300Y-136689307D01*
X201298488Y-136628895D01*
X201214859Y-136572547D01*
X201064385Y-136512955D01*
X201014600Y-136500756D01*
X200944791Y-136491996D01*
X200886284Y-136503910D01*
X200815336Y-136538985D01*
X200807562Y-136543496D01*
X200732963Y-136597317D01*
X200645958Y-136673492D01*
X200563804Y-136757057D01*
X200554257Y-136767647D01*
X200486429Y-136839181D01*
X200425114Y-136891343D01*
X200362415Y-136924999D01*
X200290436Y-136941011D01*
X200201283Y-136940241D01*
X200087056Y-136923556D01*
X199939862Y-136891819D01*
X199751806Y-136845893D01*
X199572979Y-136800161D01*
X199434925Y-136761513D01*
X199331733Y-136727061D01*
X199256105Y-136693567D01*
X199200739Y-136657796D01*
X199158336Y-136616512D01*
X199121594Y-136566476D01*
X199121152Y-136565800D01*
X199079370Y-136477710D01*
X199064912Y-136376889D01*
X199077694Y-136253353D01*
X199117633Y-136097113D01*
X199143979Y-136006272D01*
X199162336Y-135925796D01*
X199165159Y-135875070D01*
X199153847Y-135844322D01*
X199134564Y-135811673D01*
X199113550Y-135757104D01*
X199090891Y-135675783D01*
X199064461Y-135559993D01*
X199032137Y-135402014D01*
X199023174Y-135358439D01*
X198995664Y-135238832D01*
X198967078Y-135130823D01*
X198942337Y-135053501D01*
X198929491Y-135016987D01*
X198911223Y-134948425D01*
X198908094Y-134906140D01*
X198908525Y-134887824D01*
X198884276Y-134848553D01*
X198869704Y-134834483D01*
X198858117Y-134799701D01*
X198855576Y-134774199D01*
X198838843Y-134712628D01*
X198811238Y-134632886D01*
X198787652Y-134568140D01*
X198767503Y-134506898D01*
X198761078Y-134478312D01*
X198761184Y-134477053D01*
X198754222Y-134443159D01*
X198735948Y-134375803D01*
X198709875Y-134288039D01*
X198683017Y-134187638D01*
X198661670Y-134080868D01*
X198652447Y-133997739D01*
X198647436Y-133941263D01*
X198617458Y-133836961D01*
X198566515Y-133757732D01*
X198501285Y-133716028D01*
X198487470Y-133711767D01*
X198396713Y-133660113D01*
X198313713Y-133577671D01*
X198255122Y-133480383D01*
X198247718Y-133458800D01*
X198236958Y-133356371D01*
X198252633Y-133242182D01*
X198290399Y-133136400D01*
X198345908Y-133059189D01*
X198393142Y-133005069D01*
X198425716Y-132916080D01*
X198419279Y-132806295D01*
X198374285Y-132669508D01*
X198332956Y-132577629D01*
X198273909Y-132458709D01*
X198218427Y-132358141D01*
X198201591Y-132327658D01*
X198158903Y-132231237D01*
X198120816Y-132121266D01*
X198091551Y-132012577D01*
X198075320Y-131919996D01*
X198076338Y-131858351D01*
X198076683Y-131851966D01*
X198064936Y-131804838D01*
X198036608Y-131729278D01*
X197996436Y-131638340D01*
X197988265Y-131620844D01*
X197944467Y-131520698D01*
X197909329Y-131430306D01*
X197889826Y-131367392D01*
X197872768Y-131289428D01*
X197853001Y-131200534D01*
X197845694Y-131165766D01*
X197828918Y-131076214D01*
X197812850Y-130980456D01*
X197806017Y-130938484D01*
X197785206Y-130821564D01*
X197764219Y-130714998D01*
X197762040Y-130704249D01*
X197754563Y-130576658D01*
X198043707Y-130576658D01*
X198049255Y-130635918D01*
X198057710Y-130677020D01*
X198073210Y-130762825D01*
X198088722Y-130858135D01*
X198091252Y-130874571D01*
X198122187Y-131058591D01*
X198153290Y-131205332D01*
X198187997Y-131326977D01*
X198229742Y-131435711D01*
X198281959Y-131543716D01*
X198312314Y-131607112D01*
X198343013Y-131687103D01*
X198355770Y-131743543D01*
X198361804Y-131825908D01*
X198410748Y-132053629D01*
X198503688Y-132269146D01*
X198601834Y-132456795D01*
X198673342Y-132623516D01*
X198713635Y-132765543D01*
X198723949Y-132889564D01*
X198705525Y-133002257D01*
X198659600Y-133110308D01*
X198637922Y-133151803D01*
X198594367Y-133246035D01*
X198563647Y-133326642D01*
X198533696Y-133422743D01*
X198646629Y-133471227D01*
X198762026Y-133538985D01*
X198856783Y-133644624D01*
X198916413Y-133784152D01*
X198942523Y-133960227D01*
X198947063Y-134015846D01*
X198957587Y-134077209D01*
X198970192Y-134103321D01*
X198972712Y-134104164D01*
X198985471Y-134129115D01*
X198986438Y-134146784D01*
X198997868Y-134205592D01*
X199018354Y-134291856D01*
X199044591Y-134392969D01*
X199073266Y-134496320D01*
X199101065Y-134589301D01*
X199124683Y-134659304D01*
X199130348Y-134674952D01*
X199148542Y-134737317D01*
X199152591Y-134774858D01*
X199153409Y-134788944D01*
X199178978Y-134822857D01*
X199193459Y-134837103D01*
X199204629Y-134873605D01*
X199204537Y-134889688D01*
X199215461Y-134945800D01*
X199237216Y-135020523D01*
X199257420Y-135086930D01*
X199299156Y-135261421D01*
X199332910Y-135456441D01*
X199332944Y-135456679D01*
X199346919Y-135514561D01*
X199374077Y-135600603D01*
X199408568Y-135696272D01*
X199415685Y-135714833D01*
X199443578Y-135792175D01*
X199457356Y-135851821D01*
X199457416Y-135910443D01*
X199444154Y-135984704D01*
X199417968Y-136091268D01*
X199410212Y-136121842D01*
X199381514Y-136236355D01*
X199364451Y-136313382D01*
X199358689Y-136362470D01*
X199363892Y-136393166D01*
X199379732Y-136415014D01*
X199405870Y-136437560D01*
X199408948Y-136439982D01*
X199464812Y-136469035D01*
X199556674Y-136503584D01*
X199672582Y-136540444D01*
X199800584Y-136576428D01*
X199928724Y-136608350D01*
X200045056Y-136633019D01*
X200137620Y-136647248D01*
X200194470Y-136647855D01*
X200211361Y-136642700D01*
X200276029Y-136605499D01*
X200338571Y-136549486D01*
X200359346Y-136526626D01*
X200405000Y-136479764D01*
X200431695Y-136457319D01*
X200448960Y-136442516D01*
X200480732Y-136400539D01*
X200481346Y-136399589D01*
X200523619Y-136358576D01*
X200592030Y-136313272D01*
X200669992Y-136272401D01*
X200740909Y-136244689D01*
X200788192Y-136238860D01*
X200805530Y-136241049D01*
X200830245Y-136228106D01*
X200843765Y-136216795D01*
X200896175Y-136206963D01*
X200973944Y-136206022D01*
X201062344Y-136213868D01*
X201146650Y-136230393D01*
X201191234Y-136244016D01*
X201351552Y-136316168D01*
X201499423Y-136416070D01*
X201522692Y-136433794D01*
X201596376Y-136482541D01*
X201678241Y-136529908D01*
X201716209Y-136550909D01*
X201789793Y-136595694D01*
X201840147Y-136631725D01*
X201846168Y-136636464D01*
X201903963Y-136667217D01*
X201986299Y-136698254D01*
X202075522Y-136724306D01*
X202153982Y-136740102D01*
X202204024Y-136740372D01*
X202213560Y-136734523D01*
X202242698Y-136691770D01*
X202267756Y-136624578D01*
X202306899Y-136532103D01*
X202393095Y-136417678D01*
X202398702Y-136411689D01*
X202482554Y-136298222D01*
X202549391Y-136164735D01*
X202580433Y-136092036D01*
X202612008Y-136031200D01*
X202633716Y-136004175D01*
X202656483Y-135990286D01*
X202698964Y-135952812D01*
X202750979Y-135920095D01*
X202840533Y-135890778D01*
X202946920Y-135871453D01*
X203052568Y-135865217D01*
X203139902Y-135875160D01*
X203148460Y-135877627D01*
X203224417Y-135912438D01*
X203306898Y-135967095D01*
X203383000Y-136030933D01*
X203439816Y-136093279D01*
X203464440Y-136143467D01*
X203465742Y-136152386D01*
X203479837Y-136210142D01*
X203502732Y-136283034D01*
X203509127Y-136302659D01*
X203525346Y-136371162D01*
X203527079Y-136416619D01*
X203526895Y-136417339D01*
X203531233Y-136464014D01*
X203553350Y-136532353D01*
X203585462Y-136604750D01*
X203619787Y-136663601D01*
X203648542Y-136691305D01*
X203655838Y-136691725D01*
X203700005Y-136674328D01*
X203755911Y-136634674D01*
X203775758Y-136618975D01*
X203857260Y-136567030D01*
X203944984Y-136524029D01*
X203989566Y-136501842D01*
X204078737Y-136440460D01*
X204157102Y-136367865D01*
X204251468Y-136282004D01*
X204353101Y-136235000D01*
X204425493Y-136206854D01*
X204513541Y-136128478D01*
X204520226Y-136119906D01*
X204596644Y-136054882D01*
X204696938Y-136023288D01*
X204826450Y-136024321D01*
X204990520Y-136057185D01*
X205004141Y-136060737D01*
X205096247Y-136081207D01*
X205160366Y-136089048D01*
X205186400Y-136082932D01*
X205187122Y-136081144D01*
X205216520Y-136071874D01*
X205272284Y-136079775D01*
X205338284Y-136092586D01*
X205435775Y-136104884D01*
X205546230Y-136114754D01*
X205653899Y-136121041D01*
X205743026Y-136122592D01*
X205797854Y-136118257D01*
X205798387Y-136118134D01*
X205848503Y-136113218D01*
X205931142Y-136111398D01*
X206028694Y-136113067D01*
X206128040Y-136114185D01*
X206229217Y-136110797D01*
X206302732Y-136103447D01*
X206322765Y-136100491D01*
X206438060Y-136098527D01*
X206558999Y-136116146D01*
X206667068Y-136149516D01*
X206743753Y-136194799D01*
X206758832Y-136210929D01*
X206805058Y-136274953D01*
X206859776Y-136364695D01*
X206914127Y-136466047D01*
X206925022Y-136487819D01*
X206972591Y-136580037D01*
X207008703Y-136638572D01*
X207042422Y-136673292D01*
X207082821Y-136694072D01*
X207138967Y-136710781D01*
X207289933Y-136736721D01*
X207480928Y-136738579D01*
X207663488Y-136710020D01*
X207730633Y-136691259D01*
X207802466Y-136663358D01*
X207865052Y-136624195D01*
X207932262Y-136564583D01*
X208017973Y-136475337D01*
X208086868Y-136404963D01*
X208207786Y-136304018D01*
X208319934Y-136243881D01*
X208429840Y-136220513D01*
X208513358Y-136224644D01*
X208631587Y-136253576D01*
X208738771Y-136302628D01*
X208815309Y-136364475D01*
X208863625Y-136420204D01*
X208911362Y-136471274D01*
X208937491Y-136507036D01*
X208959380Y-136569758D01*
X208969477Y-136606620D01*
X209003738Y-136652448D01*
X209030902Y-136675367D01*
X209075203Y-136726620D01*
X209127403Y-136771688D01*
X209202470Y-136796077D01*
X209272487Y-136787841D01*
X209274274Y-136787024D01*
X209417885Y-136743729D01*
X209577433Y-136730781D01*
X209727260Y-136750291D01*
X209870835Y-136788654D01*
X209885369Y-136668263D01*
X209894310Y-136594817D01*
X209910650Y-136470145D01*
X209925407Y-136383215D01*
X209941357Y-136325516D01*
X209961276Y-136288530D01*
X209987942Y-136263743D01*
X210024129Y-136242639D01*
X210044187Y-136233061D01*
X210141973Y-136213815D01*
X210229939Y-136237205D01*
X210299642Y-136296644D01*
X210342642Y-136385541D01*
X210350493Y-136497311D01*
X210348448Y-136521284D01*
X210347795Y-136584487D01*
X210354934Y-136617637D01*
X210372853Y-136619267D01*
X210426309Y-136605682D01*
X210499599Y-136577577D01*
X210553729Y-136555720D01*
X210620054Y-136534096D01*
X210657576Y-136528740D01*
X210669199Y-136529517D01*
X210704468Y-136508344D01*
X210717274Y-136500128D01*
X210776479Y-136500231D01*
X210879464Y-136522528D01*
X210971589Y-136551274D01*
X211043513Y-136587550D01*
X211095537Y-136635664D01*
X211116440Y-136656412D01*
X211172981Y-136697587D01*
X211241510Y-136736992D01*
X211308567Y-136767988D01*
X211360689Y-136783931D01*
X211384416Y-136778180D01*
X211382917Y-136755886D01*
X211369610Y-136705473D01*
X211365382Y-136690624D01*
X211352905Y-136619820D01*
X211345379Y-136536241D01*
X211347504Y-136468431D01*
X211382174Y-136352152D01*
X211453024Y-136266722D01*
X211554759Y-136217294D01*
X211682080Y-136209013D01*
X211754828Y-136233020D01*
X211842070Y-136299187D01*
X211924033Y-136396700D01*
X211993820Y-136515448D01*
X212044529Y-136645327D01*
X212069261Y-136776227D01*
X212073842Y-136809843D01*
X212098829Y-136855387D01*
X212149973Y-136864563D01*
X212234137Y-136840026D01*
X212269351Y-136828680D01*
X212361982Y-136809611D01*
X212459772Y-136799598D01*
X212596854Y-136794012D01*
X212645056Y-136665786D01*
X212665595Y-136616438D01*
X212727388Y-136504847D01*
X212798052Y-136415981D01*
X212867777Y-136363172D01*
X212886819Y-136349590D01*
X212920949Y-136294220D01*
X212953555Y-136195165D01*
X212970029Y-136135978D01*
X212991531Y-136081048D01*
X213023001Y-136041457D01*
X213075897Y-136004005D01*
X213161682Y-135955497D01*
X213271306Y-135885626D01*
X213337143Y-135817720D01*
X213361358Y-135746512D01*
X213348016Y-135665674D01*
X213347852Y-135665199D01*
X213338087Y-135611210D01*
X213331536Y-135525347D01*
X213329611Y-135425976D01*
X213329660Y-135419128D01*
X213328292Y-135325983D01*
X213323709Y-135252671D01*
X213316837Y-135214539D01*
X213312640Y-135203273D01*
X213311513Y-135152197D01*
X213312334Y-135146556D01*
X213309872Y-135097163D01*
X213299396Y-135016185D01*
X213282683Y-134918014D01*
X213278008Y-134892663D01*
X213262559Y-134798155D01*
X213253609Y-134724929D01*
X213252976Y-134687106D01*
X213253475Y-134684961D01*
X213254364Y-134637784D01*
X213246754Y-134570441D01*
X213243461Y-134548705D01*
X213233200Y-134459036D01*
X213225924Y-134364643D01*
X213224053Y-134335884D01*
X213214562Y-134240686D01*
X213202503Y-134162127D01*
X213200007Y-134149822D01*
X213182997Y-134063620D01*
X213165650Y-133972885D01*
X213159565Y-133940991D01*
X213112206Y-133730161D01*
X213061823Y-133569570D01*
X213056450Y-133554978D01*
X213038090Y-133491761D01*
X213034351Y-133452386D01*
X213035551Y-133444379D01*
X213021178Y-133420190D01*
X213017443Y-133418069D01*
X212998465Y-133381824D01*
X212978767Y-133312916D01*
X212960987Y-133225938D01*
X212947769Y-133135478D01*
X212941754Y-133056128D01*
X212945580Y-133002480D01*
X212953967Y-132948361D01*
X212941140Y-132831663D01*
X212892850Y-132721017D01*
X212868969Y-132671836D01*
X212862770Y-132627981D01*
X212864545Y-132614214D01*
X212850809Y-132589584D01*
X212849459Y-132588901D01*
X212833693Y-132558278D01*
X212813206Y-132492344D01*
X212792068Y-132403965D01*
X212754089Y-132223912D01*
X212849090Y-131922107D01*
X212881133Y-131818383D01*
X212908858Y-131720729D01*
X212922223Y-131658365D01*
X212922636Y-131624305D01*
X212911493Y-131611568D01*
X212898869Y-131609708D01*
X212858929Y-131621634D01*
X212824026Y-131633691D01*
X212763705Y-131637005D01*
X212763232Y-131636982D01*
X212696102Y-131643457D01*
X212606478Y-131663435D01*
X212512457Y-131691515D01*
X212432139Y-131722303D01*
X212383618Y-131750394D01*
X212369183Y-131760585D01*
X212325346Y-131768491D01*
X212306112Y-131770730D01*
X212251334Y-131792508D01*
X212180452Y-131828928D01*
X212108996Y-131871183D01*
X212052496Y-131910469D01*
X212026488Y-131937972D01*
X212015194Y-131956682D01*
X211960680Y-131996742D01*
X211873794Y-132036535D01*
X211766532Y-132072350D01*
X211650880Y-132100474D01*
X211538831Y-132117194D01*
X211442376Y-132118800D01*
X211423095Y-132118419D01*
X211344121Y-132131769D01*
X211254199Y-132162344D01*
X211168436Y-132203261D01*
X211101940Y-132247635D01*
X211069819Y-132288580D01*
X211054228Y-132309435D01*
X211003487Y-132349338D01*
X210932632Y-132394277D01*
X210856864Y-132435507D01*
X210791379Y-132464281D01*
X210751375Y-132471850D01*
X210731044Y-132472623D01*
X210672495Y-132489428D01*
X210598321Y-132520531D01*
X210592030Y-132523566D01*
X210515173Y-132568779D01*
X210460210Y-132625353D01*
X210408818Y-132711782D01*
X210376857Y-132769850D01*
X210301909Y-132875159D01*
X210209277Y-132959407D01*
X210083110Y-133038497D01*
X210001301Y-133087781D01*
X209940551Y-133138404D01*
X209892547Y-133201888D01*
X209848314Y-133290119D01*
X209798877Y-133414987D01*
X209768623Y-133492251D01*
X209728620Y-133576094D01*
X209687293Y-133634370D01*
X209636105Y-133681039D01*
X209558304Y-133732358D01*
X209423475Y-133781816D01*
X209291380Y-133782154D01*
X209166222Y-133733694D01*
X209052205Y-133636752D01*
X209004031Y-133587665D01*
X208911471Y-133520025D01*
X208787699Y-133459772D01*
X208782266Y-133457497D01*
X208693230Y-133417509D01*
X208620836Y-133380395D01*
X208580300Y-133353918D01*
X208545312Y-133329489D01*
X208481943Y-133302844D01*
X208472947Y-133300233D01*
X208372582Y-133247980D01*
X208272782Y-133158592D01*
X208185791Y-133042816D01*
X208108281Y-132943391D01*
X208006874Y-132862357D01*
X207972721Y-132840801D01*
X207919478Y-132797458D01*
X207896758Y-132763716D01*
X207891942Y-132747071D01*
X207859368Y-132717382D01*
X207834736Y-132695465D01*
X207815032Y-132643431D01*
X207806487Y-132618347D01*
X207766210Y-132556362D01*
X207706906Y-132494406D01*
X207656419Y-132441333D01*
X207589713Y-132349969D01*
X207533997Y-132251816D01*
X207491664Y-132170790D01*
X207433045Y-132074036D01*
X207379744Y-132000516D01*
X207366324Y-131983464D01*
X207310537Y-131885703D01*
X207274690Y-131779344D01*
X207270319Y-131759026D01*
X207220934Y-131607180D01*
X207146726Y-131494901D01*
X207041477Y-131415275D01*
X206898977Y-131361391D01*
X206884524Y-131357791D01*
X206747647Y-131339069D01*
X206589002Y-131338441D01*
X206431293Y-131356158D01*
X206371507Y-131361493D01*
X206273933Y-131360949D01*
X206170448Y-131353149D01*
X206083048Y-131345176D01*
X206001944Y-131341924D01*
X205952620Y-131344927D01*
X205947713Y-131345805D01*
X205892055Y-131343337D01*
X205810582Y-131328609D01*
X205718426Y-131305745D01*
X205630724Y-131278865D01*
X205562605Y-131252096D01*
X205529205Y-131229559D01*
X205515043Y-131218550D01*
X205459516Y-131193573D01*
X205373610Y-131163323D01*
X205268810Y-131132102D01*
X205201203Y-131113971D01*
X205100803Y-131090540D01*
X205024520Y-131080397D01*
X204956660Y-131081982D01*
X204881513Y-131093744D01*
X204818446Y-131104182D01*
X204740435Y-131111809D01*
X204691856Y-131109859D01*
X204665871Y-131105618D01*
X204623855Y-131111187D01*
X204619802Y-131112580D01*
X204575630Y-131114510D01*
X204498400Y-131110294D01*
X204401918Y-131100590D01*
X204265470Y-131091478D01*
X204117972Y-131099628D01*
X203945551Y-131127178D01*
X203877462Y-131139782D01*
X203754908Y-131159125D01*
X203646738Y-131172294D01*
X203570448Y-131176969D01*
X203549285Y-131177134D01*
X203442178Y-131183690D01*
X203342367Y-131196923D01*
X203278809Y-131203297D01*
X203161821Y-131195579D01*
X203008814Y-131166666D01*
X202964628Y-131157073D01*
X202862363Y-131138658D01*
X202779667Y-131128881D01*
X202731232Y-131129699D01*
X202724568Y-131131060D01*
X202665877Y-131135106D01*
X202576662Y-131134650D01*
X202473427Y-131129688D01*
X202448509Y-131128097D01*
X202352100Y-131124376D01*
X202276994Y-131125203D01*
X202237715Y-131130522D01*
X202200227Y-131137556D01*
X202127018Y-131142503D01*
X202035584Y-131143821D01*
X201948768Y-131144851D01*
X201875067Y-131149286D01*
X201835538Y-131156161D01*
X201834510Y-131156590D01*
X201793021Y-131162823D01*
X201717498Y-131166289D01*
X201623515Y-131166243D01*
X201617684Y-131166128D01*
X201524584Y-131165974D01*
X201451073Y-131168795D01*
X201412610Y-131174024D01*
X201390337Y-131177116D01*
X201327324Y-131175757D01*
X201245242Y-131167817D01*
X201159928Y-131160173D01*
X201043924Y-131166480D01*
X200969763Y-131197261D01*
X200946285Y-131201892D01*
X200884980Y-131196792D01*
X200804159Y-131180577D01*
X200748835Y-131168660D01*
X200638618Y-131152588D01*
X200543747Y-131147262D01*
X200518427Y-131146921D01*
X200418664Y-131134678D01*
X200331668Y-131110201D01*
X200245288Y-131086371D01*
X200151734Y-131096305D01*
X200130441Y-131101473D01*
X200041813Y-131110980D01*
X199948824Y-131108137D01*
X199920952Y-131103561D01*
X199839193Y-131081995D01*
X199743117Y-131049245D01*
X199645262Y-131010468D01*
X199558173Y-130970829D01*
X199494387Y-130935484D01*
X199466448Y-130909604D01*
X199466040Y-130908442D01*
X199435597Y-130884583D01*
X199378197Y-130864100D01*
X199316237Y-130853016D01*
X199272113Y-130857353D01*
X199259168Y-130862228D01*
X199190588Y-130871579D01*
X199091788Y-130872119D01*
X198977498Y-130864667D01*
X198862445Y-130850037D01*
X198761361Y-130829046D01*
X198760549Y-130828828D01*
X198653252Y-130793619D01*
X198533845Y-130744583D01*
X198417427Y-130688936D01*
X198319085Y-130633884D01*
X198253916Y-130586641D01*
X198201439Y-130552411D01*
X198128845Y-130533060D01*
X198068717Y-130543012D01*
X198065419Y-130545021D01*
X198043707Y-130576658D01*
X197754563Y-130576658D01*
X197753309Y-130555257D01*
X197785742Y-130430530D01*
X197854461Y-130334752D01*
X197954594Y-130272602D01*
X198081270Y-130248765D01*
X198229610Y-130267921D01*
G37*
D10*
%TO.C,J3*%
X137512500Y-166700000D02*
X139812500Y-166700000D01*
X131212500Y-166700000D02*
X133511500Y-166700000D01*
X131212500Y-147500000D02*
X131212500Y-166700000D01*
X139812500Y-166700000D02*
X139812500Y-163910000D01*
D13*
X140475500Y-160910000D02*
X140475500Y-160910000D01*
X140374500Y-160910000D02*
X140374500Y-160910000D01*
D10*
X139812500Y-147500000D02*
X139812500Y-160910000D01*
X137512500Y-147500000D02*
X139812500Y-147500000D01*
X133511500Y-147500000D02*
X131212500Y-147500000D01*
D13*
X140374500Y-160910000D02*
G75*
G02*
X140474500Y-160910000I50000J0D01*
G01*
X140475500Y-160910000D02*
G75*
G02*
X140374500Y-160910000I-50500J0D01*
G01*
%TD*%
%LPC*%
D14*
%TO.C,J5*%
X141700000Y-135200000D03*
D15*
X141700000Y-133930000D03*
%TD*%
D14*
%TO.C,J1*%
X157830000Y-147600000D03*
D15*
X159100000Y-147600000D03*
%TD*%
%TO.C,J4*%
X130575000Y-127305000D03*
D14*
X130575000Y-128575000D03*
%TD*%
D15*
%TO.C,J2*%
X130500000Y-133970000D03*
D14*
X130500000Y-132700000D03*
%TD*%
D16*
%TO.C,C2*%
X143850000Y-172600000D03*
D17*
X143850000Y-170100000D03*
%TD*%
D18*
%TO.C,USB1*%
X132350000Y-143125000D03*
D19*
X129700000Y-144300000D03*
X129700000Y-137100000D03*
D18*
X132350000Y-138275000D03*
%TD*%
D20*
%TO.C,H1*%
X135500000Y-172200000D03*
D21*
X135500000Y-172200000D03*
%TD*%
D20*
%TO.C,H1*%
X108579996Y-123443576D03*
D21*
X108579996Y-123443576D03*
%TD*%
D20*
%TO.C,REF\u002A\u002A*%
X178200000Y-127100000D03*
D21*
X178200000Y-127100000D03*
%TD*%
D20*
%TO.C,REF\u002A\u002A*%
X219850000Y-129850000D03*
D21*
X219850000Y-129850000D03*
%TD*%
D20*
%TO.C,REF\u002A\u002A*%
X304133706Y-123443576D03*
D21*
X304133706Y-123443576D03*
%TD*%
D20*
%TO.C,REF\u002A\u002A*%
X220896696Y-155104076D03*
D21*
X220896696Y-155104076D03*
%TD*%
D22*
%TO.C,J3*%
X135512500Y-165410000D03*
D23*
X139112500Y-162300000D03*
D22*
X135512500Y-147410000D03*
D24*
X135512500Y-160910000D03*
D25*
X135512500Y-158370000D03*
X135512500Y-155830000D03*
X135512500Y-153290000D03*
%TD*%
%LPD*%
M02*
