%TF.GenerationSoftware,KiCad,Pcbnew,8.0.5*%
%TF.CreationDate,2025-02-04T15:21:29-08:00*%
%TF.ProjectId,MM36-Dash,4d4d3336-2d44-4617-9368-2e6b69636164,rev?*%
%TF.SameCoordinates,Original*%
%TF.FileFunction,Paste,Top*%
%TF.FilePolarity,Positive*%
%FSLAX46Y46*%
G04 Gerber Fmt 4.6, Leading zero omitted, Abs format (unit mm)*
G04 Created by KiCad (PCBNEW 8.0.5) date 2025-02-04 15:21:29*
%MOMM*%
%LPD*%
G01*
G04 APERTURE LIST*
G04 Aperture macros list*
%AMRoundRect*
0 Rectangle with rounded corners*
0 $1 Rounding radius*
0 $2 $3 $4 $5 $6 $7 $8 $9 X,Y pos of 4 corners*
0 Add a 4 corners polygon primitive as box body*
4,1,4,$2,$3,$4,$5,$6,$7,$8,$9,$2,$3,0*
0 Add four circle primitives for the rounded corners*
1,1,$1+$1,$2,$3*
1,1,$1+$1,$4,$5*
1,1,$1+$1,$6,$7*
1,1,$1+$1,$8,$9*
0 Add four rect primitives between the rounded corners*
20,1,$1+$1,$2,$3,$4,$5,0*
20,1,$1+$1,$4,$5,$6,$7,0*
20,1,$1+$1,$6,$7,$8,$9,0*
20,1,$1+$1,$8,$9,$2,$3,0*%
%AMFreePoly0*
4,1,6,0.600000,-0.600000,-0.600000,-0.600000,-0.600000,0.000000,0.000000,0.600000,0.600000,0.600000,0.600000,-0.600000,0.600000,-0.600000,$1*%
G04 Aperture macros list end*
%ADD10C,0.000000*%
%ADD11RoundRect,0.243750X-0.243750X-0.456250X0.243750X-0.456250X0.243750X0.456250X-0.243750X0.456250X0*%
%ADD12RoundRect,0.225000X-0.225000X-0.250000X0.225000X-0.250000X0.225000X0.250000X-0.225000X0.250000X0*%
%ADD13RoundRect,0.225000X0.225000X0.250000X-0.225000X0.250000X-0.225000X-0.250000X0.225000X-0.250000X0*%
%ADD14R,1.700000X1.000000*%
%ADD15RoundRect,0.250000X0.450000X-0.262500X0.450000X0.262500X-0.450000X0.262500X-0.450000X-0.262500X0*%
%ADD16RoundRect,0.150000X0.825000X0.150000X-0.825000X0.150000X-0.825000X-0.150000X0.825000X-0.150000X0*%
%ADD17R,1.500000X0.900000*%
%ADD18RoundRect,0.200000X0.200000X0.275000X-0.200000X0.275000X-0.200000X-0.275000X0.200000X-0.275000X0*%
%ADD19RoundRect,0.225000X0.250000X-0.225000X0.250000X0.225000X-0.250000X0.225000X-0.250000X-0.225000X0*%
%ADD20RoundRect,0.200000X-0.275000X0.200000X-0.275000X-0.200000X0.275000X-0.200000X0.275000X0.200000X0*%
%ADD21RoundRect,0.200000X0.275000X-0.200000X0.275000X0.200000X-0.275000X0.200000X-0.275000X-0.200000X0*%
%ADD22RoundRect,0.200000X-0.200000X-0.275000X0.200000X-0.275000X0.200000X0.275000X-0.200000X0.275000X0*%
%ADD23R,0.800000X0.800000*%
%ADD24R,1.200000X1.200000*%
%ADD25FreePoly0,270.000000*%
%ADD26R,0.800000X0.400000*%
%ADD27R,0.400000X0.800000*%
%ADD28RoundRect,0.250000X-0.650000X0.325000X-0.650000X-0.325000X0.650000X-0.325000X0.650000X0.325000X0*%
%ADD29RoundRect,0.243750X-0.456250X0.243750X-0.456250X-0.243750X0.456250X-0.243750X0.456250X0.243750X0*%
%ADD30RoundRect,0.250000X-1.075000X0.375000X-1.075000X-0.375000X1.075000X-0.375000X1.075000X0.375000X0*%
%ADD31RoundRect,0.225000X-0.250000X0.225000X-0.250000X-0.225000X0.250000X-0.225000X0.250000X0.225000X0*%
%ADD32RoundRect,0.250000X0.650000X-1.000000X0.650000X1.000000X-0.650000X1.000000X-0.650000X-1.000000X0*%
%ADD33RoundRect,0.250000X-0.650000X1.000000X-0.650000X-1.000000X0.650000X-1.000000X0.650000X1.000000X0*%
%ADD34RoundRect,0.150000X-0.512500X-0.150000X0.512500X-0.150000X0.512500X0.150000X-0.512500X0.150000X0*%
%ADD35R,1.900000X2.500000*%
%ADD36RoundRect,0.250000X1.000000X-1.400000X1.000000X1.400000X-1.000000X1.400000X-1.000000X-1.400000X0*%
%ADD37RoundRect,0.150000X-0.825000X-0.150000X0.825000X-0.150000X0.825000X0.150000X-0.825000X0.150000X0*%
%ADD38RoundRect,0.230000X-0.230000X-0.375000X0.230000X-0.375000X0.230000X0.375000X-0.230000X0.375000X0*%
%ADD39R,1.250000X0.400000*%
%ADD40RoundRect,0.250000X0.325000X0.650000X-0.325000X0.650000X-0.325000X-0.650000X0.325000X-0.650000X0*%
%ADD41RoundRect,0.375000X-0.625000X-0.375000X0.625000X-0.375000X0.625000X0.375000X-0.625000X0.375000X0*%
%ADD42RoundRect,0.500000X-0.500000X-1.400000X0.500000X-1.400000X0.500000X1.400000X-0.500000X1.400000X0*%
%ADD43R,1.651000X2.311400*%
G04 APERTURE END LIST*
D10*
%TO.C,USB1*%
G36*
X130182500Y-143650500D02*
G01*
X130214500Y-143653000D01*
X130247000Y-143657000D01*
X130279000Y-143663000D01*
X130310500Y-143670000D01*
X130341500Y-143679000D01*
X130372500Y-143689000D01*
X130402500Y-143701000D01*
X130432000Y-143714500D01*
X130461000Y-143729000D01*
X130489000Y-143745500D01*
X130516000Y-143763000D01*
X130542500Y-143782000D01*
X130568000Y-143802000D01*
X130592000Y-143823500D01*
X130615500Y-143846000D01*
X130637500Y-143870000D01*
X130658000Y-143894500D01*
X130678000Y-143920500D01*
X130696000Y-143947500D01*
X130713000Y-143975000D01*
X130728500Y-144003500D01*
X130742500Y-144032500D01*
X130755000Y-144062500D01*
X130766000Y-144093000D01*
X130775500Y-144124000D01*
X130783500Y-144155500D01*
X130790000Y-144187000D01*
X130795000Y-144219000D01*
X130798000Y-144251500D01*
X130800000Y-144283500D01*
X130800000Y-144316000D01*
X130798000Y-144348500D01*
X130795000Y-144381000D01*
X130790000Y-144413000D01*
X130783500Y-144444500D01*
X130775500Y-144476000D01*
X130766000Y-144507000D01*
X130755000Y-144537500D01*
X130742500Y-144567500D01*
X130728500Y-144596500D01*
X130713000Y-144625000D01*
X130696000Y-144652500D01*
X130678000Y-144679500D01*
X130658000Y-144705000D01*
X130637500Y-144730000D01*
X130615500Y-144754000D01*
X130592000Y-144776500D01*
X130568000Y-144798000D01*
X130542500Y-144818000D01*
X130516000Y-144837000D01*
X130489000Y-144854500D01*
X130461000Y-144871000D01*
X130432000Y-144885500D01*
X130402500Y-144899000D01*
X130372500Y-144911000D01*
X130341500Y-144921000D01*
X130310500Y-144930000D01*
X130279000Y-144937000D01*
X130247000Y-144942500D01*
X130214500Y-144946500D01*
X130182500Y-144949000D01*
X130150000Y-144950000D01*
X129250000Y-144950000D01*
X129217500Y-144949000D01*
X129185500Y-144946500D01*
X129153000Y-144942500D01*
X129121000Y-144937000D01*
X129089500Y-144930000D01*
X129058500Y-144921000D01*
X129027500Y-144911000D01*
X128997500Y-144899000D01*
X128968000Y-144885500D01*
X128939000Y-144871000D01*
X128911000Y-144854500D01*
X128884000Y-144837000D01*
X128857500Y-144818000D01*
X128832000Y-144798000D01*
X128808000Y-144776500D01*
X128784500Y-144754000D01*
X128762500Y-144730000D01*
X128742000Y-144705000D01*
X128722000Y-144679500D01*
X128704000Y-144652500D01*
X128687000Y-144625000D01*
X128671500Y-144596500D01*
X128657500Y-144567500D01*
X128645000Y-144537500D01*
X128634000Y-144507000D01*
X128624000Y-144476000D01*
X128616500Y-144444500D01*
X128610000Y-144413000D01*
X128605000Y-144381000D01*
X128602000Y-144348500D01*
X128600000Y-144316000D01*
X128600000Y-144283500D01*
X128602000Y-144251500D01*
X128605000Y-144219000D01*
X128610000Y-144187000D01*
X128616500Y-144155500D01*
X128624000Y-144124000D01*
X128634000Y-144093000D01*
X128645000Y-144062500D01*
X128657500Y-144032500D01*
X128671500Y-144003500D01*
X128687000Y-143975000D01*
X128704000Y-143947500D01*
X128722000Y-143920500D01*
X128742000Y-143894500D01*
X128762500Y-143870000D01*
X128784500Y-143846000D01*
X128808000Y-143823500D01*
X128832000Y-143802000D01*
X128857500Y-143782000D01*
X128884000Y-143763000D01*
X128911000Y-143745500D01*
X128939000Y-143729000D01*
X128968000Y-143714500D01*
X128997500Y-143701000D01*
X129027500Y-143689000D01*
X129058500Y-143679000D01*
X129089500Y-143670000D01*
X129121000Y-143663000D01*
X129153000Y-143657000D01*
X129185500Y-143653000D01*
X129217500Y-143650500D01*
X129250000Y-143650000D01*
X130150000Y-143650000D01*
X130182500Y-143650500D01*
G37*
G36*
X130182500Y-136451000D02*
G01*
X130214500Y-136453500D01*
X130247000Y-136457500D01*
X130279000Y-136463000D01*
X130310500Y-136470000D01*
X130341500Y-136479000D01*
X130372500Y-136489000D01*
X130402500Y-136501000D01*
X130432000Y-136514500D01*
X130461000Y-136529000D01*
X130489000Y-136545500D01*
X130516000Y-136563000D01*
X130542500Y-136582000D01*
X130568000Y-136602000D01*
X130592000Y-136623500D01*
X130615500Y-136646000D01*
X130637500Y-136670000D01*
X130658000Y-136695000D01*
X130678000Y-136720500D01*
X130696000Y-136747500D01*
X130713000Y-136775000D01*
X130728500Y-136803500D01*
X130742500Y-136832500D01*
X130755000Y-136862500D01*
X130766000Y-136893000D01*
X130775500Y-136924000D01*
X130783500Y-136955500D01*
X130790000Y-136987000D01*
X130795000Y-137019000D01*
X130798000Y-137051500D01*
X130800000Y-137084000D01*
X130800000Y-137116500D01*
X130798000Y-137148500D01*
X130795000Y-137181000D01*
X130790000Y-137213000D01*
X130783500Y-137244500D01*
X130775500Y-137276000D01*
X130766000Y-137307000D01*
X130755000Y-137337500D01*
X130742500Y-137367500D01*
X130728500Y-137396500D01*
X130713000Y-137425000D01*
X130696000Y-137452500D01*
X130678000Y-137479500D01*
X130658000Y-137505500D01*
X130637500Y-137530000D01*
X130615500Y-137554000D01*
X130592000Y-137576500D01*
X130568000Y-137598000D01*
X130542500Y-137618000D01*
X130516000Y-137637000D01*
X130489000Y-137654500D01*
X130461000Y-137671000D01*
X130432000Y-137685500D01*
X130402500Y-137699000D01*
X130372500Y-137711000D01*
X130341500Y-137721000D01*
X130310500Y-137730000D01*
X130279000Y-137737000D01*
X130247000Y-137743000D01*
X130214500Y-137747000D01*
X130182500Y-137749500D01*
X130150000Y-137750000D01*
X129250000Y-137750000D01*
X129217500Y-137749500D01*
X129185500Y-137747000D01*
X129153000Y-137743000D01*
X129121000Y-137737000D01*
X129089500Y-137730000D01*
X129058500Y-137721000D01*
X129027500Y-137711000D01*
X128997500Y-137699000D01*
X128968000Y-137685500D01*
X128939000Y-137671000D01*
X128911000Y-137654500D01*
X128884000Y-137637000D01*
X128857500Y-137618000D01*
X128832000Y-137598000D01*
X128808000Y-137576500D01*
X128784500Y-137554000D01*
X128762500Y-137530000D01*
X128742000Y-137505500D01*
X128722000Y-137479500D01*
X128704000Y-137452500D01*
X128687000Y-137425000D01*
X128671500Y-137396500D01*
X128657500Y-137367500D01*
X128645000Y-137337500D01*
X128634000Y-137307000D01*
X128624000Y-137276000D01*
X128616500Y-137244500D01*
X128610000Y-137213000D01*
X128605000Y-137181000D01*
X128602000Y-137148500D01*
X128600000Y-137116500D01*
X128600000Y-137084000D01*
X128602000Y-137051500D01*
X128605000Y-137019000D01*
X128610000Y-136987000D01*
X128616500Y-136955500D01*
X128624000Y-136924000D01*
X128634000Y-136893000D01*
X128645000Y-136862500D01*
X128657500Y-136832500D01*
X128671500Y-136803500D01*
X128687000Y-136775000D01*
X128704000Y-136747500D01*
X128722000Y-136720500D01*
X128742000Y-136695000D01*
X128762500Y-136670000D01*
X128784500Y-136646000D01*
X128808000Y-136623500D01*
X128832000Y-136602000D01*
X128857500Y-136582000D01*
X128884000Y-136563000D01*
X128911000Y-136545500D01*
X128939000Y-136529000D01*
X128968000Y-136514500D01*
X128997500Y-136501000D01*
X129027500Y-136489000D01*
X129058500Y-136479000D01*
X129089500Y-136470000D01*
X129121000Y-136463000D01*
X129153000Y-136457500D01*
X129185500Y-136453500D01*
X129217500Y-136451000D01*
X129250000Y-136450000D01*
X130150000Y-136450000D01*
X130182500Y-136451000D01*
G37*
G36*
X132702500Y-137789500D02*
G01*
X132869500Y-137975000D01*
X132946500Y-138212500D01*
X132920500Y-138460500D01*
X132796000Y-138676500D01*
X132594000Y-138823000D01*
X132350000Y-138875000D01*
X132106000Y-138823000D01*
X131904000Y-138676500D01*
X131779500Y-138460500D01*
X131753500Y-138212500D01*
X131830500Y-137975000D01*
X131997500Y-137789500D01*
X132225500Y-137688000D01*
X132475000Y-137688000D01*
X132702500Y-137789500D01*
G37*
G36*
X132702500Y-142639500D02*
G01*
X132869500Y-142825000D01*
X132946500Y-143062000D01*
X132920500Y-143310500D01*
X132796000Y-143526500D01*
X132594000Y-143673000D01*
X132350000Y-143725000D01*
X132106000Y-143673000D01*
X131904000Y-143526500D01*
X131779500Y-143310500D01*
X131753500Y-143062000D01*
X131830500Y-142825000D01*
X131997500Y-142639500D01*
X132225500Y-142538000D01*
X132475000Y-142538000D01*
X132702500Y-142639500D01*
G37*
G36*
X132975000Y-142200000D02*
G01*
X131725000Y-142200000D01*
X131725000Y-141800000D01*
X132975000Y-141800000D01*
X132975000Y-142200000D01*
G37*
G36*
X132975000Y-141550000D02*
G01*
X131725000Y-141550000D01*
X131725000Y-141150000D01*
X132975000Y-141150000D01*
X132975000Y-141550000D01*
G37*
G36*
X132975000Y-140900000D02*
G01*
X131725000Y-140900000D01*
X131725000Y-140500000D01*
X132975000Y-140500000D01*
X132975000Y-140900000D01*
G37*
G36*
X132975000Y-140250000D02*
G01*
X131725000Y-140250000D01*
X131725000Y-139850000D01*
X132975000Y-139850000D01*
X132975000Y-140250000D01*
G37*
G36*
X132975000Y-139600000D02*
G01*
X131725000Y-139600000D01*
X131725000Y-139200000D01*
X132975000Y-139200000D01*
X132975000Y-139600000D01*
G37*
%TD*%
D11*
%TO.C,D16*%
X137847500Y-143340000D03*
X135972500Y-143340000D03*
%TD*%
D12*
%TO.C,C21*%
X257900000Y-121150000D03*
X256350000Y-121150000D03*
%TD*%
D13*
%TO.C,C7*%
X144500000Y-165900000D03*
X146050000Y-165900000D03*
%TD*%
D14*
%TO.C,SW1*%
X175700000Y-153300000D03*
X182000000Y-153300000D03*
X175700000Y-157100000D03*
X182000000Y-157100000D03*
%TD*%
D12*
%TO.C,C17*%
X181750000Y-121050000D03*
X180200000Y-121050000D03*
%TD*%
%TO.C,C20*%
X238800000Y-121000000D03*
X237250000Y-121000000D03*
%TD*%
D15*
%TO.C,R9*%
X195600000Y-149275000D03*
X195600000Y-151100000D03*
%TD*%
D12*
%TO.C,C22*%
X289525000Y-121050000D03*
X287975000Y-121050000D03*
%TD*%
D16*
%TO.C,U4*%
X146200000Y-144960000D03*
X146200000Y-143690000D03*
X146200000Y-142420000D03*
X146200000Y-141150000D03*
X151150000Y-141150000D03*
X151150000Y-142420000D03*
X151150000Y-143690000D03*
X151150000Y-144960000D03*
%TD*%
D17*
%TO.C,D6*%
X227800000Y-121050000D03*
X227800000Y-124350000D03*
X222900000Y-124350000D03*
X222900000Y-121050000D03*
%TD*%
D18*
%TO.C,R3*%
X151050000Y-166697349D03*
X152700000Y-166697349D03*
%TD*%
D12*
%TO.C,C5*%
X170100000Y-127900000D03*
X168550000Y-127900000D03*
%TD*%
D19*
%TO.C,C13*%
X158450000Y-151950000D03*
X158450000Y-153500000D03*
%TD*%
D20*
%TO.C,R5*%
X163400000Y-162425000D03*
X163400000Y-160775000D03*
%TD*%
D21*
%TO.C,R11*%
X173600000Y-156175000D03*
X173600000Y-157825000D03*
%TD*%
D22*
%TO.C,R4*%
X155750000Y-168247349D03*
X154100000Y-168247349D03*
%TD*%
D17*
%TO.C,D13*%
X297650000Y-121050000D03*
X297650000Y-124350000D03*
X292750000Y-124350000D03*
X292750000Y-121050000D03*
%TD*%
D13*
%TO.C,C10*%
X154150000Y-166697349D03*
X155700000Y-166697349D03*
%TD*%
D23*
%TO.C,U1*%
X170400000Y-144400000D03*
X156400000Y-144400000D03*
X156400000Y-130400000D03*
X170400000Y-130400000D03*
D24*
X161750000Y-139050000D03*
X163400000Y-139050000D03*
X165050000Y-139050000D03*
X161750000Y-137400000D03*
X163400000Y-137400000D03*
X165050000Y-137400000D03*
X161750000Y-135750000D03*
X163400000Y-135750000D03*
D25*
X165050000Y-135750000D03*
D26*
X170400000Y-131450000D03*
X170400000Y-132300000D03*
X170400000Y-133150000D03*
X170400000Y-134000000D03*
X170400000Y-134850000D03*
X170400000Y-135700000D03*
X170400000Y-136550000D03*
X170400000Y-137400000D03*
X170400000Y-138250000D03*
X170400000Y-139100000D03*
X170400000Y-139950000D03*
X170400000Y-140800000D03*
X170400000Y-141650000D03*
X170400000Y-142500000D03*
X170400000Y-143350000D03*
D27*
X169350000Y-144400000D03*
X168500000Y-144400000D03*
X167650000Y-144400000D03*
X166800000Y-144400000D03*
X165950000Y-144400000D03*
X165100000Y-144400000D03*
X164250000Y-144400000D03*
X163400000Y-144400000D03*
X162550000Y-144400000D03*
X161700000Y-144400000D03*
X160850000Y-144400000D03*
X160000000Y-144400000D03*
X159150000Y-144400000D03*
X158300000Y-144400000D03*
X157450000Y-144400000D03*
D26*
X156400000Y-143350000D03*
X156400000Y-142500000D03*
X156400000Y-141650000D03*
X156400000Y-140800000D03*
X156400000Y-139950000D03*
X156400000Y-139100000D03*
X156400000Y-138250000D03*
X156400000Y-137400000D03*
X156400000Y-136550000D03*
X156400000Y-135700000D03*
X156400000Y-134850000D03*
X156400000Y-134000000D03*
X156400000Y-133150000D03*
X156400000Y-132300000D03*
X156400000Y-131450000D03*
D27*
X157450000Y-130400000D03*
X158300000Y-130400000D03*
X159150000Y-130400000D03*
X160000000Y-130400000D03*
X160850000Y-130400000D03*
X161700000Y-130400000D03*
X162550000Y-130400000D03*
X163400000Y-130400000D03*
X164250000Y-130400000D03*
X165100000Y-130400000D03*
X165950000Y-130400000D03*
X166800000Y-130400000D03*
X167650000Y-130400000D03*
X168500000Y-130400000D03*
X169350000Y-130400000D03*
%TD*%
D17*
%TO.C,D1*%
X114950000Y-124350000D03*
X114950000Y-121050000D03*
X119850000Y-121050000D03*
X119850000Y-124350000D03*
%TD*%
D13*
%TO.C,C4*%
X165450000Y-127900000D03*
X167000000Y-127900000D03*
%TD*%
D15*
%TO.C,R13*%
X195500000Y-134587500D03*
X195500000Y-136412500D03*
%TD*%
%TO.C,R10*%
X195600000Y-152887500D03*
X195600000Y-154712500D03*
%TD*%
D28*
%TO.C,C12*%
X160800000Y-163600000D03*
X160800000Y-160650000D03*
%TD*%
D17*
%TO.C,D7*%
X246850000Y-121050000D03*
X246850000Y-124350000D03*
X241950000Y-124350000D03*
X241950000Y-121050000D03*
%TD*%
%TO.C,D5*%
X208800000Y-121050000D03*
X208800000Y-124350000D03*
X203900000Y-124350000D03*
X203900000Y-121050000D03*
%TD*%
D12*
%TO.C,C18*%
X200550000Y-121050000D03*
X199000000Y-121050000D03*
%TD*%
D17*
%TO.C,D10*%
X265950000Y-121100000D03*
X265950000Y-124400000D03*
X261050000Y-124400000D03*
X261050000Y-121100000D03*
%TD*%
D14*
%TO.C,SW2*%
X151400000Y-133850000D03*
X145100000Y-133850000D03*
X151400000Y-130050000D03*
X145100000Y-130050000D03*
%TD*%
D18*
%TO.C,R8*%
X137750000Y-145100000D03*
X136100000Y-145100000D03*
%TD*%
D29*
%TO.C,D15*%
X169150000Y-160037500D03*
X169150000Y-158162500D03*
%TD*%
D17*
%TO.C,D4*%
X189700000Y-121050000D03*
X189700000Y-124350000D03*
X184800000Y-124350000D03*
X184800000Y-121050000D03*
%TD*%
D15*
%TO.C,R17*%
X195550000Y-141850000D03*
X195550000Y-143675000D03*
%TD*%
%TO.C,R14*%
X195500000Y-138175000D03*
X195500000Y-140000000D03*
%TD*%
D12*
%TO.C,C19*%
X219525000Y-121000000D03*
X217975000Y-121000000D03*
%TD*%
D30*
%TO.C,L1*%
X145350000Y-164150000D03*
X145350000Y-161350000D03*
%TD*%
D31*
%TO.C,C8*%
X155600000Y-165097349D03*
X155600000Y-163547349D03*
%TD*%
D29*
%TO.C,D12*%
X166000000Y-161137500D03*
X166000000Y-159262500D03*
%TD*%
D13*
%TO.C,C14*%
X122100000Y-124500000D03*
X123650000Y-124500000D03*
%TD*%
D12*
%TO.C,C16*%
X162750000Y-121050000D03*
X161200000Y-121050000D03*
%TD*%
D17*
%TO.C,D2*%
X151600000Y-121050000D03*
X151600000Y-124350000D03*
X146700000Y-124350000D03*
X146700000Y-121050000D03*
%TD*%
D32*
%TO.C,D11*%
X150750000Y-154597349D03*
X150750000Y-158597349D03*
%TD*%
D33*
%TO.C,D14*%
X136450000Y-136200000D03*
X136450000Y-132200000D03*
%TD*%
D34*
%TO.C,U7*%
X137725000Y-139500000D03*
X137725000Y-140450000D03*
X137725000Y-141400000D03*
X135450000Y-141400000D03*
X135450000Y-140450000D03*
X135450000Y-139500000D03*
%TD*%
D19*
%TO.C,C6*%
X143000000Y-128425000D03*
X143000000Y-129975000D03*
%TD*%
D32*
%TO.C,D9*%
X145300000Y-154850000D03*
X145300000Y-158850000D03*
%TD*%
D35*
%TO.C,L2*%
X158000000Y-157397349D03*
X153900000Y-157397349D03*
%TD*%
D36*
%TO.C,D8*%
X152050000Y-149700000D03*
X145250000Y-149700000D03*
%TD*%
D19*
%TO.C,C9*%
X148100000Y-158047349D03*
X148100000Y-159597349D03*
%TD*%
D37*
%TO.C,U2*%
X153445000Y-161192349D03*
X153445000Y-162462349D03*
X153445000Y-163732349D03*
X153445000Y-165002349D03*
X148495000Y-165002349D03*
X148495000Y-163732349D03*
X148495000Y-162462349D03*
X148495000Y-161192349D03*
D38*
X151540000Y-163847349D03*
X151540000Y-162347349D03*
X150400000Y-163847349D03*
X150400000Y-162347349D03*
%TD*%
D39*
%TO.C,USB1*%
X132350000Y-142000000D03*
X132350000Y-141350000D03*
X132350000Y-140700000D03*
X132350000Y-140050000D03*
X132350000Y-139400000D03*
%TD*%
D12*
%TO.C,C15*%
X143450000Y-121050000D03*
X141900000Y-121050000D03*
%TD*%
D15*
%TO.C,R18*%
X195550000Y-127500000D03*
X195550000Y-129325000D03*
%TD*%
D17*
%TO.C,D3*%
X170650000Y-121050000D03*
X170650000Y-124350000D03*
X165750000Y-124350000D03*
X165750000Y-121050000D03*
%TD*%
D40*
%TO.C,C11*%
X155700000Y-161547349D03*
X158650000Y-161547349D03*
%TD*%
D22*
%TO.C,R2*%
X149650000Y-166697349D03*
X148000000Y-166697349D03*
%TD*%
%TO.C,R7*%
X144000000Y-144500000D03*
X142350000Y-144500000D03*
%TD*%
D20*
%TO.C,R1*%
X142850000Y-162925000D03*
X142850000Y-161275000D03*
%TD*%
D19*
%TO.C,C3*%
X183900000Y-153425000D03*
X183900000Y-154975000D03*
%TD*%
D15*
%TO.C,R12*%
X195550000Y-131100000D03*
X195550000Y-132925000D03*
%TD*%
%TO.C,R16*%
X195600000Y-145600000D03*
X195600000Y-147425000D03*
%TD*%
D41*
%TO.C,U3*%
X160900000Y-155500000D03*
D42*
X167200000Y-153200000D03*
D41*
X160900000Y-153200000D03*
X160900000Y-150900000D03*
%TD*%
D31*
%TO.C,C1*%
X142850000Y-165900000D03*
X142850000Y-164350000D03*
%TD*%
D21*
%TO.C,R6*%
X172000000Y-158075000D03*
X172000000Y-159725000D03*
%TD*%
D43*
%TO.C,LED1*%
X211400000Y-128050000D03*
X208860000Y-128050000D03*
X206320000Y-128050000D03*
X203780000Y-128050000D03*
X201240000Y-128050000D03*
X201240000Y-154339000D03*
X203780000Y-154339000D03*
X206320000Y-154339000D03*
X208860000Y-154339000D03*
X211400000Y-154339000D03*
%TD*%
M02*
